M48
;DRILL file {KiCad (2017-02-06 revision 13395d34d)-master} date Wed Apr 12 16:15:50 2017
;FORMAT={-:-/ absolute / metric / decimal}
FMAT,2
METRIC,TZ
T1C0.400
T2C0.900
T3C1.000
T4C1.200
T5C2.200
T6C2.750
%
G90
G05
M71
T1
X74.5Y-85.25
X75.5Y-75.5
X75.5Y-82.
X75.75Y-88.5
X78.75Y-75.25
X78.75Y-78.5
X81.Y-71.5
X81.25Y-77.75
X81.4Y-76.6
X81.6Y-73.4
X82.Y-58.7
X85.Y-58.5
X85.Y-79.25
X85.2Y-63.9
X86.25Y-78.5
X87.5Y-55.75
X87.5Y-63.9
X87.75Y-66.5
X90.25Y-61.
X90.25Y-65.25
X91.5Y-58.75
X92.75Y-61.
X92.75Y-65.25
X97.9Y-55.7
X100.75Y-102.5
X100.9Y-84.1
X101.Y-59.
X106.Y-105.25
X112.5Y-76.75
X113.1Y-61.2
X113.5Y-87.75
X113.5Y-89.25
X115.Y-87.75
X115.Y-89.25
X116.75Y-70.75
X117.5Y-88.3
X120.8Y-82.8
X121.4Y-92.7
X121.5Y-94.2
X121.7Y-80.4
X121.8Y-81.9
X121.8Y-83.8
X122.7Y-74.5
X123.Y-67.2
X125.4Y-90.2
X125.6Y-65.8
X127.Y-68.6
X127.5Y-91.6
X128.6Y-89.6
X129.4Y-63.6
X129.4Y-66.5
X129.4Y-91.1
X130.5Y-74.7
X140.9Y-79.3
X144.7Y-58.2
T2
X148.Y-78.5
X148.Y-81.
X148.Y-83.5
T4
X95.5Y-74.94
X95.5Y-78.75
X95.5Y-85.19
X95.5Y-89.
X134.25Y-75.
X134.25Y-78.81
X134.25Y-85.25
X134.25Y-89.06
T5
X77.5Y-67.
X77.5Y-97.
X95.5Y-67.
X95.5Y-97.
X135.5Y-67.
X135.5Y-97.
X153.5Y-67.
X153.5Y-97.
T6
X76.5Y-58.5
X76.5Y-107.5
X134.5Y-58.5
X134.5Y-107.5
T3
X114.5Y-100.5G85X116.5Y-100.5
G05
X114.5Y-106.5G85X116.5Y-106.5
G05
X120.2Y-104.5G85X120.2Y-102.5
G05
T0
M30
