G04 #@! TF.GenerationSoftware,KiCad,Pcbnew,(2017-02-06 revision 13395d34d)-master*
G04 #@! TF.CreationDate,2017-04-12T16:15:43-03:00*
G04 #@! TF.ProjectId,resin-rover,726573696E2D726F7665722E6B696361,rev?*
G04 #@! TF.FileFunction,Soldermask,Top*
G04 #@! TF.FilePolarity,Negative*
%FSLAX46Y46*%
G04 Gerber Fmt 4.6, Leading zero omitted, Abs format (unit mm)*
G04 Created by KiCad (PCBNEW (2017-02-06 revision 13395d34d)-master) date Wed Apr 12 16:15:43 2017*
%MOMM*%
%LPD*%
G01*
G04 APERTURE LIST*
%ADD10C,0.100000*%
%ADD11R,0.679400X1.822400*%
%ADD12C,2.600000*%
%ADD13C,6.200000*%
%ADD14R,1.400000X1.650000*%
%ADD15R,1.650000X1.400000*%
%ADD16R,0.750000X0.700000*%
%ADD17R,0.700000X0.750000*%
%ADD18R,1.200000X1.150000*%
%ADD19R,1.400000X2.900000*%
%ADD20R,0.900000X1.000000*%
%ADD21R,1.200000X1.200000*%
%ADD22R,2.900000X2.200000*%
%ADD23R,2.200000X2.900000*%
%ADD24R,3.900000X3.900000*%
%ADD25R,4.000000X2.200000*%
%ADD26O,4.000000X2.200000*%
%ADD27R,6.400000X3.100000*%
%ADD28R,3.100000X6.400000*%
%ADD29R,1.300000X1.200000*%
%ADD30R,1.100000X1.700000*%
%ADD31R,1.000000X0.800000*%
%ADD32R,0.900000X1.300000*%
%ADD33R,1.700000X1.100000*%
%ADD34R,1.400000X1.500000*%
%ADD35R,1.050000X1.460000*%
%ADD36R,1.650000X1.650000*%
%ADD37R,1.200000X0.750000*%
%ADD38R,0.750000X1.200000*%
%ADD39R,2.889200X2.406600*%
%ADD40R,0.958800X2.381200*%
%ADD41C,2.150000*%
%ADD42R,2.150000X2.150000*%
G04 APERTURE END LIST*
D10*
D11*
X83259400Y-81684400D03*
X83742000Y-81684400D03*
X84250000Y-81684400D03*
X84758000Y-81684400D03*
X85240600Y-81684400D03*
X85240600Y-77315600D03*
X84758000Y-77315600D03*
X84250000Y-77315600D03*
X83742000Y-77315600D03*
X83259400Y-77315600D03*
D12*
X95500000Y-97000000D03*
X77500000Y-97000000D03*
X95500000Y-67000000D03*
X77500000Y-67000000D03*
X153500000Y-97000000D03*
X135500000Y-97000000D03*
X153500000Y-67000000D03*
D13*
X76500000Y-58500000D03*
X76500000Y-107500000D03*
X134500000Y-107500000D03*
D14*
X120000000Y-90250000D03*
X118000000Y-90250000D03*
X87600000Y-74500000D03*
X85600000Y-74500000D03*
D15*
X110750000Y-92500000D03*
X110750000Y-90500000D03*
X101500000Y-85750000D03*
X101500000Y-87750000D03*
X142750000Y-90000000D03*
X142750000Y-88000000D03*
D16*
X112000000Y-84720000D03*
X112000000Y-85280000D03*
D17*
X120470000Y-86500000D03*
X121030000Y-86500000D03*
X118470000Y-84250000D03*
X119030000Y-84250000D03*
D18*
X115500000Y-81000000D03*
X117000000Y-81000000D03*
D19*
X115500000Y-76750000D03*
X112500000Y-76750000D03*
D15*
X119500000Y-75750000D03*
X119500000Y-77750000D03*
D17*
X118030000Y-64250000D03*
X117470000Y-64250000D03*
D16*
X117250000Y-65470000D03*
X117250000Y-66030000D03*
D20*
X113500000Y-71550000D03*
X113500000Y-70450000D03*
D18*
X104750000Y-66500000D03*
X103250000Y-66500000D03*
D21*
X113750000Y-94950000D03*
X113750000Y-96550000D03*
D22*
X105000000Y-76500000D03*
X109000000Y-76500000D03*
D23*
X108500000Y-103250000D03*
X108500000Y-99250000D03*
D21*
X115250000Y-94050000D03*
X115250000Y-92450000D03*
D23*
X104750000Y-92000000D03*
X104750000Y-96000000D03*
D24*
X120200000Y-103500000D03*
X115500000Y-106500000D03*
X115500000Y-100500000D03*
D25*
X95500000Y-78750000D03*
D26*
X95500000Y-74940000D03*
D25*
X134250000Y-75000000D03*
D26*
X134250000Y-78810000D03*
X95500000Y-85190000D03*
D25*
X95500000Y-89000000D03*
D26*
X134250000Y-89060000D03*
D25*
X134250000Y-85250000D03*
D27*
X106500000Y-83250000D03*
X106500000Y-88250000D03*
D28*
X109250000Y-70750000D03*
X104250000Y-70750000D03*
D29*
X141750000Y-84750000D03*
X143750000Y-83800000D03*
X143750000Y-85700000D03*
D30*
X79950000Y-77000000D03*
X78050000Y-77000000D03*
X78050000Y-73500000D03*
X79950000Y-73500000D03*
X79950000Y-83500000D03*
X78050000Y-83500000D03*
X78050000Y-80000000D03*
X79950000Y-80000000D03*
X79950000Y-90000000D03*
X78050000Y-90000000D03*
X78050000Y-86500000D03*
X79950000Y-86500000D03*
X119950000Y-92250000D03*
X118050000Y-92250000D03*
D31*
X115250000Y-95300000D03*
X115250000Y-96200000D03*
X113750000Y-93450000D03*
X113750000Y-92550000D03*
D30*
X150300000Y-89000000D03*
X152200000Y-89000000D03*
D32*
X119250000Y-86750000D03*
X117750000Y-86750000D03*
D31*
X118500000Y-65300000D03*
X118500000Y-66200000D03*
D33*
X121750000Y-64300000D03*
X121750000Y-66200000D03*
X121750000Y-70450000D03*
X121750000Y-68550000D03*
D31*
X82250000Y-76950000D03*
X82250000Y-76050000D03*
X83700000Y-75350000D03*
X83700000Y-74450000D03*
D32*
X115750000Y-84750000D03*
X117250000Y-84750000D03*
D30*
X111550000Y-81000000D03*
X113450000Y-81000000D03*
D32*
X119750000Y-94250000D03*
X118250000Y-94250000D03*
D34*
X74560000Y-77510000D03*
X76470000Y-77510000D03*
X74560000Y-73460000D03*
X76470000Y-73460000D03*
X74560000Y-84010000D03*
X76470000Y-84010000D03*
X74560000Y-79960000D03*
X76470000Y-79960000D03*
X76470000Y-86460000D03*
X74560000Y-86460000D03*
X76470000Y-90510000D03*
X74560000Y-90510000D03*
D35*
X147000000Y-90100000D03*
X147950000Y-90100000D03*
X146050000Y-90100000D03*
X146050000Y-87900000D03*
X147000000Y-87900000D03*
X147950000Y-87900000D03*
D36*
X113625000Y-89125000D03*
X114875000Y-89125000D03*
X113625000Y-87875000D03*
X114875000Y-87875000D03*
D37*
X112250000Y-89475000D03*
X112250000Y-88825000D03*
X112250000Y-88175000D03*
X112250000Y-87525000D03*
D38*
X113275000Y-86500000D03*
X113925000Y-86500000D03*
X114575000Y-86500000D03*
X115225000Y-86500000D03*
D37*
X116250000Y-87525000D03*
X116250000Y-88175000D03*
X116250000Y-88825000D03*
X116250000Y-89475000D03*
D38*
X115225000Y-90500000D03*
X114575000Y-90500000D03*
X113925000Y-90500000D03*
X113275000Y-90500000D03*
D39*
X116750000Y-70750000D03*
D40*
X114845000Y-68286200D03*
X116115000Y-68286200D03*
X117385000Y-68286200D03*
X118655000Y-68286200D03*
X118655000Y-73213800D03*
X117385000Y-73213800D03*
X116115000Y-73213800D03*
X114845000Y-73213800D03*
D13*
X134500000Y-58500000D03*
D12*
X135500000Y-67000000D03*
D41*
X148000000Y-78500000D03*
X148000000Y-81000000D03*
D42*
X148000000Y-83500000D03*
M02*
