G04 #@! TF.GenerationSoftware,KiCad,Pcbnew,(2017-02-06 revision 13395d34d)-master*
G04 #@! TF.CreationDate,2017-04-12T16:15:43-03:00*
G04 #@! TF.ProjectId,resin-rover,726573696E2D726F7665722E6B696361,rev?*
G04 #@! TF.FileFunction,Soldermask,Bot*
G04 #@! TF.FilePolarity,Negative*
%FSLAX46Y46*%
G04 Gerber Fmt 4.6, Leading zero omitted, Abs format (unit mm)*
G04 Created by KiCad (PCBNEW (2017-02-06 revision 13395d34d)-master) date Wed Apr 12 16:15:43 2017*
%MOMM*%
%LPD*%
G01*
G04 APERTURE LIST*
%ADD10C,0.100000*%
%ADD11R,2.584400X2.127200*%
%ADD12R,0.679400X1.822400*%
%ADD13C,2.600000*%
%ADD14C,6.200000*%
%ADD15R,1.400000X1.650000*%
%ADD16R,1.650000X1.400000*%
%ADD17R,1.400000X2.900000*%
%ADD18R,0.750000X0.700000*%
%ADD19R,0.700000X0.750000*%
%ADD20R,0.900000X1.000000*%
%ADD21R,1.200000X1.150000*%
%ADD22R,1.200000X1.200000*%
%ADD23R,1.500000X1.500000*%
%ADD24R,3.900000X3.900000*%
%ADD25R,4.000000X2.200000*%
%ADD26O,4.000000X2.200000*%
%ADD27R,1.400000X3.400000*%
%ADD28R,3.100000X6.400000*%
%ADD29R,1.000000X0.800000*%
%ADD30R,1.100000X1.700000*%
%ADD31R,1.300000X2.100000*%
%ADD32R,2.100000X1.300000*%
%ADD33R,1.700000X1.100000*%
%ADD34R,1.212800X0.781000*%
%ADD35R,2.051000X2.787600*%
%ADD36R,0.958800X2.381200*%
%ADD37R,2.889200X2.406600*%
%ADD38C,2.150000*%
%ADD39R,2.150000X2.150000*%
%ADD40C,3.400000*%
G04 APERTURE END LIST*
D10*
D11*
X124500000Y-71800000D03*
D12*
X125490600Y-69615600D03*
X125008000Y-69615600D03*
X124500000Y-69615600D03*
X123992000Y-69615600D03*
X123509400Y-69615600D03*
X123509400Y-73984400D03*
X123992000Y-73984400D03*
X124500000Y-73984400D03*
X125008000Y-73984400D03*
X125490600Y-73984400D03*
D11*
X123950000Y-93650000D03*
D12*
X122959400Y-95834400D03*
X123442000Y-95834400D03*
X123950000Y-95834400D03*
X124458000Y-95834400D03*
X124940600Y-95834400D03*
X124940600Y-91465600D03*
X124458000Y-91465600D03*
X123950000Y-91465600D03*
X123442000Y-91465600D03*
X122959400Y-91465600D03*
D13*
X95500000Y-97000000D03*
X77500000Y-97000000D03*
X95500000Y-67000000D03*
X77500000Y-67000000D03*
X153500000Y-97000000D03*
X135500000Y-97000000D03*
X153500000Y-67000000D03*
D14*
X76500000Y-58500000D03*
X76500000Y-107500000D03*
X134500000Y-107500000D03*
D15*
X123250000Y-76050000D03*
X121250000Y-76050000D03*
D16*
X142950000Y-63450000D03*
X142950000Y-61450000D03*
X149550000Y-61550000D03*
X149550000Y-59550000D03*
X151550000Y-60250000D03*
X151550000Y-58250000D03*
D15*
X149350000Y-63850000D03*
X151350000Y-63850000D03*
X125200000Y-88900000D03*
X127200000Y-88900000D03*
D17*
X108825000Y-86275000D03*
X105825000Y-86275000D03*
D18*
X102825000Y-85555000D03*
X102825000Y-84995000D03*
D19*
X104105000Y-73775000D03*
X103545000Y-73775000D03*
D18*
X104575000Y-75555000D03*
X104575000Y-74995000D03*
D20*
X108325000Y-79975000D03*
X108325000Y-81075000D03*
D21*
X110450000Y-75900000D03*
X111950000Y-75900000D03*
D22*
X122000000Y-70700000D03*
X122000000Y-69100000D03*
X126450000Y-94350000D03*
X126450000Y-95950000D03*
D23*
X113850000Y-85150000D03*
X111050000Y-85150000D03*
D24*
X120200000Y-103500000D03*
X115500000Y-106500000D03*
X115500000Y-100500000D03*
D25*
X95500000Y-78750000D03*
D26*
X95500000Y-74940000D03*
D25*
X134250000Y-75000000D03*
D26*
X134250000Y-78810000D03*
X95500000Y-85190000D03*
D25*
X95500000Y-89000000D03*
D26*
X134250000Y-89060000D03*
D25*
X134250000Y-85250000D03*
D27*
X129630000Y-61270000D03*
X129630000Y-55730000D03*
X127090000Y-61270000D03*
X127090000Y-55730000D03*
X124550000Y-61270000D03*
X124550000Y-55730000D03*
X122010000Y-61270000D03*
X122010000Y-55730000D03*
X119470000Y-61270000D03*
X119470000Y-55730000D03*
X116930000Y-61270000D03*
X116930000Y-55730000D03*
X114390000Y-61270000D03*
X114390000Y-55730000D03*
X111850000Y-61270000D03*
X111850000Y-55730000D03*
X109310000Y-61270000D03*
X109310000Y-55730000D03*
X106770000Y-61270000D03*
X106770000Y-55730000D03*
X104230000Y-61270000D03*
X104230000Y-55730000D03*
X101690000Y-61270000D03*
X101690000Y-55730000D03*
X99150000Y-61270000D03*
X99150000Y-55730000D03*
X96610000Y-61270000D03*
X96610000Y-55730000D03*
X94070000Y-61270000D03*
X94070000Y-55730000D03*
X91530000Y-61270000D03*
X91530000Y-55730000D03*
X88990000Y-61270000D03*
X88990000Y-55730000D03*
X86450000Y-61270000D03*
X86450000Y-55730000D03*
X83910000Y-61270000D03*
X83910000Y-55730000D03*
X81370000Y-61270000D03*
X81370000Y-55730000D03*
D28*
X110950000Y-80400000D03*
X115950000Y-80400000D03*
D29*
X125000000Y-66650000D03*
X125000000Y-67550000D03*
X126300000Y-67550000D03*
X126300000Y-66650000D03*
D30*
X125550000Y-76050000D03*
X127450000Y-76050000D03*
D31*
X141000000Y-61450000D03*
X138100000Y-61450000D03*
X153600000Y-60450000D03*
X156500000Y-60450000D03*
X153600000Y-62850000D03*
X156500000Y-62850000D03*
D32*
X147150000Y-56900000D03*
X147150000Y-59800000D03*
D29*
X122100000Y-72050000D03*
X122100000Y-72950000D03*
X143650000Y-58800000D03*
X143650000Y-59700000D03*
D33*
X143150000Y-55600000D03*
X143150000Y-57500000D03*
D29*
X123700000Y-97950000D03*
X123700000Y-98850000D03*
X122450000Y-98850000D03*
X122450000Y-97950000D03*
D30*
X122900000Y-88900000D03*
X121000000Y-88900000D03*
D29*
X126450000Y-92200000D03*
X126450000Y-93100000D03*
X103325000Y-74825000D03*
X103325000Y-75725000D03*
D33*
X100575000Y-74575000D03*
X100575000Y-76475000D03*
X100575000Y-79975000D03*
X100575000Y-78075000D03*
D29*
X102500000Y-107200000D03*
X102500000Y-106300000D03*
X104250000Y-106300000D03*
X104250000Y-107200000D03*
D34*
X147773200Y-61284800D03*
X147773200Y-61919800D03*
X147773200Y-62580200D03*
X147773200Y-63215200D03*
X144826800Y-63215200D03*
X144826800Y-62580200D03*
X144826800Y-61919800D03*
X144826800Y-61284800D03*
D35*
X146300000Y-62250000D03*
D36*
X106980000Y-82988800D03*
X105710000Y-82988800D03*
X104440000Y-82988800D03*
X103170000Y-82988800D03*
X103170000Y-78061200D03*
X104440000Y-78061200D03*
X105710000Y-78061200D03*
X106980000Y-78061200D03*
D37*
X105075000Y-80525000D03*
D14*
X134500000Y-58500000D03*
D13*
X135500000Y-67000000D03*
D38*
X148000000Y-78500000D03*
X148000000Y-81000000D03*
D39*
X148000000Y-83500000D03*
D40*
X82000000Y-102500000D03*
X86500000Y-102500000D03*
X86500000Y-107000000D03*
X82000000Y-107000000D03*
X93000000Y-102500000D03*
X97500000Y-102500000D03*
X97500000Y-107000000D03*
X93000000Y-107000000D03*
M02*
