G04 #@! TF.GenerationSoftware,KiCad,Pcbnew,(2017-02-06 revision 13395d34d)-master*
G04 #@! TF.CreationDate,2017-04-12T16:15:42-03:00*
G04 #@! TF.ProjectId,resin-rover,726573696E2D726F7665722E6B696361,rev?*
G04 #@! TF.FileFunction,Legend,Bot*
G04 #@! TF.FilePolarity,Positive*
%FSLAX46Y46*%
G04 Gerber Fmt 4.6, Leading zero omitted, Abs format (unit mm)*
G04 Created by KiCad (PCBNEW (2017-02-06 revision 13395d34d)-master) date Wed Apr 12 16:15:42 2017*
%MOMM*%
%LPD*%
G01*
G04 APERTURE LIST*
%ADD10C,0.100000*%
%ADD11C,0.125000*%
%ADD12C,0.187500*%
%ADD13C,0.152400*%
%ADD14C,0.120000*%
%ADD15C,0.150000*%
%ADD16C,0.075000*%
G04 APERTURE END LIST*
D10*
D11*
X152688095Y-83364285D02*
X152616666Y-83388095D01*
X152592857Y-83411904D01*
X152569047Y-83459523D01*
X152569047Y-83530952D01*
X152592857Y-83578571D01*
X152616666Y-83602380D01*
X152664285Y-83626190D01*
X152854761Y-83626190D01*
X152854761Y-83126190D01*
X152688095Y-83126190D01*
X152640476Y-83150000D01*
X152616666Y-83173809D01*
X152592857Y-83221428D01*
X152592857Y-83269047D01*
X152616666Y-83316666D01*
X152640476Y-83340476D01*
X152688095Y-83364285D01*
X152854761Y-83364285D01*
X152378571Y-83483333D02*
X152140476Y-83483333D01*
X152426190Y-83626190D02*
X152259523Y-83126190D01*
X152092857Y-83626190D01*
X151997619Y-83126190D02*
X151711904Y-83126190D01*
X151854761Y-83626190D02*
X151854761Y-83126190D01*
X151616666Y-83126190D02*
X151330952Y-83126190D01*
X151473809Y-83626190D02*
X151473809Y-83126190D01*
X150783333Y-83626190D02*
X150783333Y-83126190D01*
X150616666Y-83483333D01*
X150450000Y-83126190D01*
X150450000Y-83626190D01*
X150235714Y-83483333D02*
X149997619Y-83483333D01*
X150283333Y-83626190D02*
X150116666Y-83126190D01*
X149950000Y-83626190D01*
X149830952Y-83126190D02*
X149497619Y-83626190D01*
X149497619Y-83126190D02*
X149830952Y-83626190D01*
X152616666Y-78564285D02*
X152545238Y-78588095D01*
X152521428Y-78611904D01*
X152497619Y-78659523D01*
X152497619Y-78730952D01*
X152521428Y-78778571D01*
X152545238Y-78802380D01*
X152592857Y-78826190D01*
X152783333Y-78826190D01*
X152783333Y-78326190D01*
X152616666Y-78326190D01*
X152569047Y-78350000D01*
X152545238Y-78373809D01*
X152521428Y-78421428D01*
X152521428Y-78469047D01*
X152545238Y-78516666D01*
X152569047Y-78540476D01*
X152616666Y-78564285D01*
X152783333Y-78564285D01*
X152307142Y-78683333D02*
X152069047Y-78683333D01*
X152354761Y-78826190D02*
X152188095Y-78326190D01*
X152021428Y-78826190D01*
X151926190Y-78326190D02*
X151640476Y-78326190D01*
X151783333Y-78826190D02*
X151783333Y-78326190D01*
X151545238Y-78326190D02*
X151259523Y-78326190D01*
X151402380Y-78826190D02*
X151402380Y-78326190D01*
X150711904Y-78826190D02*
X150711904Y-78326190D01*
X150545238Y-78683333D01*
X150378571Y-78326190D01*
X150378571Y-78826190D01*
X150140476Y-78826190D02*
X150140476Y-78326190D01*
X149902380Y-78826190D02*
X149902380Y-78326190D01*
X149616666Y-78826190D01*
X149616666Y-78326190D01*
X152604761Y-80964285D02*
X152533333Y-80988095D01*
X152509523Y-81011904D01*
X152485714Y-81059523D01*
X152485714Y-81130952D01*
X152509523Y-81178571D01*
X152533333Y-81202380D01*
X152580952Y-81226190D01*
X152771428Y-81226190D01*
X152771428Y-80726190D01*
X152604761Y-80726190D01*
X152557142Y-80750000D01*
X152533333Y-80773809D01*
X152509523Y-80821428D01*
X152509523Y-80869047D01*
X152533333Y-80916666D01*
X152557142Y-80940476D01*
X152604761Y-80964285D01*
X152771428Y-80964285D01*
X152295238Y-81083333D02*
X152057142Y-81083333D01*
X152342857Y-81226190D02*
X152176190Y-80726190D01*
X152009523Y-81226190D01*
X151914285Y-80726190D02*
X151628571Y-80726190D01*
X151771428Y-81226190D02*
X151771428Y-80726190D01*
X151533333Y-80726190D02*
X151247619Y-80726190D01*
X151390476Y-81226190D02*
X151390476Y-80726190D01*
X150700000Y-81226190D02*
X150700000Y-80726190D01*
X150533333Y-81083333D01*
X150366666Y-80726190D01*
X150366666Y-81226190D01*
X150128571Y-81226190D02*
X150128571Y-80726190D01*
X149890476Y-81226190D02*
X149890476Y-80726190D01*
X149771428Y-80726190D01*
X149700000Y-80750000D01*
X149652380Y-80797619D01*
X149628571Y-80845238D01*
X149604761Y-80940476D01*
X149604761Y-81011904D01*
X149628571Y-81107142D01*
X149652380Y-81154761D01*
X149700000Y-81202380D01*
X149771428Y-81226190D01*
X149890476Y-81226190D01*
D12*
X85446428Y-104339285D02*
X85446428Y-104946428D01*
X85410714Y-105017857D01*
X85375000Y-105053571D01*
X85303571Y-105089285D01*
X85160714Y-105089285D01*
X85089285Y-105053571D01*
X85053571Y-105017857D01*
X85017857Y-104946428D01*
X85017857Y-104339285D01*
X84696428Y-104875000D02*
X84339285Y-104875000D01*
X84767857Y-105089285D02*
X84517857Y-104339285D01*
X84267857Y-105089285D01*
X83589285Y-105089285D02*
X83839285Y-104732142D01*
X84017857Y-105089285D02*
X84017857Y-104339285D01*
X83732142Y-104339285D01*
X83660714Y-104375000D01*
X83625000Y-104410714D01*
X83589285Y-104482142D01*
X83589285Y-104589285D01*
X83625000Y-104660714D01*
X83660714Y-104696428D01*
X83732142Y-104732142D01*
X84017857Y-104732142D01*
X83375000Y-104339285D02*
X82946428Y-104339285D01*
X83160714Y-105089285D02*
X83160714Y-104339285D01*
X95910714Y-105089285D02*
X95910714Y-104339285D01*
X95589285Y-104160714D02*
X95517857Y-104125000D01*
X95410714Y-104125000D01*
X95339285Y-104160714D01*
X95303571Y-104232142D01*
X95303571Y-104303571D01*
X95339285Y-104375000D01*
X95589285Y-104625000D01*
X95303571Y-104625000D01*
X94553571Y-105017857D02*
X94589285Y-105053571D01*
X94696428Y-105089285D01*
X94767857Y-105089285D01*
X94875000Y-105053571D01*
X94946428Y-104982142D01*
X94982142Y-104910714D01*
X95017857Y-104767857D01*
X95017857Y-104660714D01*
X94982142Y-104517857D01*
X94946428Y-104446428D01*
X94875000Y-104375000D01*
X94767857Y-104339285D01*
X94696428Y-104339285D01*
X94589285Y-104375000D01*
X94553571Y-104410714D01*
D11*
X98510714Y-100503571D02*
X98403571Y-100539285D01*
X98225000Y-100539285D01*
X98153571Y-100503571D01*
X98117857Y-100467857D01*
X98082142Y-100396428D01*
X98082142Y-100325000D01*
X98117857Y-100253571D01*
X98153571Y-100217857D01*
X98225000Y-100182142D01*
X98367857Y-100146428D01*
X98439285Y-100110714D01*
X98475000Y-100075000D01*
X98510714Y-100003571D01*
X98510714Y-99932142D01*
X98475000Y-99860714D01*
X98439285Y-99825000D01*
X98367857Y-99789285D01*
X98189285Y-99789285D01*
X98082142Y-99825000D01*
X97760714Y-100539285D02*
X97760714Y-99789285D01*
X97582142Y-99789285D01*
X97475000Y-99825000D01*
X97403571Y-99896428D01*
X97367857Y-99967857D01*
X97332142Y-100110714D01*
X97332142Y-100217857D01*
X97367857Y-100360714D01*
X97403571Y-100432142D01*
X97475000Y-100503571D01*
X97582142Y-100539285D01*
X97760714Y-100539285D01*
X97046428Y-100325000D02*
X96689285Y-100325000D01*
X97117857Y-100539285D02*
X96867857Y-99789285D01*
X96617857Y-100539285D01*
X93892857Y-100503571D02*
X93785714Y-100539285D01*
X93607142Y-100539285D01*
X93535714Y-100503571D01*
X93500000Y-100467857D01*
X93464285Y-100396428D01*
X93464285Y-100325000D01*
X93500000Y-100253571D01*
X93535714Y-100217857D01*
X93607142Y-100182142D01*
X93750000Y-100146428D01*
X93821428Y-100110714D01*
X93857142Y-100075000D01*
X93892857Y-100003571D01*
X93892857Y-99932142D01*
X93857142Y-99860714D01*
X93821428Y-99825000D01*
X93750000Y-99789285D01*
X93571428Y-99789285D01*
X93464285Y-99825000D01*
X92714285Y-100467857D02*
X92750000Y-100503571D01*
X92857142Y-100539285D01*
X92928571Y-100539285D01*
X93035714Y-100503571D01*
X93107142Y-100432142D01*
X93142857Y-100360714D01*
X93178571Y-100217857D01*
X93178571Y-100110714D01*
X93142857Y-99967857D01*
X93107142Y-99896428D01*
X93035714Y-99825000D01*
X92928571Y-99789285D01*
X92857142Y-99789285D01*
X92750000Y-99825000D01*
X92714285Y-99860714D01*
X92035714Y-100539285D02*
X92392857Y-100539285D01*
X92392857Y-99789285D01*
X93571428Y-109025000D02*
X93642857Y-108989285D01*
X93750000Y-108989285D01*
X93857142Y-109025000D01*
X93928571Y-109096428D01*
X93964285Y-109167857D01*
X94000000Y-109310714D01*
X94000000Y-109417857D01*
X93964285Y-109560714D01*
X93928571Y-109632142D01*
X93857142Y-109703571D01*
X93750000Y-109739285D01*
X93678571Y-109739285D01*
X93571428Y-109703571D01*
X93535714Y-109667857D01*
X93535714Y-109417857D01*
X93678571Y-109417857D01*
X93214285Y-109739285D02*
X93214285Y-108989285D01*
X92785714Y-109739285D01*
X92785714Y-108989285D01*
X92428571Y-109739285D02*
X92428571Y-108989285D01*
X92250000Y-108989285D01*
X92142857Y-109025000D01*
X92071428Y-109096428D01*
X92035714Y-109167857D01*
X92000000Y-109310714D01*
X92000000Y-109417857D01*
X92035714Y-109560714D01*
X92071428Y-109632142D01*
X92142857Y-109703571D01*
X92250000Y-109739285D01*
X92428571Y-109739285D01*
X97742857Y-108989285D02*
X98100000Y-108989285D01*
X98135714Y-109346428D01*
X98100000Y-109310714D01*
X98028571Y-109275000D01*
X97850000Y-109275000D01*
X97778571Y-109310714D01*
X97742857Y-109346428D01*
X97707142Y-109417857D01*
X97707142Y-109596428D01*
X97742857Y-109667857D01*
X97778571Y-109703571D01*
X97850000Y-109739285D01*
X98028571Y-109739285D01*
X98100000Y-109703571D01*
X98135714Y-109667857D01*
X97492857Y-108989285D02*
X97242857Y-109739285D01*
X96992857Y-108989285D01*
X82371428Y-109025000D02*
X82442857Y-108989285D01*
X82550000Y-108989285D01*
X82657142Y-109025000D01*
X82728571Y-109096428D01*
X82764285Y-109167857D01*
X82800000Y-109310714D01*
X82800000Y-109417857D01*
X82764285Y-109560714D01*
X82728571Y-109632142D01*
X82657142Y-109703571D01*
X82550000Y-109739285D01*
X82478571Y-109739285D01*
X82371428Y-109703571D01*
X82335714Y-109667857D01*
X82335714Y-109417857D01*
X82478571Y-109417857D01*
X82014285Y-109739285D02*
X82014285Y-108989285D01*
X81585714Y-109739285D01*
X81585714Y-108989285D01*
X81228571Y-109739285D02*
X81228571Y-108989285D01*
X81050000Y-108989285D01*
X80942857Y-109025000D01*
X80871428Y-109096428D01*
X80835714Y-109167857D01*
X80800000Y-109310714D01*
X80800000Y-109417857D01*
X80835714Y-109560714D01*
X80871428Y-109632142D01*
X80942857Y-109703571D01*
X81050000Y-109739285D01*
X81228571Y-109739285D01*
X86542857Y-108989285D02*
X86900000Y-108989285D01*
X86935714Y-109346428D01*
X86900000Y-109310714D01*
X86828571Y-109275000D01*
X86650000Y-109275000D01*
X86578571Y-109310714D01*
X86542857Y-109346428D01*
X86507142Y-109417857D01*
X86507142Y-109596428D01*
X86542857Y-109667857D01*
X86578571Y-109703571D01*
X86650000Y-109739285D01*
X86828571Y-109739285D01*
X86900000Y-109703571D01*
X86935714Y-109667857D01*
X86292857Y-108989285D02*
X86042857Y-109739285D01*
X85792857Y-108989285D01*
X86725000Y-100539285D02*
X86975000Y-100182142D01*
X87153571Y-100539285D02*
X87153571Y-99789285D01*
X86867857Y-99789285D01*
X86796428Y-99825000D01*
X86760714Y-99860714D01*
X86725000Y-99932142D01*
X86725000Y-100039285D01*
X86760714Y-100110714D01*
X86796428Y-100146428D01*
X86867857Y-100182142D01*
X87153571Y-100182142D01*
X86475000Y-99789285D02*
X85975000Y-100539285D01*
X85975000Y-99789285D02*
X86475000Y-100539285D01*
X82571428Y-99789285D02*
X82142857Y-99789285D01*
X82357142Y-100539285D02*
X82357142Y-99789285D01*
X81964285Y-99789285D02*
X81464285Y-100539285D01*
X81464285Y-99789285D02*
X81964285Y-100539285D01*
D13*
X126049400Y-70250600D02*
X126049400Y-73349400D01*
X122950600Y-73349400D02*
X122950600Y-70250600D01*
X122400600Y-95199400D02*
X122400600Y-92100600D01*
X125499400Y-92100600D02*
X125499400Y-95199400D01*
D14*
X121750000Y-75200000D02*
X122750000Y-75200000D01*
X122750000Y-76900000D02*
X121750000Y-76900000D01*
X143800000Y-61950000D02*
X143800000Y-62950000D01*
X142100000Y-62950000D02*
X142100000Y-61950000D01*
X150400000Y-60050000D02*
X150400000Y-61050000D01*
X148700000Y-61050000D02*
X148700000Y-60050000D01*
X152400000Y-58750000D02*
X152400000Y-59750000D01*
X150700000Y-59750000D02*
X150700000Y-58750000D01*
X150850000Y-64700000D02*
X149850000Y-64700000D01*
X149850000Y-63000000D02*
X150850000Y-63000000D01*
X126700000Y-89750000D02*
X125700000Y-89750000D01*
X125700000Y-88050000D02*
X126700000Y-88050000D01*
X106325000Y-84795000D02*
X108325000Y-84795000D01*
X108325000Y-87755000D02*
X106325000Y-87755000D01*
X102425000Y-85025000D02*
X102425000Y-85525000D01*
X103225000Y-85525000D02*
X103225000Y-85025000D01*
X103575000Y-74175000D02*
X104075000Y-74175000D01*
X104075000Y-73375000D02*
X103575000Y-73375000D01*
X104175000Y-75025000D02*
X104175000Y-75525000D01*
X104975000Y-75525000D02*
X104975000Y-75025000D01*
X107855000Y-80775000D02*
X107855000Y-80275000D01*
X108795000Y-80275000D02*
X108795000Y-80775000D01*
X110850000Y-76500000D02*
X111550000Y-76500000D01*
X111550000Y-75300000D02*
X110850000Y-75300000D01*
X121500000Y-68600000D02*
X122500000Y-68600000D01*
X122500000Y-68600000D02*
X122500000Y-70700000D01*
X121500000Y-68600000D02*
X121500000Y-70700000D01*
X126950000Y-96450000D02*
X125950000Y-96450000D01*
X125950000Y-96450000D02*
X125950000Y-94350000D01*
X126950000Y-96450000D02*
X126950000Y-94350000D01*
X110250000Y-86150000D02*
X114100000Y-86150000D01*
X110250000Y-84150000D02*
X114100000Y-84150000D01*
X110250000Y-86150000D02*
X110250000Y-84150000D01*
X80570000Y-54230000D02*
X80570000Y-55900000D01*
X130960000Y-61100000D02*
X130430000Y-61100000D01*
X130960000Y-55900000D02*
X130960000Y-61100000D01*
X130430000Y-55900000D02*
X130960000Y-55900000D01*
X80040000Y-61100000D02*
X80570000Y-61100000D01*
X80040000Y-55900000D02*
X80040000Y-61100000D01*
X80570000Y-55900000D02*
X80040000Y-55900000D01*
X124470000Y-67350000D02*
X124470000Y-66850000D01*
X125530000Y-66850000D02*
X125530000Y-67350000D01*
X126830000Y-66850000D02*
X126830000Y-67350000D01*
X125770000Y-67350000D02*
X125770000Y-66850000D01*
X127100000Y-75170000D02*
X125900000Y-75170000D01*
X125900000Y-76930000D02*
X127100000Y-76930000D01*
X138550000Y-62520000D02*
X140550000Y-62520000D01*
X140550000Y-60380000D02*
X138550000Y-60380000D01*
X156050000Y-59380000D02*
X154050000Y-59380000D01*
X154050000Y-61520000D02*
X156050000Y-61520000D01*
X156050000Y-61780000D02*
X154050000Y-61780000D01*
X154050000Y-63920000D02*
X156050000Y-63920000D01*
X148220000Y-59350000D02*
X148220000Y-57350000D01*
X146080000Y-57350000D02*
X146080000Y-59350000D01*
X121570000Y-72750000D02*
X121570000Y-72250000D01*
X122630000Y-72250000D02*
X122630000Y-72750000D01*
X143120000Y-59500000D02*
X143120000Y-59000000D01*
X144180000Y-59000000D02*
X144180000Y-59500000D01*
X144030000Y-57150000D02*
X144030000Y-55950000D01*
X142270000Y-55950000D02*
X142270000Y-57150000D01*
X123170000Y-98650000D02*
X123170000Y-98150000D01*
X124230000Y-98150000D02*
X124230000Y-98650000D01*
X122980000Y-98150000D02*
X122980000Y-98650000D01*
X121920000Y-98650000D02*
X121920000Y-98150000D01*
X121350000Y-89780000D02*
X122550000Y-89780000D01*
X122550000Y-88020000D02*
X121350000Y-88020000D01*
X125920000Y-92900000D02*
X125920000Y-92400000D01*
X126980000Y-92400000D02*
X126980000Y-92900000D01*
X102795000Y-75525000D02*
X102795000Y-75025000D01*
X103855000Y-75025000D02*
X103855000Y-75525000D01*
X101455000Y-76125000D02*
X101455000Y-74925000D01*
X99695000Y-74925000D02*
X99695000Y-76125000D01*
X99695000Y-78425000D02*
X99695000Y-79625000D01*
X101455000Y-79625000D02*
X101455000Y-78425000D01*
X103030000Y-106500000D02*
X103030000Y-107000000D01*
X101970000Y-107000000D02*
X101970000Y-106500000D01*
X103720000Y-107000000D02*
X103720000Y-106500000D01*
X104780000Y-106500000D02*
X104780000Y-107000000D01*
D13*
X147874800Y-63824800D02*
X144725200Y-63824800D01*
X144725200Y-60675200D02*
X147874800Y-60675200D01*
X102585800Y-81896600D02*
X102585800Y-79153400D01*
X107564200Y-79153400D02*
X107564200Y-80220200D01*
X107564200Y-80220200D02*
X107564200Y-80829800D01*
X107564200Y-80829800D02*
X107564200Y-81896600D01*
X107564200Y-80220200D02*
G75*
G03X107564200Y-80829800I0J-304800D01*
G01*
D11*
X126476190Y-71419047D02*
X126880952Y-71419047D01*
X126928571Y-71442857D01*
X126952380Y-71466666D01*
X126976190Y-71514285D01*
X126976190Y-71609523D01*
X126952380Y-71657142D01*
X126928571Y-71680952D01*
X126880952Y-71704761D01*
X126476190Y-71704761D01*
X126523809Y-71919047D02*
X126500000Y-71942857D01*
X126476190Y-71990476D01*
X126476190Y-72109523D01*
X126500000Y-72157142D01*
X126523809Y-72180952D01*
X126571428Y-72204761D01*
X126619047Y-72204761D01*
X126690476Y-72180952D01*
X126976190Y-71895238D01*
X126976190Y-72204761D01*
X121676190Y-93269047D02*
X122080952Y-93269047D01*
X122128571Y-93292857D01*
X122152380Y-93316666D01*
X122176190Y-93364285D01*
X122176190Y-93459523D01*
X122152380Y-93507142D01*
X122128571Y-93530952D01*
X122080952Y-93554761D01*
X121676190Y-93554761D01*
X121676190Y-94007142D02*
X121676190Y-93911904D01*
X121700000Y-93864285D01*
X121723809Y-93840476D01*
X121795238Y-93792857D01*
X121890476Y-93769047D01*
X122080952Y-93769047D01*
X122128571Y-93792857D01*
X122152380Y-93816666D01*
X122176190Y-93864285D01*
X122176190Y-93959523D01*
X122152380Y-94007142D01*
X122128571Y-94030952D01*
X122080952Y-94054761D01*
X121961904Y-94054761D01*
X121914285Y-94030952D01*
X121890476Y-94007142D01*
X121866666Y-93959523D01*
X121866666Y-93864285D01*
X121890476Y-93816666D01*
X121914285Y-93792857D01*
X121961904Y-93769047D01*
X122383333Y-77578571D02*
X122407142Y-77602380D01*
X122478571Y-77626190D01*
X122526190Y-77626190D01*
X122597619Y-77602380D01*
X122645238Y-77554761D01*
X122669047Y-77507142D01*
X122692857Y-77411904D01*
X122692857Y-77340476D01*
X122669047Y-77245238D01*
X122645238Y-77197619D01*
X122597619Y-77150000D01*
X122526190Y-77126190D01*
X122478571Y-77126190D01*
X122407142Y-77150000D01*
X122383333Y-77173809D01*
X121907142Y-77626190D02*
X122192857Y-77626190D01*
X122050000Y-77626190D02*
X122050000Y-77126190D01*
X122097619Y-77197619D01*
X122145238Y-77245238D01*
X122192857Y-77269047D01*
X143033333Y-64828571D02*
X143057142Y-64852380D01*
X143128571Y-64876190D01*
X143176190Y-64876190D01*
X143247619Y-64852380D01*
X143295238Y-64804761D01*
X143319047Y-64757142D01*
X143342857Y-64661904D01*
X143342857Y-64590476D01*
X143319047Y-64495238D01*
X143295238Y-64447619D01*
X143247619Y-64400000D01*
X143176190Y-64376190D01*
X143128571Y-64376190D01*
X143057142Y-64400000D01*
X143033333Y-64423809D01*
X142842857Y-64423809D02*
X142819047Y-64400000D01*
X142771428Y-64376190D01*
X142652380Y-64376190D01*
X142604761Y-64400000D01*
X142580952Y-64423809D01*
X142557142Y-64471428D01*
X142557142Y-64519047D01*
X142580952Y-64590476D01*
X142866666Y-64876190D01*
X142557142Y-64876190D01*
X149433333Y-58328571D02*
X149457142Y-58352380D01*
X149528571Y-58376190D01*
X149576190Y-58376190D01*
X149647619Y-58352380D01*
X149695238Y-58304761D01*
X149719047Y-58257142D01*
X149742857Y-58161904D01*
X149742857Y-58090476D01*
X149719047Y-57995238D01*
X149695238Y-57947619D01*
X149647619Y-57900000D01*
X149576190Y-57876190D01*
X149528571Y-57876190D01*
X149457142Y-57900000D01*
X149433333Y-57923809D01*
X149266666Y-57876190D02*
X148957142Y-57876190D01*
X149123809Y-58066666D01*
X149052380Y-58066666D01*
X149004761Y-58090476D01*
X148980952Y-58114285D01*
X148957142Y-58161904D01*
X148957142Y-58280952D01*
X148980952Y-58328571D01*
X149004761Y-58352380D01*
X149052380Y-58376190D01*
X149195238Y-58376190D01*
X149242857Y-58352380D01*
X149266666Y-58328571D01*
X151633333Y-57228571D02*
X151657142Y-57252380D01*
X151728571Y-57276190D01*
X151776190Y-57276190D01*
X151847619Y-57252380D01*
X151895238Y-57204761D01*
X151919047Y-57157142D01*
X151942857Y-57061904D01*
X151942857Y-56990476D01*
X151919047Y-56895238D01*
X151895238Y-56847619D01*
X151847619Y-56800000D01*
X151776190Y-56776190D01*
X151728571Y-56776190D01*
X151657142Y-56800000D01*
X151633333Y-56823809D01*
X151204761Y-56942857D02*
X151204761Y-57276190D01*
X151323809Y-56752380D02*
X151442857Y-57109523D01*
X151133333Y-57109523D01*
X150533333Y-65428571D02*
X150557142Y-65452380D01*
X150628571Y-65476190D01*
X150676190Y-65476190D01*
X150747619Y-65452380D01*
X150795238Y-65404761D01*
X150819047Y-65357142D01*
X150842857Y-65261904D01*
X150842857Y-65190476D01*
X150819047Y-65095238D01*
X150795238Y-65047619D01*
X150747619Y-65000000D01*
X150676190Y-64976190D01*
X150628571Y-64976190D01*
X150557142Y-65000000D01*
X150533333Y-65023809D01*
X150080952Y-64976190D02*
X150319047Y-64976190D01*
X150342857Y-65214285D01*
X150319047Y-65190476D01*
X150271428Y-65166666D01*
X150152380Y-65166666D01*
X150104761Y-65190476D01*
X150080952Y-65214285D01*
X150057142Y-65261904D01*
X150057142Y-65380952D01*
X150080952Y-65428571D01*
X150104761Y-65452380D01*
X150152380Y-65476190D01*
X150271428Y-65476190D01*
X150319047Y-65452380D01*
X150342857Y-65428571D01*
X126533333Y-87578571D02*
X126557142Y-87602380D01*
X126628571Y-87626190D01*
X126676190Y-87626190D01*
X126747619Y-87602380D01*
X126795238Y-87554761D01*
X126819047Y-87507142D01*
X126842857Y-87411904D01*
X126842857Y-87340476D01*
X126819047Y-87245238D01*
X126795238Y-87197619D01*
X126747619Y-87150000D01*
X126676190Y-87126190D01*
X126628571Y-87126190D01*
X126557142Y-87150000D01*
X126533333Y-87173809D01*
X126104761Y-87126190D02*
X126200000Y-87126190D01*
X126247619Y-87150000D01*
X126271428Y-87173809D01*
X126319047Y-87245238D01*
X126342857Y-87340476D01*
X126342857Y-87530952D01*
X126319047Y-87578571D01*
X126295238Y-87602380D01*
X126247619Y-87626190D01*
X126152380Y-87626190D01*
X126104761Y-87602380D01*
X126080952Y-87578571D01*
X126057142Y-87530952D01*
X126057142Y-87411904D01*
X126080952Y-87364285D01*
X126104761Y-87340476D01*
X126152380Y-87316666D01*
X126247619Y-87316666D01*
X126295238Y-87340476D01*
X126319047Y-87364285D01*
X126342857Y-87411904D01*
X107646428Y-88703571D02*
X107670238Y-88727380D01*
X107741666Y-88751190D01*
X107789285Y-88751190D01*
X107860714Y-88727380D01*
X107908333Y-88679761D01*
X107932142Y-88632142D01*
X107955952Y-88536904D01*
X107955952Y-88465476D01*
X107932142Y-88370238D01*
X107908333Y-88322619D01*
X107860714Y-88275000D01*
X107789285Y-88251190D01*
X107741666Y-88251190D01*
X107670238Y-88275000D01*
X107646428Y-88298809D01*
X107170238Y-88751190D02*
X107455952Y-88751190D01*
X107313095Y-88751190D02*
X107313095Y-88251190D01*
X107360714Y-88322619D01*
X107408333Y-88370238D01*
X107455952Y-88394047D01*
X106741666Y-88251190D02*
X106836904Y-88251190D01*
X106884523Y-88275000D01*
X106908333Y-88298809D01*
X106955952Y-88370238D01*
X106979761Y-88465476D01*
X106979761Y-88655952D01*
X106955952Y-88703571D01*
X106932142Y-88727380D01*
X106884523Y-88751190D01*
X106789285Y-88751190D01*
X106741666Y-88727380D01*
X106717857Y-88703571D01*
X106694047Y-88655952D01*
X106694047Y-88536904D01*
X106717857Y-88489285D01*
X106741666Y-88465476D01*
X106789285Y-88441666D01*
X106884523Y-88441666D01*
X106932142Y-88465476D01*
X106955952Y-88489285D01*
X106979761Y-88536904D01*
X102003571Y-84953571D02*
X102027380Y-84929761D01*
X102051190Y-84858333D01*
X102051190Y-84810714D01*
X102027380Y-84739285D01*
X101979761Y-84691666D01*
X101932142Y-84667857D01*
X101836904Y-84644047D01*
X101765476Y-84644047D01*
X101670238Y-84667857D01*
X101622619Y-84691666D01*
X101575000Y-84739285D01*
X101551190Y-84810714D01*
X101551190Y-84858333D01*
X101575000Y-84929761D01*
X101598809Y-84953571D01*
X102051190Y-85429761D02*
X102051190Y-85144047D01*
X102051190Y-85286904D02*
X101551190Y-85286904D01*
X101622619Y-85239285D01*
X101670238Y-85191666D01*
X101694047Y-85144047D01*
X101765476Y-85715476D02*
X101741666Y-85667857D01*
X101717857Y-85644047D01*
X101670238Y-85620238D01*
X101646428Y-85620238D01*
X101598809Y-85644047D01*
X101575000Y-85667857D01*
X101551190Y-85715476D01*
X101551190Y-85810714D01*
X101575000Y-85858333D01*
X101598809Y-85882142D01*
X101646428Y-85905952D01*
X101670238Y-85905952D01*
X101717857Y-85882142D01*
X101741666Y-85858333D01*
X101765476Y-85810714D01*
X101765476Y-85715476D01*
X101789285Y-85667857D01*
X101813095Y-85644047D01*
X101860714Y-85620238D01*
X101955952Y-85620238D01*
X102003571Y-85644047D01*
X102027380Y-85667857D01*
X102051190Y-85715476D01*
X102051190Y-85810714D01*
X102027380Y-85858333D01*
X102003571Y-85882142D01*
X101955952Y-85905952D01*
X101860714Y-85905952D01*
X101813095Y-85882142D01*
X101789285Y-85858333D01*
X101765476Y-85810714D01*
X104146428Y-72683571D02*
X104170238Y-72707380D01*
X104241666Y-72731190D01*
X104289285Y-72731190D01*
X104360714Y-72707380D01*
X104408333Y-72659761D01*
X104432142Y-72612142D01*
X104455952Y-72516904D01*
X104455952Y-72445476D01*
X104432142Y-72350238D01*
X104408333Y-72302619D01*
X104360714Y-72255000D01*
X104289285Y-72231190D01*
X104241666Y-72231190D01*
X104170238Y-72255000D01*
X104146428Y-72278809D01*
X103955952Y-72278809D02*
X103932142Y-72255000D01*
X103884523Y-72231190D01*
X103765476Y-72231190D01*
X103717857Y-72255000D01*
X103694047Y-72278809D01*
X103670238Y-72326428D01*
X103670238Y-72374047D01*
X103694047Y-72445476D01*
X103979761Y-72731190D01*
X103670238Y-72731190D01*
X103360714Y-72231190D02*
X103313095Y-72231190D01*
X103265476Y-72255000D01*
X103241666Y-72278809D01*
X103217857Y-72326428D01*
X103194047Y-72421666D01*
X103194047Y-72540714D01*
X103217857Y-72635952D01*
X103241666Y-72683571D01*
X103265476Y-72707380D01*
X103313095Y-72731190D01*
X103360714Y-72731190D01*
X103408333Y-72707380D01*
X103432142Y-72683571D01*
X103455952Y-72635952D01*
X103479761Y-72540714D01*
X103479761Y-72421666D01*
X103455952Y-72326428D01*
X103432142Y-72278809D01*
X103408333Y-72255000D01*
X103360714Y-72231190D01*
X105753571Y-74953571D02*
X105777380Y-74929761D01*
X105801190Y-74858333D01*
X105801190Y-74810714D01*
X105777380Y-74739285D01*
X105729761Y-74691666D01*
X105682142Y-74667857D01*
X105586904Y-74644047D01*
X105515476Y-74644047D01*
X105420238Y-74667857D01*
X105372619Y-74691666D01*
X105325000Y-74739285D01*
X105301190Y-74810714D01*
X105301190Y-74858333D01*
X105325000Y-74929761D01*
X105348809Y-74953571D01*
X105348809Y-75144047D02*
X105325000Y-75167857D01*
X105301190Y-75215476D01*
X105301190Y-75334523D01*
X105325000Y-75382142D01*
X105348809Y-75405952D01*
X105396428Y-75429761D01*
X105444047Y-75429761D01*
X105515476Y-75405952D01*
X105801190Y-75120238D01*
X105801190Y-75429761D01*
X105348809Y-75620238D02*
X105325000Y-75644047D01*
X105301190Y-75691666D01*
X105301190Y-75810714D01*
X105325000Y-75858333D01*
X105348809Y-75882142D01*
X105396428Y-75905952D01*
X105444047Y-75905952D01*
X105515476Y-75882142D01*
X105801190Y-75596428D01*
X105801190Y-75905952D01*
X109503571Y-80203571D02*
X109527380Y-80179761D01*
X109551190Y-80108333D01*
X109551190Y-80060714D01*
X109527380Y-79989285D01*
X109479761Y-79941666D01*
X109432142Y-79917857D01*
X109336904Y-79894047D01*
X109265476Y-79894047D01*
X109170238Y-79917857D01*
X109122619Y-79941666D01*
X109075000Y-79989285D01*
X109051190Y-80060714D01*
X109051190Y-80108333D01*
X109075000Y-80179761D01*
X109098809Y-80203571D01*
X109098809Y-80394047D02*
X109075000Y-80417857D01*
X109051190Y-80465476D01*
X109051190Y-80584523D01*
X109075000Y-80632142D01*
X109098809Y-80655952D01*
X109146428Y-80679761D01*
X109194047Y-80679761D01*
X109265476Y-80655952D01*
X109551190Y-80370238D01*
X109551190Y-80679761D01*
X109217857Y-81108333D02*
X109551190Y-81108333D01*
X109027380Y-80989285D02*
X109384523Y-80870238D01*
X109384523Y-81179761D01*
X111521428Y-74578571D02*
X111545238Y-74602380D01*
X111616666Y-74626190D01*
X111664285Y-74626190D01*
X111735714Y-74602380D01*
X111783333Y-74554761D01*
X111807142Y-74507142D01*
X111830952Y-74411904D01*
X111830952Y-74340476D01*
X111807142Y-74245238D01*
X111783333Y-74197619D01*
X111735714Y-74150000D01*
X111664285Y-74126190D01*
X111616666Y-74126190D01*
X111545238Y-74150000D01*
X111521428Y-74173809D01*
X111330952Y-74173809D02*
X111307142Y-74150000D01*
X111259523Y-74126190D01*
X111140476Y-74126190D01*
X111092857Y-74150000D01*
X111069047Y-74173809D01*
X111045238Y-74221428D01*
X111045238Y-74269047D01*
X111069047Y-74340476D01*
X111354761Y-74626190D01*
X111045238Y-74626190D01*
X110616666Y-74126190D02*
X110711904Y-74126190D01*
X110759523Y-74150000D01*
X110783333Y-74173809D01*
X110830952Y-74245238D01*
X110854761Y-74340476D01*
X110854761Y-74530952D01*
X110830952Y-74578571D01*
X110807142Y-74602380D01*
X110759523Y-74626190D01*
X110664285Y-74626190D01*
X110616666Y-74602380D01*
X110592857Y-74578571D01*
X110569047Y-74530952D01*
X110569047Y-74411904D01*
X110592857Y-74364285D01*
X110616666Y-74340476D01*
X110664285Y-74316666D01*
X110759523Y-74316666D01*
X110807142Y-74340476D01*
X110830952Y-74364285D01*
X110854761Y-74411904D01*
X121126190Y-69530952D02*
X120626190Y-69530952D01*
X120626190Y-69650000D01*
X120650000Y-69721428D01*
X120697619Y-69769047D01*
X120745238Y-69792857D01*
X120840476Y-69816666D01*
X120911904Y-69816666D01*
X121007142Y-69792857D01*
X121054761Y-69769047D01*
X121102380Y-69721428D01*
X121126190Y-69650000D01*
X121126190Y-69530952D01*
X121126190Y-70292857D02*
X121126190Y-70007142D01*
X121126190Y-70150000D02*
X120626190Y-70150000D01*
X120697619Y-70102380D01*
X120745238Y-70054761D01*
X120769047Y-70007142D01*
X127926190Y-94780952D02*
X127426190Y-94780952D01*
X127426190Y-94900000D01*
X127450000Y-94971428D01*
X127497619Y-95019047D01*
X127545238Y-95042857D01*
X127640476Y-95066666D01*
X127711904Y-95066666D01*
X127807142Y-95042857D01*
X127854761Y-95019047D01*
X127902380Y-94971428D01*
X127926190Y-94900000D01*
X127926190Y-94780952D01*
X127426190Y-95233333D02*
X127426190Y-95542857D01*
X127616666Y-95376190D01*
X127616666Y-95447619D01*
X127640476Y-95495238D01*
X127664285Y-95519047D01*
X127711904Y-95542857D01*
X127830952Y-95542857D01*
X127878571Y-95519047D01*
X127902380Y-95495238D01*
X127926190Y-95447619D01*
X127926190Y-95304761D01*
X127902380Y-95257142D01*
X127878571Y-95233333D01*
X112692047Y-87281190D02*
X112692047Y-86781190D01*
X112573000Y-86781190D01*
X112501571Y-86805000D01*
X112453952Y-86852619D01*
X112430142Y-86900238D01*
X112406333Y-86995476D01*
X112406333Y-87066904D01*
X112430142Y-87162142D01*
X112453952Y-87209761D01*
X112501571Y-87257380D01*
X112573000Y-87281190D01*
X112692047Y-87281190D01*
X111977761Y-86947857D02*
X111977761Y-87281190D01*
X112096809Y-86757380D02*
X112215857Y-87114523D01*
X111906333Y-87114523D01*
D15*
X78492380Y-58166666D02*
X79206666Y-58166666D01*
X79349523Y-58119047D01*
X79444761Y-58023809D01*
X79492380Y-57880952D01*
X79492380Y-57785714D01*
X78492380Y-58547619D02*
X78492380Y-59214285D01*
X79492380Y-58785714D01*
D11*
X110533333Y-76876190D02*
X110771428Y-76876190D01*
X110771428Y-76376190D01*
X110390476Y-76423809D02*
X110366666Y-76400000D01*
X110319047Y-76376190D01*
X110200000Y-76376190D01*
X110152380Y-76400000D01*
X110128571Y-76423809D01*
X110104761Y-76471428D01*
X110104761Y-76519047D01*
X110128571Y-76590476D01*
X110414285Y-76876190D01*
X110104761Y-76876190D01*
D16*
X113900000Y-80235714D02*
X113714285Y-80235714D01*
X113814285Y-80350000D01*
X113771428Y-80350000D01*
X113742857Y-80364285D01*
X113728571Y-80378571D01*
X113714285Y-80407142D01*
X113714285Y-80478571D01*
X113728571Y-80507142D01*
X113742857Y-80521428D01*
X113771428Y-80535714D01*
X113857142Y-80535714D01*
X113885714Y-80521428D01*
X113900000Y-80507142D01*
X113585714Y-80507142D02*
X113571428Y-80521428D01*
X113585714Y-80535714D01*
X113600000Y-80521428D01*
X113585714Y-80507142D01*
X113585714Y-80535714D01*
X113471428Y-80235714D02*
X113285714Y-80235714D01*
X113385714Y-80350000D01*
X113342857Y-80350000D01*
X113314285Y-80364285D01*
X113300000Y-80378571D01*
X113285714Y-80407142D01*
X113285714Y-80478571D01*
X113300000Y-80507142D01*
X113314285Y-80521428D01*
X113342857Y-80535714D01*
X113428571Y-80535714D01*
X113457142Y-80521428D01*
X113471428Y-80507142D01*
X113028571Y-80335714D02*
X113028571Y-80535714D01*
X113157142Y-80335714D02*
X113157142Y-80492857D01*
X113142857Y-80521428D01*
X113114285Y-80535714D01*
X113071428Y-80535714D01*
X113042857Y-80521428D01*
X113028571Y-80507142D01*
D11*
X125126190Y-65616666D02*
X124888095Y-65450000D01*
X125126190Y-65330952D02*
X124626190Y-65330952D01*
X124626190Y-65521428D01*
X124650000Y-65569047D01*
X124673809Y-65592857D01*
X124721428Y-65616666D01*
X124792857Y-65616666D01*
X124840476Y-65592857D01*
X124864285Y-65569047D01*
X124888095Y-65521428D01*
X124888095Y-65330952D01*
X124673809Y-65807142D02*
X124650000Y-65830952D01*
X124626190Y-65878571D01*
X124626190Y-65997619D01*
X124650000Y-66045238D01*
X124673809Y-66069047D01*
X124721428Y-66092857D01*
X124769047Y-66092857D01*
X124840476Y-66069047D01*
X125126190Y-65783333D01*
X125126190Y-66092857D01*
X126526190Y-65716666D02*
X126288095Y-65550000D01*
X126526190Y-65430952D02*
X126026190Y-65430952D01*
X126026190Y-65621428D01*
X126050000Y-65669047D01*
X126073809Y-65692857D01*
X126121428Y-65716666D01*
X126192857Y-65716666D01*
X126240476Y-65692857D01*
X126264285Y-65669047D01*
X126288095Y-65621428D01*
X126288095Y-65430952D01*
X126026190Y-65883333D02*
X126026190Y-66192857D01*
X126216666Y-66026190D01*
X126216666Y-66097619D01*
X126240476Y-66145238D01*
X126264285Y-66169047D01*
X126311904Y-66192857D01*
X126430952Y-66192857D01*
X126478571Y-66169047D01*
X126502380Y-66145238D01*
X126526190Y-66097619D01*
X126526190Y-65954761D01*
X126502380Y-65907142D01*
X126478571Y-65883333D01*
X126583333Y-77726190D02*
X126750000Y-77488095D01*
X126869047Y-77726190D02*
X126869047Y-77226190D01*
X126678571Y-77226190D01*
X126630952Y-77250000D01*
X126607142Y-77273809D01*
X126583333Y-77321428D01*
X126583333Y-77392857D01*
X126607142Y-77440476D01*
X126630952Y-77464285D01*
X126678571Y-77488095D01*
X126869047Y-77488095D01*
X126154761Y-77392857D02*
X126154761Y-77726190D01*
X126273809Y-77202380D02*
X126392857Y-77559523D01*
X126083333Y-77559523D01*
X139633333Y-63526190D02*
X139800000Y-63288095D01*
X139919047Y-63526190D02*
X139919047Y-63026190D01*
X139728571Y-63026190D01*
X139680952Y-63050000D01*
X139657142Y-63073809D01*
X139633333Y-63121428D01*
X139633333Y-63192857D01*
X139657142Y-63240476D01*
X139680952Y-63264285D01*
X139728571Y-63288095D01*
X139919047Y-63288095D01*
X139204761Y-63026190D02*
X139300000Y-63026190D01*
X139347619Y-63050000D01*
X139371428Y-63073809D01*
X139419047Y-63145238D01*
X139442857Y-63240476D01*
X139442857Y-63430952D01*
X139419047Y-63478571D01*
X139395238Y-63502380D01*
X139347619Y-63526190D01*
X139252380Y-63526190D01*
X139204761Y-63502380D01*
X139180952Y-63478571D01*
X139157142Y-63430952D01*
X139157142Y-63311904D01*
X139180952Y-63264285D01*
X139204761Y-63240476D01*
X139252380Y-63216666D01*
X139347619Y-63216666D01*
X139395238Y-63240476D01*
X139419047Y-63264285D01*
X139442857Y-63311904D01*
X155133333Y-58976190D02*
X155300000Y-58738095D01*
X155419047Y-58976190D02*
X155419047Y-58476190D01*
X155228571Y-58476190D01*
X155180952Y-58500000D01*
X155157142Y-58523809D01*
X155133333Y-58571428D01*
X155133333Y-58642857D01*
X155157142Y-58690476D01*
X155180952Y-58714285D01*
X155228571Y-58738095D01*
X155419047Y-58738095D01*
X154966666Y-58476190D02*
X154633333Y-58476190D01*
X154847619Y-58976190D01*
X155133333Y-64926190D02*
X155300000Y-64688095D01*
X155419047Y-64926190D02*
X155419047Y-64426190D01*
X155228571Y-64426190D01*
X155180952Y-64450000D01*
X155157142Y-64473809D01*
X155133333Y-64521428D01*
X155133333Y-64592857D01*
X155157142Y-64640476D01*
X155180952Y-64664285D01*
X155228571Y-64688095D01*
X155419047Y-64688095D01*
X154847619Y-64640476D02*
X154895238Y-64616666D01*
X154919047Y-64592857D01*
X154942857Y-64545238D01*
X154942857Y-64521428D01*
X154919047Y-64473809D01*
X154895238Y-64450000D01*
X154847619Y-64426190D01*
X154752380Y-64426190D01*
X154704761Y-64450000D01*
X154680952Y-64473809D01*
X154657142Y-64521428D01*
X154657142Y-64545238D01*
X154680952Y-64592857D01*
X154704761Y-64616666D01*
X154752380Y-64640476D01*
X154847619Y-64640476D01*
X154895238Y-64664285D01*
X154919047Y-64688095D01*
X154942857Y-64735714D01*
X154942857Y-64830952D01*
X154919047Y-64878571D01*
X154895238Y-64902380D01*
X154847619Y-64926190D01*
X154752380Y-64926190D01*
X154704761Y-64902380D01*
X154680952Y-64878571D01*
X154657142Y-64830952D01*
X154657142Y-64735714D01*
X154680952Y-64688095D01*
X154704761Y-64664285D01*
X154752380Y-64640476D01*
X147233333Y-55876190D02*
X147400000Y-55638095D01*
X147519047Y-55876190D02*
X147519047Y-55376190D01*
X147328571Y-55376190D01*
X147280952Y-55400000D01*
X147257142Y-55423809D01*
X147233333Y-55471428D01*
X147233333Y-55542857D01*
X147257142Y-55590476D01*
X147280952Y-55614285D01*
X147328571Y-55638095D01*
X147519047Y-55638095D01*
X146995238Y-55876190D02*
X146900000Y-55876190D01*
X146852380Y-55852380D01*
X146828571Y-55828571D01*
X146780952Y-55757142D01*
X146757142Y-55661904D01*
X146757142Y-55471428D01*
X146780952Y-55423809D01*
X146804761Y-55400000D01*
X146852380Y-55376190D01*
X146947619Y-55376190D01*
X146995238Y-55400000D01*
X147019047Y-55423809D01*
X147042857Y-55471428D01*
X147042857Y-55590476D01*
X147019047Y-55638095D01*
X146995238Y-55661904D01*
X146947619Y-55685714D01*
X146852380Y-55685714D01*
X146804761Y-55661904D01*
X146780952Y-55638095D01*
X146757142Y-55590476D01*
X121226190Y-72078571D02*
X120988095Y-71911904D01*
X121226190Y-71792857D02*
X120726190Y-71792857D01*
X120726190Y-71983333D01*
X120750000Y-72030952D01*
X120773809Y-72054761D01*
X120821428Y-72078571D01*
X120892857Y-72078571D01*
X120940476Y-72054761D01*
X120964285Y-72030952D01*
X120988095Y-71983333D01*
X120988095Y-71792857D01*
X121226190Y-72554761D02*
X121226190Y-72269047D01*
X121226190Y-72411904D02*
X120726190Y-72411904D01*
X120797619Y-72364285D01*
X120845238Y-72316666D01*
X120869047Y-72269047D01*
X121226190Y-73030952D02*
X121226190Y-72745238D01*
X121226190Y-72888095D02*
X120726190Y-72888095D01*
X120797619Y-72840476D01*
X120845238Y-72792857D01*
X120869047Y-72745238D01*
X142776190Y-58928571D02*
X142538095Y-58761904D01*
X142776190Y-58642857D02*
X142276190Y-58642857D01*
X142276190Y-58833333D01*
X142300000Y-58880952D01*
X142323809Y-58904761D01*
X142371428Y-58928571D01*
X142442857Y-58928571D01*
X142490476Y-58904761D01*
X142514285Y-58880952D01*
X142538095Y-58833333D01*
X142538095Y-58642857D01*
X142776190Y-59404761D02*
X142776190Y-59119047D01*
X142776190Y-59261904D02*
X142276190Y-59261904D01*
X142347619Y-59214285D01*
X142395238Y-59166666D01*
X142419047Y-59119047D01*
X142442857Y-59833333D02*
X142776190Y-59833333D01*
X142252380Y-59714285D02*
X142609523Y-59595238D01*
X142609523Y-59904761D01*
X142076190Y-55828571D02*
X141838095Y-55661904D01*
X142076190Y-55542857D02*
X141576190Y-55542857D01*
X141576190Y-55733333D01*
X141600000Y-55780952D01*
X141623809Y-55804761D01*
X141671428Y-55828571D01*
X141742857Y-55828571D01*
X141790476Y-55804761D01*
X141814285Y-55780952D01*
X141838095Y-55733333D01*
X141838095Y-55542857D01*
X142076190Y-56304761D02*
X142076190Y-56019047D01*
X142076190Y-56161904D02*
X141576190Y-56161904D01*
X141647619Y-56114285D01*
X141695238Y-56066666D01*
X141719047Y-56019047D01*
X141576190Y-56757142D02*
X141576190Y-56519047D01*
X141814285Y-56495238D01*
X141790476Y-56519047D01*
X141766666Y-56566666D01*
X141766666Y-56685714D01*
X141790476Y-56733333D01*
X141814285Y-56757142D01*
X141861904Y-56780952D01*
X141980952Y-56780952D01*
X142028571Y-56757142D01*
X142052380Y-56733333D01*
X142076190Y-56685714D01*
X142076190Y-56566666D01*
X142052380Y-56519047D01*
X142028571Y-56495238D01*
X123926190Y-99828571D02*
X123688095Y-99661904D01*
X123926190Y-99542857D02*
X123426190Y-99542857D01*
X123426190Y-99733333D01*
X123450000Y-99780952D01*
X123473809Y-99804761D01*
X123521428Y-99828571D01*
X123592857Y-99828571D01*
X123640476Y-99804761D01*
X123664285Y-99780952D01*
X123688095Y-99733333D01*
X123688095Y-99542857D01*
X123926190Y-100304761D02*
X123926190Y-100019047D01*
X123926190Y-100161904D02*
X123426190Y-100161904D01*
X123497619Y-100114285D01*
X123545238Y-100066666D01*
X123569047Y-100019047D01*
X123426190Y-100471428D02*
X123426190Y-100804761D01*
X123926190Y-100590476D01*
X122676190Y-99828571D02*
X122438095Y-99661904D01*
X122676190Y-99542857D02*
X122176190Y-99542857D01*
X122176190Y-99733333D01*
X122200000Y-99780952D01*
X122223809Y-99804761D01*
X122271428Y-99828571D01*
X122342857Y-99828571D01*
X122390476Y-99804761D01*
X122414285Y-99780952D01*
X122438095Y-99733333D01*
X122438095Y-99542857D01*
X122676190Y-100304761D02*
X122676190Y-100019047D01*
X122676190Y-100161904D02*
X122176190Y-100161904D01*
X122247619Y-100114285D01*
X122295238Y-100066666D01*
X122319047Y-100019047D01*
X122390476Y-100590476D02*
X122366666Y-100542857D01*
X122342857Y-100519047D01*
X122295238Y-100495238D01*
X122271428Y-100495238D01*
X122223809Y-100519047D01*
X122200000Y-100542857D01*
X122176190Y-100590476D01*
X122176190Y-100685714D01*
X122200000Y-100733333D01*
X122223809Y-100757142D01*
X122271428Y-100780952D01*
X122295238Y-100780952D01*
X122342857Y-100757142D01*
X122366666Y-100733333D01*
X122390476Y-100685714D01*
X122390476Y-100590476D01*
X122414285Y-100542857D01*
X122438095Y-100519047D01*
X122485714Y-100495238D01*
X122580952Y-100495238D01*
X122628571Y-100519047D01*
X122652380Y-100542857D01*
X122676190Y-100590476D01*
X122676190Y-100685714D01*
X122652380Y-100733333D01*
X122628571Y-100757142D01*
X122580952Y-100780952D01*
X122485714Y-100780952D01*
X122438095Y-100757142D01*
X122414285Y-100733333D01*
X122390476Y-100685714D01*
X122271428Y-87476190D02*
X122438095Y-87238095D01*
X122557142Y-87476190D02*
X122557142Y-86976190D01*
X122366666Y-86976190D01*
X122319047Y-87000000D01*
X122295238Y-87023809D01*
X122271428Y-87071428D01*
X122271428Y-87142857D01*
X122295238Y-87190476D01*
X122319047Y-87214285D01*
X122366666Y-87238095D01*
X122557142Y-87238095D01*
X121795238Y-87476190D02*
X122080952Y-87476190D01*
X121938095Y-87476190D02*
X121938095Y-86976190D01*
X121985714Y-87047619D01*
X122033333Y-87095238D01*
X122080952Y-87119047D01*
X121557142Y-87476190D02*
X121461904Y-87476190D01*
X121414285Y-87452380D01*
X121390476Y-87428571D01*
X121342857Y-87357142D01*
X121319047Y-87261904D01*
X121319047Y-87071428D01*
X121342857Y-87023809D01*
X121366666Y-87000000D01*
X121414285Y-86976190D01*
X121509523Y-86976190D01*
X121557142Y-87000000D01*
X121580952Y-87023809D01*
X121604761Y-87071428D01*
X121604761Y-87190476D01*
X121580952Y-87238095D01*
X121557142Y-87261904D01*
X121509523Y-87285714D01*
X121414285Y-87285714D01*
X121366666Y-87261904D01*
X121342857Y-87238095D01*
X121319047Y-87190476D01*
X128026190Y-92328571D02*
X127788095Y-92161904D01*
X128026190Y-92042857D02*
X127526190Y-92042857D01*
X127526190Y-92233333D01*
X127550000Y-92280952D01*
X127573809Y-92304761D01*
X127621428Y-92328571D01*
X127692857Y-92328571D01*
X127740476Y-92304761D01*
X127764285Y-92280952D01*
X127788095Y-92233333D01*
X127788095Y-92042857D01*
X127573809Y-92519047D02*
X127550000Y-92542857D01*
X127526190Y-92590476D01*
X127526190Y-92709523D01*
X127550000Y-92757142D01*
X127573809Y-92780952D01*
X127621428Y-92804761D01*
X127669047Y-92804761D01*
X127740476Y-92780952D01*
X128026190Y-92495238D01*
X128026190Y-92804761D01*
X127526190Y-92971428D02*
X127526190Y-93280952D01*
X127716666Y-93114285D01*
X127716666Y-93185714D01*
X127740476Y-93233333D01*
X127764285Y-93257142D01*
X127811904Y-93280952D01*
X127930952Y-93280952D01*
X127978571Y-93257142D01*
X128002380Y-93233333D01*
X128026190Y-93185714D01*
X128026190Y-93042857D01*
X128002380Y-92995238D01*
X127978571Y-92971428D01*
X102201190Y-74953571D02*
X101963095Y-74786904D01*
X102201190Y-74667857D02*
X101701190Y-74667857D01*
X101701190Y-74858333D01*
X101725000Y-74905952D01*
X101748809Y-74929761D01*
X101796428Y-74953571D01*
X101867857Y-74953571D01*
X101915476Y-74929761D01*
X101939285Y-74905952D01*
X101963095Y-74858333D01*
X101963095Y-74667857D01*
X101748809Y-75144047D02*
X101725000Y-75167857D01*
X101701190Y-75215476D01*
X101701190Y-75334523D01*
X101725000Y-75382142D01*
X101748809Y-75405952D01*
X101796428Y-75429761D01*
X101844047Y-75429761D01*
X101915476Y-75405952D01*
X102201190Y-75120238D01*
X102201190Y-75429761D01*
X101701190Y-75858333D02*
X101701190Y-75763095D01*
X101725000Y-75715476D01*
X101748809Y-75691666D01*
X101820238Y-75644047D01*
X101915476Y-75620238D01*
X102105952Y-75620238D01*
X102153571Y-75644047D01*
X102177380Y-75667857D01*
X102201190Y-75715476D01*
X102201190Y-75810714D01*
X102177380Y-75858333D01*
X102153571Y-75882142D01*
X102105952Y-75905952D01*
X101986904Y-75905952D01*
X101939285Y-75882142D01*
X101915476Y-75858333D01*
X101891666Y-75810714D01*
X101891666Y-75715476D01*
X101915476Y-75667857D01*
X101939285Y-75644047D01*
X101986904Y-75620238D01*
X99551190Y-75453571D02*
X99313095Y-75286904D01*
X99551190Y-75167857D02*
X99051190Y-75167857D01*
X99051190Y-75358333D01*
X99075000Y-75405952D01*
X99098809Y-75429761D01*
X99146428Y-75453571D01*
X99217857Y-75453571D01*
X99265476Y-75429761D01*
X99289285Y-75405952D01*
X99313095Y-75358333D01*
X99313095Y-75167857D01*
X99098809Y-75644047D02*
X99075000Y-75667857D01*
X99051190Y-75715476D01*
X99051190Y-75834523D01*
X99075000Y-75882142D01*
X99098809Y-75905952D01*
X99146428Y-75929761D01*
X99194047Y-75929761D01*
X99265476Y-75905952D01*
X99551190Y-75620238D01*
X99551190Y-75929761D01*
X99265476Y-76215476D02*
X99241666Y-76167857D01*
X99217857Y-76144047D01*
X99170238Y-76120238D01*
X99146428Y-76120238D01*
X99098809Y-76144047D01*
X99075000Y-76167857D01*
X99051190Y-76215476D01*
X99051190Y-76310714D01*
X99075000Y-76358333D01*
X99098809Y-76382142D01*
X99146428Y-76405952D01*
X99170238Y-76405952D01*
X99217857Y-76382142D01*
X99241666Y-76358333D01*
X99265476Y-76310714D01*
X99265476Y-76215476D01*
X99289285Y-76167857D01*
X99313095Y-76144047D01*
X99360714Y-76120238D01*
X99455952Y-76120238D01*
X99503571Y-76144047D01*
X99527380Y-76167857D01*
X99551190Y-76215476D01*
X99551190Y-76310714D01*
X99527380Y-76358333D01*
X99503571Y-76382142D01*
X99455952Y-76405952D01*
X99360714Y-76405952D01*
X99313095Y-76382142D01*
X99289285Y-76358333D01*
X99265476Y-76310714D01*
X99301190Y-78703571D02*
X99063095Y-78536904D01*
X99301190Y-78417857D02*
X98801190Y-78417857D01*
X98801190Y-78608333D01*
X98825000Y-78655952D01*
X98848809Y-78679761D01*
X98896428Y-78703571D01*
X98967857Y-78703571D01*
X99015476Y-78679761D01*
X99039285Y-78655952D01*
X99063095Y-78608333D01*
X99063095Y-78417857D01*
X98848809Y-78894047D02*
X98825000Y-78917857D01*
X98801190Y-78965476D01*
X98801190Y-79084523D01*
X98825000Y-79132142D01*
X98848809Y-79155952D01*
X98896428Y-79179761D01*
X98944047Y-79179761D01*
X99015476Y-79155952D01*
X99301190Y-78870238D01*
X99301190Y-79179761D01*
X99301190Y-79417857D02*
X99301190Y-79513095D01*
X99277380Y-79560714D01*
X99253571Y-79584523D01*
X99182142Y-79632142D01*
X99086904Y-79655952D01*
X98896428Y-79655952D01*
X98848809Y-79632142D01*
X98825000Y-79608333D01*
X98801190Y-79560714D01*
X98801190Y-79465476D01*
X98825000Y-79417857D01*
X98848809Y-79394047D01*
X98896428Y-79370238D01*
X99015476Y-79370238D01*
X99063095Y-79394047D01*
X99086904Y-79417857D01*
X99110714Y-79465476D01*
X99110714Y-79560714D01*
X99086904Y-79608333D01*
X99063095Y-79632142D01*
X99015476Y-79655952D01*
X102826190Y-104878571D02*
X102588095Y-104711904D01*
X102826190Y-104592857D02*
X102326190Y-104592857D01*
X102326190Y-104783333D01*
X102350000Y-104830952D01*
X102373809Y-104854761D01*
X102421428Y-104878571D01*
X102492857Y-104878571D01*
X102540476Y-104854761D01*
X102564285Y-104830952D01*
X102588095Y-104783333D01*
X102588095Y-104592857D01*
X102326190Y-105045238D02*
X102326190Y-105354761D01*
X102516666Y-105188095D01*
X102516666Y-105259523D01*
X102540476Y-105307142D01*
X102564285Y-105330952D01*
X102611904Y-105354761D01*
X102730952Y-105354761D01*
X102778571Y-105330952D01*
X102802380Y-105307142D01*
X102826190Y-105259523D01*
X102826190Y-105116666D01*
X102802380Y-105069047D01*
X102778571Y-105045238D01*
X102492857Y-105783333D02*
X102826190Y-105783333D01*
X102302380Y-105664285D02*
X102659523Y-105545238D01*
X102659523Y-105854761D01*
X104626190Y-104878571D02*
X104388095Y-104711904D01*
X104626190Y-104592857D02*
X104126190Y-104592857D01*
X104126190Y-104783333D01*
X104150000Y-104830952D01*
X104173809Y-104854761D01*
X104221428Y-104878571D01*
X104292857Y-104878571D01*
X104340476Y-104854761D01*
X104364285Y-104830952D01*
X104388095Y-104783333D01*
X104388095Y-104592857D01*
X104126190Y-105045238D02*
X104126190Y-105354761D01*
X104316666Y-105188095D01*
X104316666Y-105259523D01*
X104340476Y-105307142D01*
X104364285Y-105330952D01*
X104411904Y-105354761D01*
X104530952Y-105354761D01*
X104578571Y-105330952D01*
X104602380Y-105307142D01*
X104626190Y-105259523D01*
X104626190Y-105116666D01*
X104602380Y-105069047D01*
X104578571Y-105045238D01*
X104126190Y-105807142D02*
X104126190Y-105569047D01*
X104364285Y-105545238D01*
X104340476Y-105569047D01*
X104316666Y-105616666D01*
X104316666Y-105735714D01*
X104340476Y-105783333D01*
X104364285Y-105807142D01*
X104411904Y-105830952D01*
X104530952Y-105830952D01*
X104578571Y-105807142D01*
X104602380Y-105783333D01*
X104626190Y-105735714D01*
X104626190Y-105616666D01*
X104602380Y-105569047D01*
X104578571Y-105545238D01*
X146530952Y-64176190D02*
X146530952Y-64580952D01*
X146507142Y-64628571D01*
X146483333Y-64652380D01*
X146435714Y-64676190D01*
X146340476Y-64676190D01*
X146292857Y-64652380D01*
X146269047Y-64628571D01*
X146245238Y-64580952D01*
X146245238Y-64176190D01*
X145792857Y-64342857D02*
X145792857Y-64676190D01*
X145911904Y-64152380D02*
X146030952Y-64509523D01*
X145721428Y-64509523D01*
X101801190Y-79905952D02*
X102205952Y-79905952D01*
X102253571Y-79929761D01*
X102277380Y-79953571D01*
X102301190Y-80001190D01*
X102301190Y-80096428D01*
X102277380Y-80144047D01*
X102253571Y-80167857D01*
X102205952Y-80191666D01*
X101801190Y-80191666D01*
X102301190Y-80691666D02*
X102301190Y-80405952D01*
X102301190Y-80548809D02*
X101801190Y-80548809D01*
X101872619Y-80501190D01*
X101920238Y-80453571D01*
X101944047Y-80405952D01*
X101801190Y-81001190D02*
X101801190Y-81048809D01*
X101825000Y-81096428D01*
X101848809Y-81120238D01*
X101896428Y-81144047D01*
X101991666Y-81167857D01*
X102110714Y-81167857D01*
X102205952Y-81144047D01*
X102253571Y-81120238D01*
X102277380Y-81096428D01*
X102301190Y-81048809D01*
X102301190Y-81001190D01*
X102277380Y-80953571D01*
X102253571Y-80929761D01*
X102205952Y-80905952D01*
X102110714Y-80882142D01*
X101991666Y-80882142D01*
X101896428Y-80905952D01*
X101848809Y-80929761D01*
X101825000Y-80953571D01*
X101801190Y-81001190D01*
X79966666Y-102126190D02*
X79966666Y-102483333D01*
X79990476Y-102554761D01*
X80038095Y-102602380D01*
X80109523Y-102626190D01*
X80157142Y-102626190D01*
X79657142Y-102340476D02*
X79704761Y-102316666D01*
X79728571Y-102292857D01*
X79752380Y-102245238D01*
X79752380Y-102221428D01*
X79728571Y-102173809D01*
X79704761Y-102150000D01*
X79657142Y-102126190D01*
X79561904Y-102126190D01*
X79514285Y-102150000D01*
X79490476Y-102173809D01*
X79466666Y-102221428D01*
X79466666Y-102245238D01*
X79490476Y-102292857D01*
X79514285Y-102316666D01*
X79561904Y-102340476D01*
X79657142Y-102340476D01*
X79704761Y-102364285D01*
X79728571Y-102388095D01*
X79752380Y-102435714D01*
X79752380Y-102530952D01*
X79728571Y-102578571D01*
X79704761Y-102602380D01*
X79657142Y-102626190D01*
X79561904Y-102626190D01*
X79514285Y-102602380D01*
X79490476Y-102578571D01*
X79466666Y-102530952D01*
X79466666Y-102435714D01*
X79490476Y-102388095D01*
X79514285Y-102364285D01*
X79561904Y-102340476D01*
X88966666Y-102326190D02*
X88966666Y-102683333D01*
X88990476Y-102754761D01*
X89038095Y-102802380D01*
X89109523Y-102826190D01*
X89157142Y-102826190D01*
X88704761Y-102826190D02*
X88609523Y-102826190D01*
X88561904Y-102802380D01*
X88538095Y-102778571D01*
X88490476Y-102707142D01*
X88466666Y-102611904D01*
X88466666Y-102421428D01*
X88490476Y-102373809D01*
X88514285Y-102350000D01*
X88561904Y-102326190D01*
X88657142Y-102326190D01*
X88704761Y-102350000D01*
X88728571Y-102373809D01*
X88752380Y-102421428D01*
X88752380Y-102540476D01*
X88728571Y-102588095D01*
X88704761Y-102611904D01*
X88657142Y-102635714D01*
X88561904Y-102635714D01*
X88514285Y-102611904D01*
X88490476Y-102588095D01*
X88466666Y-102540476D01*
X89404761Y-106726190D02*
X89404761Y-107083333D01*
X89428571Y-107154761D01*
X89476190Y-107202380D01*
X89547619Y-107226190D01*
X89595238Y-107226190D01*
X88904761Y-107226190D02*
X89190476Y-107226190D01*
X89047619Y-107226190D02*
X89047619Y-106726190D01*
X89095238Y-106797619D01*
X89142857Y-106845238D01*
X89190476Y-106869047D01*
X88595238Y-106726190D02*
X88547619Y-106726190D01*
X88500000Y-106750000D01*
X88476190Y-106773809D01*
X88452380Y-106821428D01*
X88428571Y-106916666D01*
X88428571Y-107035714D01*
X88452380Y-107130952D01*
X88476190Y-107178571D01*
X88500000Y-107202380D01*
X88547619Y-107226190D01*
X88595238Y-107226190D01*
X88642857Y-107202380D01*
X88666666Y-107178571D01*
X88690476Y-107130952D01*
X88714285Y-107035714D01*
X88714285Y-106916666D01*
X88690476Y-106821428D01*
X88666666Y-106773809D01*
X88642857Y-106750000D01*
X88595238Y-106726190D01*
X80204761Y-105526190D02*
X80204761Y-105883333D01*
X80228571Y-105954761D01*
X80276190Y-106002380D01*
X80347619Y-106026190D01*
X80395238Y-106026190D01*
X79704761Y-106026190D02*
X79990476Y-106026190D01*
X79847619Y-106026190D02*
X79847619Y-105526190D01*
X79895238Y-105597619D01*
X79942857Y-105645238D01*
X79990476Y-105669047D01*
X79228571Y-106026190D02*
X79514285Y-106026190D01*
X79371428Y-106026190D02*
X79371428Y-105526190D01*
X79419047Y-105597619D01*
X79466666Y-105645238D01*
X79514285Y-105669047D01*
X90804761Y-102326190D02*
X90804761Y-102683333D01*
X90828571Y-102754761D01*
X90876190Y-102802380D01*
X90947619Y-102826190D01*
X90995238Y-102826190D01*
X90304761Y-102826190D02*
X90590476Y-102826190D01*
X90447619Y-102826190D02*
X90447619Y-102326190D01*
X90495238Y-102397619D01*
X90542857Y-102445238D01*
X90590476Y-102469047D01*
X90114285Y-102373809D02*
X90090476Y-102350000D01*
X90042857Y-102326190D01*
X89923809Y-102326190D01*
X89876190Y-102350000D01*
X89852380Y-102373809D01*
X89828571Y-102421428D01*
X89828571Y-102469047D01*
X89852380Y-102540476D01*
X90138095Y-102826190D01*
X89828571Y-102826190D01*
X100204761Y-102326190D02*
X100204761Y-102683333D01*
X100228571Y-102754761D01*
X100276190Y-102802380D01*
X100347619Y-102826190D01*
X100395238Y-102826190D01*
X99704761Y-102826190D02*
X99990476Y-102826190D01*
X99847619Y-102826190D02*
X99847619Y-102326190D01*
X99895238Y-102397619D01*
X99942857Y-102445238D01*
X99990476Y-102469047D01*
X99538095Y-102326190D02*
X99228571Y-102326190D01*
X99395238Y-102516666D01*
X99323809Y-102516666D01*
X99276190Y-102540476D01*
X99252380Y-102564285D01*
X99228571Y-102611904D01*
X99228571Y-102730952D01*
X99252380Y-102778571D01*
X99276190Y-102802380D01*
X99323809Y-102826190D01*
X99466666Y-102826190D01*
X99514285Y-102802380D01*
X99538095Y-102778571D01*
X100404761Y-106726190D02*
X100404761Y-107083333D01*
X100428571Y-107154761D01*
X100476190Y-107202380D01*
X100547619Y-107226190D01*
X100595238Y-107226190D01*
X99904761Y-107226190D02*
X100190476Y-107226190D01*
X100047619Y-107226190D02*
X100047619Y-106726190D01*
X100095238Y-106797619D01*
X100142857Y-106845238D01*
X100190476Y-106869047D01*
X99476190Y-106892857D02*
X99476190Y-107226190D01*
X99595238Y-106702380D02*
X99714285Y-107059523D01*
X99404761Y-107059523D01*
X91004761Y-106726190D02*
X91004761Y-107083333D01*
X91028571Y-107154761D01*
X91076190Y-107202380D01*
X91147619Y-107226190D01*
X91195238Y-107226190D01*
X90504761Y-107226190D02*
X90790476Y-107226190D01*
X90647619Y-107226190D02*
X90647619Y-106726190D01*
X90695238Y-106797619D01*
X90742857Y-106845238D01*
X90790476Y-106869047D01*
X90052380Y-106726190D02*
X90290476Y-106726190D01*
X90314285Y-106964285D01*
X90290476Y-106940476D01*
X90242857Y-106916666D01*
X90123809Y-106916666D01*
X90076190Y-106940476D01*
X90052380Y-106964285D01*
X90028571Y-107011904D01*
X90028571Y-107130952D01*
X90052380Y-107178571D01*
X90076190Y-107202380D01*
X90123809Y-107226190D01*
X90242857Y-107226190D01*
X90290476Y-107202380D01*
X90314285Y-107178571D01*
M02*
