G04 #@! TF.GenerationSoftware,KiCad,Pcbnew,(2017-02-06 revision 13395d34d)-master*
G04 #@! TF.CreationDate,2017-04-12T16:15:42-03:00*
G04 #@! TF.ProjectId,resin-rover,726573696E2D726F7665722E6B696361,rev?*
G04 #@! TF.FileFunction,Legend,Top*
G04 #@! TF.FilePolarity,Positive*
%FSLAX46Y46*%
G04 Gerber Fmt 4.6, Leading zero omitted, Abs format (unit mm)*
G04 Created by KiCad (PCBNEW (2017-02-06 revision 13395d34d)-master) date Wed Apr 12 16:15:42 2017*
%MOMM*%
%LPD*%
G01*
G04 APERTURE LIST*
%ADD10C,0.100000*%
%ADD11C,0.125000*%
%ADD12C,0.150000*%
%ADD13C,0.152400*%
%ADD14C,0.120000*%
%ADD15C,0.127000*%
%ADD16C,0.010000*%
%ADD17C,0.075000*%
G04 APERTURE END LIST*
D10*
D11*
X116578571Y-94269047D02*
X116602380Y-94292857D01*
X116626190Y-94364285D01*
X116626190Y-94411904D01*
X116602380Y-94483333D01*
X116554761Y-94530952D01*
X116507142Y-94554761D01*
X116411904Y-94578571D01*
X116340476Y-94578571D01*
X116245238Y-94554761D01*
X116197619Y-94530952D01*
X116150000Y-94483333D01*
X116126190Y-94411904D01*
X116126190Y-94364285D01*
X116150000Y-94292857D01*
X116173809Y-94269047D01*
X116626190Y-94054761D02*
X116126190Y-94054761D01*
X116364285Y-94054761D02*
X116364285Y-93769047D01*
X116626190Y-93769047D02*
X116126190Y-93769047D01*
X116150000Y-93269047D02*
X116126190Y-93316666D01*
X116126190Y-93388095D01*
X116150000Y-93459523D01*
X116197619Y-93507142D01*
X116245238Y-93530952D01*
X116340476Y-93554761D01*
X116411904Y-93554761D01*
X116507142Y-93530952D01*
X116554761Y-93507142D01*
X116602380Y-93459523D01*
X116626190Y-93388095D01*
X116626190Y-93340476D01*
X116602380Y-93269047D01*
X116578571Y-93245238D01*
X116411904Y-93245238D01*
X116411904Y-93340476D01*
X116126190Y-92935714D02*
X116126190Y-92840476D01*
X116150000Y-92792857D01*
X116197619Y-92745238D01*
X116292857Y-92721428D01*
X116459523Y-92721428D01*
X116554761Y-92745238D01*
X116602380Y-92792857D01*
X116626190Y-92840476D01*
X116626190Y-92935714D01*
X116602380Y-92983333D01*
X116554761Y-93030952D01*
X116459523Y-93054761D01*
X116292857Y-93054761D01*
X116197619Y-93030952D01*
X116150000Y-92983333D01*
X116126190Y-92935714D01*
X116626190Y-92507142D02*
X116126190Y-92507142D01*
X116626190Y-92221428D02*
X116340476Y-92435714D01*
X116126190Y-92221428D02*
X116411904Y-92507142D01*
X112683333Y-96680952D02*
X112683333Y-96442857D01*
X112826190Y-96728571D02*
X112326190Y-96561904D01*
X112826190Y-96395238D01*
X112778571Y-95942857D02*
X112802380Y-95966666D01*
X112826190Y-96038095D01*
X112826190Y-96085714D01*
X112802380Y-96157142D01*
X112754761Y-96204761D01*
X112707142Y-96228571D01*
X112611904Y-96252380D01*
X112540476Y-96252380D01*
X112445238Y-96228571D01*
X112397619Y-96204761D01*
X112350000Y-96157142D01*
X112326190Y-96085714D01*
X112326190Y-96038095D01*
X112350000Y-95966666D01*
X112373809Y-95942857D01*
X112326190Y-95633333D02*
X112326190Y-95538095D01*
X112350000Y-95490476D01*
X112397619Y-95442857D01*
X112492857Y-95419047D01*
X112659523Y-95419047D01*
X112754761Y-95442857D01*
X112802380Y-95490476D01*
X112826190Y-95538095D01*
X112826190Y-95633333D01*
X112802380Y-95680952D01*
X112754761Y-95728571D01*
X112659523Y-95752380D01*
X112492857Y-95752380D01*
X112397619Y-95728571D01*
X112350000Y-95680952D01*
X112326190Y-95633333D01*
X112826190Y-95204761D02*
X112326190Y-95204761D01*
X112826190Y-94919047D02*
X112540476Y-95133333D01*
X112326190Y-94919047D02*
X112611904Y-95204761D01*
D12*
X76000000Y-55000000D02*
G75*
G03X73000000Y-58000000I0J-3000000D01*
G01*
X158000000Y-58000000D02*
G75*
G03X155000000Y-55000000I-3000000J0D01*
G01*
X155000000Y-55000000D02*
X76000000Y-55000000D01*
D13*
X85799400Y-81049400D02*
X85799400Y-77950600D01*
X82700600Y-77950600D02*
X82700600Y-79195200D01*
X82700600Y-79195200D02*
X82700600Y-79804800D01*
X82700600Y-79804800D02*
X82700600Y-81049400D01*
X82700600Y-79195200D02*
G75*
G02X82700600Y-79804800I0J-304800D01*
G01*
D14*
X118500000Y-91100000D02*
X119500000Y-91100000D01*
X119500000Y-89400000D02*
X118500000Y-89400000D01*
X86100000Y-75350000D02*
X87100000Y-75350000D01*
X87100000Y-73650000D02*
X86100000Y-73650000D01*
X109900000Y-91000000D02*
X109900000Y-92000000D01*
X111600000Y-92000000D02*
X111600000Y-91000000D01*
X102350000Y-87250000D02*
X102350000Y-86250000D01*
X100650000Y-86250000D02*
X100650000Y-87250000D01*
X141900000Y-88500000D02*
X141900000Y-89500000D01*
X143600000Y-89500000D02*
X143600000Y-88500000D01*
X111600000Y-85250000D02*
X111600000Y-84750000D01*
X112400000Y-84750000D02*
X112400000Y-85250000D01*
X121000000Y-86900000D02*
X120500000Y-86900000D01*
X120500000Y-86100000D02*
X121000000Y-86100000D01*
X119000000Y-84650000D02*
X118500000Y-84650000D01*
X118500000Y-83850000D02*
X119000000Y-83850000D01*
X115900000Y-80400000D02*
X116600000Y-80400000D01*
X116600000Y-81600000D02*
X115900000Y-81600000D01*
X113000000Y-78230000D02*
X115000000Y-78230000D01*
X115000000Y-75270000D02*
X113000000Y-75270000D01*
X120350000Y-77250000D02*
X120350000Y-76250000D01*
X118650000Y-76250000D02*
X118650000Y-77250000D01*
X117500000Y-63850000D02*
X118000000Y-63850000D01*
X118000000Y-64650000D02*
X117500000Y-64650000D01*
X116850000Y-66000000D02*
X116850000Y-65500000D01*
X117650000Y-65500000D02*
X117650000Y-66000000D01*
X113030000Y-70750000D02*
X113030000Y-71250000D01*
X113970000Y-71250000D02*
X113970000Y-70750000D01*
X104350000Y-67100000D02*
X103650000Y-67100000D01*
X103650000Y-65900000D02*
X104350000Y-65900000D01*
X114250000Y-94450000D02*
X114250000Y-96550000D01*
X113250000Y-94450000D02*
X113250000Y-96550000D01*
X114250000Y-94450000D02*
X113250000Y-94450000D01*
X110400000Y-78150000D02*
X105000000Y-78150000D01*
X110400000Y-74850000D02*
X105000000Y-74850000D01*
X110400000Y-78150000D02*
X110400000Y-74850000D01*
X110150000Y-97850000D02*
X110150000Y-103250000D01*
X106850000Y-97850000D02*
X106850000Y-103250000D01*
X110150000Y-97850000D02*
X106850000Y-97850000D01*
X115750000Y-91950000D02*
X114750000Y-91950000D01*
X114750000Y-91950000D02*
X114750000Y-94050000D01*
X115750000Y-91950000D02*
X115750000Y-94050000D01*
X106400000Y-90600000D02*
X103100000Y-90600000D01*
X103100000Y-90600000D02*
X103100000Y-96000000D01*
X106400000Y-90600000D02*
X106400000Y-96000000D01*
X110900000Y-99600000D02*
X113500000Y-99600000D01*
X110900000Y-114300000D02*
X110900000Y-99600000D01*
X120100000Y-99600000D02*
X120100000Y-101500000D01*
X117400000Y-99600000D02*
X120100000Y-99600000D01*
X120100000Y-114300000D02*
X110900000Y-114300000D01*
X120100000Y-105500000D02*
X120100000Y-114300000D01*
X97749845Y-78000353D02*
G75*
G03X97750000Y-79500000I1700155J-749647D01*
G01*
X97749845Y-74190353D02*
G75*
G03X97750000Y-75690000I1700155J-749647D01*
G01*
X91170000Y-81430000D02*
X98580000Y-81430000D01*
X98580000Y-81430000D02*
X98580000Y-72260000D01*
X98580000Y-72260000D02*
X91170000Y-72260000D01*
X91170000Y-72260000D02*
X91170000Y-81430000D01*
X97750000Y-79500000D02*
X97750000Y-80250000D01*
X97750000Y-80250000D02*
X93450000Y-80250000D01*
X93450000Y-80250000D02*
X93450000Y-79500000D01*
X93450000Y-79500000D02*
X93100000Y-79500000D01*
X93100000Y-79500000D02*
X93100000Y-80000000D01*
X93100000Y-80000000D02*
X92100000Y-80250000D01*
X92100000Y-80250000D02*
X92100000Y-77250000D01*
X92100000Y-77250000D02*
X93100000Y-77500000D01*
X93100000Y-77500000D02*
X93100000Y-78000000D01*
X93100000Y-78000000D02*
X93450000Y-78000000D01*
X93450000Y-78000000D02*
X93450000Y-77250000D01*
X93450000Y-77250000D02*
X97750000Y-77250000D01*
X97750000Y-77250000D02*
X97750000Y-78000000D01*
X97750000Y-75690000D02*
X97750000Y-76440000D01*
X97750000Y-76440000D02*
X93450000Y-76440000D01*
X93450000Y-76440000D02*
X93450000Y-75690000D01*
X93450000Y-75690000D02*
X93100000Y-75690000D01*
X93100000Y-75690000D02*
X93100000Y-76190000D01*
X93100000Y-76190000D02*
X92100000Y-76440000D01*
X92100000Y-76440000D02*
X92100000Y-73440000D01*
X92100000Y-73440000D02*
X93100000Y-73690000D01*
X93100000Y-73690000D02*
X93100000Y-74190000D01*
X93100000Y-74190000D02*
X93450000Y-74190000D01*
X93450000Y-74190000D02*
X93450000Y-73440000D01*
X93450000Y-73440000D02*
X97750000Y-73440000D01*
X97750000Y-73440000D02*
X97750000Y-74190000D01*
X92000000Y-81850000D02*
X90750000Y-81850000D01*
X90750000Y-81850000D02*
X90750000Y-79850000D01*
X132000155Y-75749647D02*
G75*
G03X132000000Y-74250000I-1700155J749647D01*
G01*
X132000155Y-79559647D02*
G75*
G03X132000000Y-78060000I-1700155J749647D01*
G01*
X138580000Y-72320000D02*
X131170000Y-72320000D01*
X131170000Y-72320000D02*
X131170000Y-81490000D01*
X131170000Y-81490000D02*
X138580000Y-81490000D01*
X138580000Y-81490000D02*
X138580000Y-72320000D01*
X132000000Y-74250000D02*
X132000000Y-73500000D01*
X132000000Y-73500000D02*
X136300000Y-73500000D01*
X136300000Y-73500000D02*
X136300000Y-74250000D01*
X136300000Y-74250000D02*
X136650000Y-74250000D01*
X136650000Y-74250000D02*
X136650000Y-73750000D01*
X136650000Y-73750000D02*
X137650000Y-73500000D01*
X137650000Y-73500000D02*
X137650000Y-76500000D01*
X137650000Y-76500000D02*
X136650000Y-76250000D01*
X136650000Y-76250000D02*
X136650000Y-75750000D01*
X136650000Y-75750000D02*
X136300000Y-75750000D01*
X136300000Y-75750000D02*
X136300000Y-76500000D01*
X136300000Y-76500000D02*
X132000000Y-76500000D01*
X132000000Y-76500000D02*
X132000000Y-75750000D01*
X132000000Y-78060000D02*
X132000000Y-77310000D01*
X132000000Y-77310000D02*
X136300000Y-77310000D01*
X136300000Y-77310000D02*
X136300000Y-78060000D01*
X136300000Y-78060000D02*
X136650000Y-78060000D01*
X136650000Y-78060000D02*
X136650000Y-77560000D01*
X136650000Y-77560000D02*
X137650000Y-77310000D01*
X137650000Y-77310000D02*
X137650000Y-80310000D01*
X137650000Y-80310000D02*
X136650000Y-80060000D01*
X136650000Y-80060000D02*
X136650000Y-79560000D01*
X136650000Y-79560000D02*
X136300000Y-79560000D01*
X136300000Y-79560000D02*
X136300000Y-80310000D01*
X136300000Y-80310000D02*
X132000000Y-80310000D01*
X132000000Y-80310000D02*
X132000000Y-79560000D01*
X137750000Y-71900000D02*
X139000000Y-71900000D01*
X139000000Y-71900000D02*
X139000000Y-73900000D01*
X90750000Y-92100000D02*
X90750000Y-90100000D01*
X92000000Y-92100000D02*
X90750000Y-92100000D01*
X97750000Y-83690000D02*
X97750000Y-84440000D01*
X93450000Y-83690000D02*
X97750000Y-83690000D01*
X93450000Y-84440000D02*
X93450000Y-83690000D01*
X93100000Y-84440000D02*
X93450000Y-84440000D01*
X93100000Y-83940000D02*
X93100000Y-84440000D01*
X92100000Y-83690000D02*
X93100000Y-83940000D01*
X92100000Y-86690000D02*
X92100000Y-83690000D01*
X93100000Y-86440000D02*
X92100000Y-86690000D01*
X93100000Y-85940000D02*
X93100000Y-86440000D01*
X93450000Y-85940000D02*
X93100000Y-85940000D01*
X93450000Y-86690000D02*
X93450000Y-85940000D01*
X97750000Y-86690000D02*
X93450000Y-86690000D01*
X97750000Y-85940000D02*
X97750000Y-86690000D01*
X97750000Y-87500000D02*
X97750000Y-88250000D01*
X93450000Y-87500000D02*
X97750000Y-87500000D01*
X93450000Y-88250000D02*
X93450000Y-87500000D01*
X93100000Y-88250000D02*
X93450000Y-88250000D01*
X93100000Y-87750000D02*
X93100000Y-88250000D01*
X92100000Y-87500000D02*
X93100000Y-87750000D01*
X92100000Y-90500000D02*
X92100000Y-87500000D01*
X93100000Y-90250000D02*
X92100000Y-90500000D01*
X93100000Y-89750000D02*
X93100000Y-90250000D01*
X93450000Y-89750000D02*
X93100000Y-89750000D01*
X93450000Y-90500000D02*
X93450000Y-89750000D01*
X97750000Y-90500000D02*
X93450000Y-90500000D01*
X97750000Y-89750000D02*
X97750000Y-90500000D01*
X91170000Y-82510000D02*
X91170000Y-91680000D01*
X98580000Y-82510000D02*
X91170000Y-82510000D01*
X98580000Y-91680000D02*
X98580000Y-82510000D01*
X91170000Y-91680000D02*
X98580000Y-91680000D01*
X97749845Y-84440353D02*
G75*
G03X97750000Y-85940000I1700155J-749647D01*
G01*
X97749845Y-88250353D02*
G75*
G03X97750000Y-89750000I1700155J-749647D01*
G01*
X139000000Y-82150000D02*
X139000000Y-84150000D01*
X137750000Y-82150000D02*
X139000000Y-82150000D01*
X132000000Y-90560000D02*
X132000000Y-89810000D01*
X136300000Y-90560000D02*
X132000000Y-90560000D01*
X136300000Y-89810000D02*
X136300000Y-90560000D01*
X136650000Y-89810000D02*
X136300000Y-89810000D01*
X136650000Y-90310000D02*
X136650000Y-89810000D01*
X137650000Y-90560000D02*
X136650000Y-90310000D01*
X137650000Y-87560000D02*
X137650000Y-90560000D01*
X136650000Y-87810000D02*
X137650000Y-87560000D01*
X136650000Y-88310000D02*
X136650000Y-87810000D01*
X136300000Y-88310000D02*
X136650000Y-88310000D01*
X136300000Y-87560000D02*
X136300000Y-88310000D01*
X132000000Y-87560000D02*
X136300000Y-87560000D01*
X132000000Y-88310000D02*
X132000000Y-87560000D01*
X132000000Y-86750000D02*
X132000000Y-86000000D01*
X136300000Y-86750000D02*
X132000000Y-86750000D01*
X136300000Y-86000000D02*
X136300000Y-86750000D01*
X136650000Y-86000000D02*
X136300000Y-86000000D01*
X136650000Y-86500000D02*
X136650000Y-86000000D01*
X137650000Y-86750000D02*
X136650000Y-86500000D01*
X137650000Y-83750000D02*
X137650000Y-86750000D01*
X136650000Y-84000000D02*
X137650000Y-83750000D01*
X136650000Y-84500000D02*
X136650000Y-84000000D01*
X136300000Y-84500000D02*
X136650000Y-84500000D01*
X136300000Y-83750000D02*
X136300000Y-84500000D01*
X132000000Y-83750000D02*
X136300000Y-83750000D01*
X132000000Y-84500000D02*
X132000000Y-83750000D01*
X138580000Y-91740000D02*
X138580000Y-82570000D01*
X131170000Y-91740000D02*
X138580000Y-91740000D01*
X131170000Y-82570000D02*
X131170000Y-91740000D01*
X138580000Y-82570000D02*
X131170000Y-82570000D01*
X132000155Y-89809647D02*
G75*
G03X132000000Y-88310000I-1700155J749647D01*
G01*
X132000155Y-85999647D02*
G75*
G03X132000000Y-84500000I-1700155J749647D01*
G01*
X141990000Y-83170000D02*
X143450000Y-83170000D01*
X141990000Y-86330000D02*
X144150000Y-86330000D01*
X141990000Y-86330000D02*
X141990000Y-85400000D01*
X141990000Y-83170000D02*
X141990000Y-84100000D01*
X78400000Y-76120000D02*
X79600000Y-76120000D01*
X79600000Y-77880000D02*
X78400000Y-77880000D01*
X79600000Y-74380000D02*
X78400000Y-74380000D01*
X78400000Y-72620000D02*
X79600000Y-72620000D01*
X78400000Y-82620000D02*
X79600000Y-82620000D01*
X79600000Y-84380000D02*
X78400000Y-84380000D01*
X79600000Y-80880000D02*
X78400000Y-80880000D01*
X78400000Y-79120000D02*
X79600000Y-79120000D01*
X78400000Y-89120000D02*
X79600000Y-89120000D01*
X79600000Y-90880000D02*
X78400000Y-90880000D01*
X79600000Y-87380000D02*
X78400000Y-87380000D01*
X78400000Y-85620000D02*
X79600000Y-85620000D01*
X118400000Y-91370000D02*
X119600000Y-91370000D01*
X119600000Y-93130000D02*
X118400000Y-93130000D01*
X115780000Y-96000000D02*
X115780000Y-95500000D01*
X114720000Y-95500000D02*
X114720000Y-96000000D01*
X113220000Y-92750000D02*
X113220000Y-93250000D01*
X114280000Y-93250000D02*
X114280000Y-92750000D01*
X151850000Y-89880000D02*
X150650000Y-89880000D01*
X150650000Y-88120000D02*
X151850000Y-88120000D01*
X118000000Y-86070000D02*
X119000000Y-86070000D01*
X119000000Y-87430000D02*
X118000000Y-87430000D01*
X119030000Y-66000000D02*
X119030000Y-65500000D01*
X117970000Y-65500000D02*
X117970000Y-66000000D01*
X120870000Y-65850000D02*
X120870000Y-64650000D01*
X122630000Y-64650000D02*
X122630000Y-65850000D01*
X122630000Y-68900000D02*
X122630000Y-70100000D01*
X120870000Y-70100000D02*
X120870000Y-68900000D01*
X81720000Y-76250000D02*
X81720000Y-76750000D01*
X82780000Y-76750000D02*
X82780000Y-76250000D01*
X83170000Y-74650000D02*
X83170000Y-75150000D01*
X84230000Y-75150000D02*
X84230000Y-74650000D01*
X117000000Y-85430000D02*
X116000000Y-85430000D01*
X116000000Y-84070000D02*
X117000000Y-84070000D01*
X113100000Y-81880000D02*
X111900000Y-81880000D01*
X111900000Y-80120000D02*
X113100000Y-80120000D01*
X118500000Y-93570000D02*
X119500000Y-93570000D01*
X119500000Y-94930000D02*
X118500000Y-94930000D01*
D15*
X73750000Y-76850000D02*
X73750000Y-74150000D01*
X73750000Y-74150000D02*
X77350000Y-74150000D01*
X77350000Y-76400000D02*
X77350000Y-74150000D01*
X73750000Y-76850000D02*
X76900000Y-76850000D01*
X77350000Y-76400000D02*
X76900000Y-76850000D01*
X73750000Y-83350000D02*
X73750000Y-80650000D01*
X73750000Y-80650000D02*
X77350000Y-80650000D01*
X77350000Y-82900000D02*
X77350000Y-80650000D01*
X73750000Y-83350000D02*
X76900000Y-83350000D01*
X77350000Y-82900000D02*
X76900000Y-83350000D01*
X77350000Y-89400000D02*
X76900000Y-89850000D01*
X73750000Y-89850000D02*
X76900000Y-89850000D01*
X77350000Y-89400000D02*
X77350000Y-87150000D01*
X73750000Y-87150000D02*
X77350000Y-87150000D01*
X73750000Y-89850000D02*
X73750000Y-87150000D01*
D14*
X148610000Y-89900000D02*
X148610000Y-87450000D01*
X145390000Y-88100000D02*
X145390000Y-89900000D01*
D12*
X112100000Y-86350000D02*
X112100000Y-87125000D01*
X116400000Y-86350000D02*
X116400000Y-87125000D01*
X116400000Y-90650000D02*
X116400000Y-89875000D01*
X112100000Y-90650000D02*
X112100000Y-89875000D01*
X116400000Y-86350000D02*
X115625000Y-86350000D01*
X116400000Y-90650000D02*
X115625000Y-90650000D01*
X112100000Y-86350000D02*
X112875000Y-86350000D01*
D13*
X114260800Y-70445200D02*
G75*
G02X114260800Y-71054800I0J-304800D01*
G01*
X114260800Y-71054800D02*
X114260800Y-72121600D01*
X114260800Y-70445200D02*
X114260800Y-71054800D01*
X114260800Y-69378400D02*
X114260800Y-70445200D01*
X119239200Y-72121600D02*
X119239200Y-69378400D01*
D14*
X145900000Y-83200000D02*
X146500000Y-83500000D01*
X145900000Y-83800000D02*
X145900000Y-83200000D01*
X146500000Y-83500000D02*
X145900000Y-83800000D01*
X150050000Y-77100000D02*
X150050000Y-81000000D01*
X145550000Y-77100000D02*
X150050000Y-77100000D01*
X145550000Y-75900000D02*
X145550000Y-77100000D01*
X157350000Y-75900000D02*
X145550000Y-75900000D01*
X157350000Y-81000000D02*
X157350000Y-75900000D01*
X150050000Y-84900000D02*
X150050000Y-81000000D01*
X145550000Y-84900000D02*
X150050000Y-84900000D01*
X145550000Y-86100000D02*
X145550000Y-84900000D01*
X157350000Y-86100000D02*
X145550000Y-86100000D01*
X157350000Y-81000000D02*
X157350000Y-86100000D01*
D16*
G36*
X100203786Y-55471152D02*
X100487667Y-55498333D01*
X100487667Y-56768333D01*
X100233667Y-56780428D01*
X100039840Y-56794792D01*
X99937334Y-56811621D01*
X99831500Y-56820692D01*
X99768584Y-56872215D01*
X99768000Y-56881743D01*
X99700051Y-56966808D01*
X99575680Y-57040446D01*
X99406834Y-57203782D01*
X99363918Y-57362975D01*
X99315129Y-57581788D01*
X99246560Y-57715860D01*
X99192568Y-57846300D01*
X99246655Y-57931854D01*
X99287837Y-58051977D01*
X99317413Y-58322037D01*
X99335740Y-58747885D01*
X99343177Y-59335371D01*
X99343370Y-59515766D01*
X99338543Y-60111639D01*
X99325247Y-60538399D01*
X99303482Y-60796056D01*
X99273248Y-60884620D01*
X99260000Y-60874666D01*
X99194387Y-60796831D01*
X99176904Y-60876852D01*
X99176630Y-60895833D01*
X99155175Y-60972645D01*
X99069338Y-61015453D01*
X98884379Y-61031779D01*
X98565562Y-61029147D01*
X98561500Y-61029048D01*
X97947667Y-61014097D01*
X98540334Y-60959333D01*
X99133000Y-60904568D01*
X98540334Y-60889617D01*
X97947667Y-60874666D01*
X97947667Y-55710000D01*
X98427575Y-55710000D01*
X98719809Y-55700465D01*
X98957890Y-55675959D01*
X99053001Y-55654160D01*
X99149503Y-55640895D01*
X99173883Y-55731563D01*
X99159162Y-55866465D01*
X99119807Y-56134610D01*
X99120976Y-56133333D01*
X100389132Y-56133333D01*
X100392809Y-56387728D01*
X100402609Y-56514394D01*
X100416682Y-56495662D01*
X100422344Y-56450833D01*
X100436044Y-56132915D01*
X100422344Y-55815833D01*
X100407200Y-55741365D01*
X100395675Y-55818553D01*
X100389619Y-56029728D01*
X100389132Y-56133333D01*
X99120976Y-56133333D01*
X99401003Y-55827615D01*
X99621649Y-55624655D01*
X99795058Y-55558272D01*
X99852217Y-55565081D01*
X99968139Y-55570058D01*
X99971070Y-55526756D01*
X100005550Y-55476099D01*
X100175113Y-55468719D01*
X100203786Y-55471152D01*
X100203786Y-55471152D01*
G37*
X100203786Y-55471152D02*
X100487667Y-55498333D01*
X100487667Y-56768333D01*
X100233667Y-56780428D01*
X100039840Y-56794792D01*
X99937334Y-56811621D01*
X99831500Y-56820692D01*
X99768584Y-56872215D01*
X99768000Y-56881743D01*
X99700051Y-56966808D01*
X99575680Y-57040446D01*
X99406834Y-57203782D01*
X99363918Y-57362975D01*
X99315129Y-57581788D01*
X99246560Y-57715860D01*
X99192568Y-57846300D01*
X99246655Y-57931854D01*
X99287837Y-58051977D01*
X99317413Y-58322037D01*
X99335740Y-58747885D01*
X99343177Y-59335371D01*
X99343370Y-59515766D01*
X99338543Y-60111639D01*
X99325247Y-60538399D01*
X99303482Y-60796056D01*
X99273248Y-60884620D01*
X99260000Y-60874666D01*
X99194387Y-60796831D01*
X99176904Y-60876852D01*
X99176630Y-60895833D01*
X99155175Y-60972645D01*
X99069338Y-61015453D01*
X98884379Y-61031779D01*
X98565562Y-61029147D01*
X98561500Y-61029048D01*
X97947667Y-61014097D01*
X98540334Y-60959333D01*
X99133000Y-60904568D01*
X98540334Y-60889617D01*
X97947667Y-60874666D01*
X97947667Y-55710000D01*
X98427575Y-55710000D01*
X98719809Y-55700465D01*
X98957890Y-55675959D01*
X99053001Y-55654160D01*
X99149503Y-55640895D01*
X99173883Y-55731563D01*
X99159162Y-55866465D01*
X99119807Y-56134610D01*
X99120976Y-56133333D01*
X100389132Y-56133333D01*
X100392809Y-56387728D01*
X100402609Y-56514394D01*
X100416682Y-56495662D01*
X100422344Y-56450833D01*
X100436044Y-56132915D01*
X100422344Y-55815833D01*
X100407200Y-55741365D01*
X100395675Y-55818553D01*
X100389619Y-56029728D01*
X100389132Y-56133333D01*
X99120976Y-56133333D01*
X99401003Y-55827615D01*
X99621649Y-55624655D01*
X99795058Y-55558272D01*
X99852217Y-55565081D01*
X99968139Y-55570058D01*
X99971070Y-55526756D01*
X100005550Y-55476099D01*
X100175113Y-55468719D01*
X100203786Y-55471152D01*
G36*
X103895729Y-55491133D02*
X104025691Y-55530998D01*
X104029494Y-55563598D01*
X104051299Y-55613441D01*
X104200372Y-55593734D01*
X104374622Y-55578878D01*
X104424667Y-55629425D01*
X104490473Y-55682985D01*
X104594000Y-55667666D01*
X104730351Y-55659569D01*
X104763334Y-55704294D01*
X104834359Y-55777152D01*
X104936515Y-55794666D01*
X105112176Y-55852059D01*
X105306314Y-55991696D01*
X105321364Y-56006333D01*
X105479426Y-56147696D01*
X105589326Y-56216670D01*
X105597926Y-56217999D01*
X105681858Y-56277589D01*
X105807279Y-56418508D01*
X105930483Y-56583978D01*
X106007762Y-56717223D01*
X106013806Y-56758232D01*
X106046255Y-56838590D01*
X106139352Y-56956815D01*
X106230580Y-57096995D01*
X106231074Y-57177370D01*
X106236895Y-57230441D01*
X106264778Y-57233999D01*
X106337756Y-57310303D01*
X106411108Y-57506572D01*
X106473504Y-57773842D01*
X106513611Y-58063151D01*
X106520098Y-58325535D01*
X106519506Y-58334666D01*
X106506373Y-58488808D01*
X106478089Y-58608503D01*
X106415467Y-58697834D01*
X106299321Y-58760882D01*
X106110465Y-58801727D01*
X105829714Y-58824451D01*
X105437880Y-58833135D01*
X104915779Y-58831860D01*
X104244223Y-58824708D01*
X104217233Y-58824395D01*
X103565048Y-58817933D01*
X103063470Y-58816174D01*
X102693813Y-58820055D01*
X102437392Y-58830511D01*
X102275523Y-58848477D01*
X102189520Y-58874888D01*
X102160699Y-58910681D01*
X102160914Y-58927333D01*
X102233883Y-59106946D01*
X102265667Y-59149792D01*
X102378970Y-59292410D01*
X102474858Y-59424959D01*
X102609667Y-59561747D01*
X102712688Y-59604666D01*
X102785336Y-59650562D01*
X102774266Y-59688363D01*
X102787894Y-59736475D01*
X102853936Y-59721638D01*
X102965529Y-59719457D01*
X102985334Y-59757015D01*
X103053136Y-59805885D01*
X103167906Y-59795069D01*
X103290367Y-59785964D01*
X103302962Y-59824163D01*
X103351787Y-59866262D01*
X103528053Y-59894135D01*
X103712806Y-59901000D01*
X103965303Y-59889197D01*
X104131517Y-59858803D01*
X104170417Y-59830444D01*
X104231447Y-59785066D01*
X104266505Y-59791835D01*
X104387734Y-59761905D01*
X104433743Y-59731666D01*
X104509334Y-59731666D01*
X104551667Y-59774000D01*
X104594000Y-59731666D01*
X104551667Y-59689333D01*
X104509334Y-59731666D01*
X104433743Y-59731666D01*
X104562523Y-59647029D01*
X104595433Y-59619248D01*
X104726212Y-59520107D01*
X104872309Y-59458098D01*
X105077479Y-59423842D01*
X105385474Y-59407961D01*
X105600289Y-59403858D01*
X106001288Y-59406061D01*
X106249816Y-59427503D01*
X106361841Y-59470060D01*
X106372028Y-59494626D01*
X106306798Y-59616690D01*
X106223834Y-59682551D01*
X106131094Y-59751932D01*
X106138607Y-59771425D01*
X106133284Y-59828894D01*
X106039751Y-59967418D01*
X106011607Y-60002129D01*
X105768746Y-60272995D01*
X105542354Y-60489111D01*
X105362113Y-60624841D01*
X105257703Y-60654550D01*
X105256817Y-60654028D01*
X105191331Y-60674361D01*
X105186667Y-60705333D01*
X105135092Y-60760545D01*
X105102000Y-60747666D01*
X105024107Y-60757188D01*
X105017334Y-60790000D01*
X104967318Y-60847167D01*
X104938517Y-60835949D01*
X104829946Y-60846869D01*
X104805667Y-60874666D01*
X104704260Y-60924941D01*
X104672817Y-60913384D01*
X104598857Y-60919965D01*
X104594000Y-60944479D01*
X104516138Y-60979956D01*
X104308798Y-61002998D01*
X104011355Y-61013962D01*
X103663180Y-61013205D01*
X103303646Y-61001085D01*
X102972126Y-60977958D01*
X102707993Y-60944183D01*
X102625500Y-60926619D01*
X102422948Y-60857128D01*
X102314004Y-60786075D01*
X102308000Y-60770070D01*
X102255244Y-60733486D01*
X102223334Y-60747666D01*
X102145440Y-60738144D01*
X102138667Y-60705333D01*
X102094779Y-60644025D01*
X102070536Y-60652780D01*
X101975725Y-60622360D01*
X101804741Y-60497505D01*
X101593143Y-60311019D01*
X101376490Y-60095707D01*
X101190340Y-59884371D01*
X101095003Y-59752833D01*
X101012716Y-59595730D01*
X101004922Y-59520996D01*
X101009897Y-59520000D01*
X101000620Y-59479505D01*
X100914248Y-59405844D01*
X100813451Y-59276340D01*
X100820687Y-59190468D01*
X100826883Y-59048097D01*
X100784000Y-58969666D01*
X100725608Y-58826714D01*
X100739375Y-58761708D01*
X100734467Y-58681127D01*
X100701351Y-58673333D01*
X100652889Y-58626792D01*
X100704802Y-58493782D01*
X100756164Y-58370042D01*
X100707781Y-58371779D01*
X100636317Y-58350127D01*
X100614667Y-58207666D01*
X100699334Y-58207666D01*
X100741667Y-58250000D01*
X100784000Y-58207666D01*
X100741667Y-58165333D01*
X100699334Y-58207666D01*
X100614667Y-58207666D01*
X100638371Y-58061193D01*
X100689917Y-58032513D01*
X100729943Y-57992367D01*
X100731434Y-57833572D01*
X100726881Y-57794926D01*
X100727815Y-57776521D01*
X102054000Y-57776521D01*
X102134219Y-57792515D01*
X102357094Y-57806400D01*
X102695953Y-57817302D01*
X103124122Y-57824345D01*
X103582997Y-57826666D01*
X104125907Y-57822521D01*
X104560453Y-57810675D01*
X104870065Y-57792009D01*
X105038176Y-57767407D01*
X105063283Y-57747850D01*
X105073152Y-57638714D01*
X105097279Y-57617917D01*
X105119007Y-57523593D01*
X105032060Y-57370737D01*
X104869951Y-57192777D01*
X104666190Y-57023145D01*
X104454289Y-56895269D01*
X104327820Y-56850324D01*
X104167058Y-56796369D01*
X104119132Y-56740926D01*
X104119516Y-56740277D01*
X104067694Y-56710841D01*
X103899685Y-56698116D01*
X103667657Y-56700640D01*
X103423779Y-56716953D01*
X103220221Y-56745593D01*
X103140112Y-56767700D01*
X102933215Y-56829786D01*
X102858175Y-56844312D01*
X102690340Y-56929658D01*
X102641193Y-56985958D01*
X102576704Y-57053674D01*
X102563297Y-57033133D01*
X102510608Y-57016467D01*
X102435932Y-57063892D01*
X102349457Y-57178763D01*
X102350112Y-57233641D01*
X102331187Y-57337907D01*
X102230428Y-57501943D01*
X102222180Y-57512569D01*
X102105618Y-57674835D01*
X102054130Y-57774378D01*
X102054000Y-57776521D01*
X100727815Y-57776521D01*
X100741149Y-57513852D01*
X100816933Y-57382495D01*
X100898191Y-57259943D01*
X100892857Y-57201746D01*
X100904520Y-57153135D01*
X100936565Y-57149333D01*
X100997172Y-57088593D01*
X100987322Y-57031117D01*
X101015668Y-56901722D01*
X101135818Y-56777117D01*
X101249936Y-56681238D01*
X101252163Y-56641333D01*
X101252130Y-56641333D01*
X101247623Y-56596268D01*
X101346806Y-56479933D01*
X101516395Y-56320619D01*
X101723107Y-56146617D01*
X101907255Y-56006333D01*
X105186667Y-56006333D01*
X105229000Y-56048666D01*
X105271334Y-56006333D01*
X105229000Y-55964000D01*
X105186667Y-56006333D01*
X101907255Y-56006333D01*
X101933660Y-55986218D01*
X102114769Y-55867712D01*
X102215887Y-55822133D01*
X102399095Y-55754401D01*
X102487050Y-55689327D01*
X102597723Y-55636077D01*
X102809292Y-55601036D01*
X102881043Y-55596530D01*
X103085577Y-55576737D01*
X103188005Y-55543363D01*
X103190370Y-55530083D01*
X103248016Y-55501209D01*
X103430926Y-55481989D01*
X103620334Y-55477166D01*
X103895729Y-55491133D01*
X103895729Y-55491133D01*
G37*
X103895729Y-55491133D02*
X104025691Y-55530998D01*
X104029494Y-55563598D01*
X104051299Y-55613441D01*
X104200372Y-55593734D01*
X104374622Y-55578878D01*
X104424667Y-55629425D01*
X104490473Y-55682985D01*
X104594000Y-55667666D01*
X104730351Y-55659569D01*
X104763334Y-55704294D01*
X104834359Y-55777152D01*
X104936515Y-55794666D01*
X105112176Y-55852059D01*
X105306314Y-55991696D01*
X105321364Y-56006333D01*
X105479426Y-56147696D01*
X105589326Y-56216670D01*
X105597926Y-56217999D01*
X105681858Y-56277589D01*
X105807279Y-56418508D01*
X105930483Y-56583978D01*
X106007762Y-56717223D01*
X106013806Y-56758232D01*
X106046255Y-56838590D01*
X106139352Y-56956815D01*
X106230580Y-57096995D01*
X106231074Y-57177370D01*
X106236895Y-57230441D01*
X106264778Y-57233999D01*
X106337756Y-57310303D01*
X106411108Y-57506572D01*
X106473504Y-57773842D01*
X106513611Y-58063151D01*
X106520098Y-58325535D01*
X106519506Y-58334666D01*
X106506373Y-58488808D01*
X106478089Y-58608503D01*
X106415467Y-58697834D01*
X106299321Y-58760882D01*
X106110465Y-58801727D01*
X105829714Y-58824451D01*
X105437880Y-58833135D01*
X104915779Y-58831860D01*
X104244223Y-58824708D01*
X104217233Y-58824395D01*
X103565048Y-58817933D01*
X103063470Y-58816174D01*
X102693813Y-58820055D01*
X102437392Y-58830511D01*
X102275523Y-58848477D01*
X102189520Y-58874888D01*
X102160699Y-58910681D01*
X102160914Y-58927333D01*
X102233883Y-59106946D01*
X102265667Y-59149792D01*
X102378970Y-59292410D01*
X102474858Y-59424959D01*
X102609667Y-59561747D01*
X102712688Y-59604666D01*
X102785336Y-59650562D01*
X102774266Y-59688363D01*
X102787894Y-59736475D01*
X102853936Y-59721638D01*
X102965529Y-59719457D01*
X102985334Y-59757015D01*
X103053136Y-59805885D01*
X103167906Y-59795069D01*
X103290367Y-59785964D01*
X103302962Y-59824163D01*
X103351787Y-59866262D01*
X103528053Y-59894135D01*
X103712806Y-59901000D01*
X103965303Y-59889197D01*
X104131517Y-59858803D01*
X104170417Y-59830444D01*
X104231447Y-59785066D01*
X104266505Y-59791835D01*
X104387734Y-59761905D01*
X104433743Y-59731666D01*
X104509334Y-59731666D01*
X104551667Y-59774000D01*
X104594000Y-59731666D01*
X104551667Y-59689333D01*
X104509334Y-59731666D01*
X104433743Y-59731666D01*
X104562523Y-59647029D01*
X104595433Y-59619248D01*
X104726212Y-59520107D01*
X104872309Y-59458098D01*
X105077479Y-59423842D01*
X105385474Y-59407961D01*
X105600289Y-59403858D01*
X106001288Y-59406061D01*
X106249816Y-59427503D01*
X106361841Y-59470060D01*
X106372028Y-59494626D01*
X106306798Y-59616690D01*
X106223834Y-59682551D01*
X106131094Y-59751932D01*
X106138607Y-59771425D01*
X106133284Y-59828894D01*
X106039751Y-59967418D01*
X106011607Y-60002129D01*
X105768746Y-60272995D01*
X105542354Y-60489111D01*
X105362113Y-60624841D01*
X105257703Y-60654550D01*
X105256817Y-60654028D01*
X105191331Y-60674361D01*
X105186667Y-60705333D01*
X105135092Y-60760545D01*
X105102000Y-60747666D01*
X105024107Y-60757188D01*
X105017334Y-60790000D01*
X104967318Y-60847167D01*
X104938517Y-60835949D01*
X104829946Y-60846869D01*
X104805667Y-60874666D01*
X104704260Y-60924941D01*
X104672817Y-60913384D01*
X104598857Y-60919965D01*
X104594000Y-60944479D01*
X104516138Y-60979956D01*
X104308798Y-61002998D01*
X104011355Y-61013962D01*
X103663180Y-61013205D01*
X103303646Y-61001085D01*
X102972126Y-60977958D01*
X102707993Y-60944183D01*
X102625500Y-60926619D01*
X102422948Y-60857128D01*
X102314004Y-60786075D01*
X102308000Y-60770070D01*
X102255244Y-60733486D01*
X102223334Y-60747666D01*
X102145440Y-60738144D01*
X102138667Y-60705333D01*
X102094779Y-60644025D01*
X102070536Y-60652780D01*
X101975725Y-60622360D01*
X101804741Y-60497505D01*
X101593143Y-60311019D01*
X101376490Y-60095707D01*
X101190340Y-59884371D01*
X101095003Y-59752833D01*
X101012716Y-59595730D01*
X101004922Y-59520996D01*
X101009897Y-59520000D01*
X101000620Y-59479505D01*
X100914248Y-59405844D01*
X100813451Y-59276340D01*
X100820687Y-59190468D01*
X100826883Y-59048097D01*
X100784000Y-58969666D01*
X100725608Y-58826714D01*
X100739375Y-58761708D01*
X100734467Y-58681127D01*
X100701351Y-58673333D01*
X100652889Y-58626792D01*
X100704802Y-58493782D01*
X100756164Y-58370042D01*
X100707781Y-58371779D01*
X100636317Y-58350127D01*
X100614667Y-58207666D01*
X100699334Y-58207666D01*
X100741667Y-58250000D01*
X100784000Y-58207666D01*
X100741667Y-58165333D01*
X100699334Y-58207666D01*
X100614667Y-58207666D01*
X100638371Y-58061193D01*
X100689917Y-58032513D01*
X100729943Y-57992367D01*
X100731434Y-57833572D01*
X100726881Y-57794926D01*
X100727815Y-57776521D01*
X102054000Y-57776521D01*
X102134219Y-57792515D01*
X102357094Y-57806400D01*
X102695953Y-57817302D01*
X103124122Y-57824345D01*
X103582997Y-57826666D01*
X104125907Y-57822521D01*
X104560453Y-57810675D01*
X104870065Y-57792009D01*
X105038176Y-57767407D01*
X105063283Y-57747850D01*
X105073152Y-57638714D01*
X105097279Y-57617917D01*
X105119007Y-57523593D01*
X105032060Y-57370737D01*
X104869951Y-57192777D01*
X104666190Y-57023145D01*
X104454289Y-56895269D01*
X104327820Y-56850324D01*
X104167058Y-56796369D01*
X104119132Y-56740926D01*
X104119516Y-56740277D01*
X104067694Y-56710841D01*
X103899685Y-56698116D01*
X103667657Y-56700640D01*
X103423779Y-56716953D01*
X103220221Y-56745593D01*
X103140112Y-56767700D01*
X102933215Y-56829786D01*
X102858175Y-56844312D01*
X102690340Y-56929658D01*
X102641193Y-56985958D01*
X102576704Y-57053674D01*
X102563297Y-57033133D01*
X102510608Y-57016467D01*
X102435932Y-57063892D01*
X102349457Y-57178763D01*
X102350112Y-57233641D01*
X102331187Y-57337907D01*
X102230428Y-57501943D01*
X102222180Y-57512569D01*
X102105618Y-57674835D01*
X102054130Y-57774378D01*
X102054000Y-57776521D01*
X100727815Y-57776521D01*
X100741149Y-57513852D01*
X100816933Y-57382495D01*
X100898191Y-57259943D01*
X100892857Y-57201746D01*
X100904520Y-57153135D01*
X100936565Y-57149333D01*
X100997172Y-57088593D01*
X100987322Y-57031117D01*
X101015668Y-56901722D01*
X101135818Y-56777117D01*
X101249936Y-56681238D01*
X101252163Y-56641333D01*
X101252130Y-56641333D01*
X101247623Y-56596268D01*
X101346806Y-56479933D01*
X101516395Y-56320619D01*
X101723107Y-56146617D01*
X101907255Y-56006333D01*
X105186667Y-56006333D01*
X105229000Y-56048666D01*
X105271334Y-56006333D01*
X105229000Y-55964000D01*
X105186667Y-56006333D01*
X101907255Y-56006333D01*
X101933660Y-55986218D01*
X102114769Y-55867712D01*
X102215887Y-55822133D01*
X102399095Y-55754401D01*
X102487050Y-55689327D01*
X102597723Y-55636077D01*
X102809292Y-55601036D01*
X102881043Y-55596530D01*
X103085577Y-55576737D01*
X103188005Y-55543363D01*
X103190370Y-55530083D01*
X103248016Y-55501209D01*
X103430926Y-55481989D01*
X103620334Y-55477166D01*
X103895729Y-55491133D01*
G36*
X108681320Y-55514393D02*
X108658000Y-55531383D01*
X108591421Y-55606810D01*
X108631837Y-55624036D01*
X108764050Y-55568139D01*
X108781475Y-55546371D01*
X108892891Y-55494185D01*
X109085772Y-55476348D01*
X109276311Y-55493435D01*
X109378665Y-55542282D01*
X109479897Y-55573748D01*
X109628593Y-55561976D01*
X109822470Y-55573801D01*
X109893486Y-55657511D01*
X109973104Y-55750741D01*
X110021539Y-55746850D01*
X110092913Y-55762299D01*
X110097334Y-55789669D01*
X110164666Y-55871799D01*
X110209575Y-55879333D01*
X110343119Y-55936541D01*
X110501867Y-56070988D01*
X110616295Y-56221932D01*
X110731969Y-56418262D01*
X110829573Y-56618092D01*
X110889795Y-56779532D01*
X110893320Y-56860695D01*
X110863680Y-56855686D01*
X110785549Y-56847930D01*
X110789020Y-56931205D01*
X110855258Y-57026566D01*
X110821962Y-57066853D01*
X110632648Y-57089253D01*
X110299823Y-57092428D01*
X110248913Y-57091411D01*
X109897127Y-57078030D01*
X109670282Y-57049846D01*
X109524021Y-56995582D01*
X109413989Y-56903962D01*
X109385155Y-56871840D01*
X109225506Y-56739555D01*
X109084596Y-56702294D01*
X109081334Y-56703120D01*
X108801225Y-56813045D01*
X108598450Y-56953196D01*
X108535508Y-57041116D01*
X108538500Y-57174776D01*
X108603961Y-57324148D01*
X108695114Y-57428449D01*
X108771428Y-57431016D01*
X108824970Y-57434723D01*
X108827334Y-57455422D01*
X108900489Y-57520285D01*
X109055424Y-57554611D01*
X109241134Y-57589799D01*
X109330591Y-57636577D01*
X109444907Y-57701934D01*
X109547000Y-57728878D01*
X109752825Y-57802156D01*
X109838419Y-57855878D01*
X109921111Y-57910496D01*
X109894883Y-57844648D01*
X109892561Y-57840775D01*
X109904539Y-57803205D01*
X110017607Y-57843547D01*
X110196092Y-57939870D01*
X110404321Y-58070241D01*
X110606618Y-58212727D01*
X110767311Y-58345396D01*
X110836059Y-58420850D01*
X110924368Y-58629090D01*
X110974834Y-58904918D01*
X110978503Y-58973707D01*
X110995494Y-59169218D01*
X111029489Y-59249307D01*
X111048537Y-59236688D01*
X111100008Y-59208453D01*
X111112037Y-59287166D01*
X111072476Y-59412753D01*
X111027011Y-59435333D01*
X110974876Y-59505483D01*
X110977900Y-59640542D01*
X110962120Y-59828538D01*
X110890917Y-59893409D01*
X110794773Y-59998344D01*
X110791862Y-60060146D01*
X110765551Y-60145884D01*
X110732334Y-60112666D01*
X110690000Y-60155000D01*
X110732334Y-60197333D01*
X110757479Y-60172188D01*
X110751462Y-60191796D01*
X110619579Y-60361689D01*
X110589392Y-60391060D01*
X110454192Y-60540612D01*
X110407650Y-60642611D01*
X110413003Y-60654114D01*
X110390958Y-60697226D01*
X110323111Y-60705333D01*
X110201735Y-60751401D01*
X110182000Y-60799058D01*
X110120071Y-60854753D01*
X110050603Y-60842361D01*
X109961322Y-60833428D01*
X109964562Y-60865327D01*
X109926995Y-60931144D01*
X109778459Y-60982905D01*
X109541855Y-61009738D01*
X109230978Y-61021478D01*
X108898559Y-61019155D01*
X108597334Y-61003803D01*
X108380035Y-60976453D01*
X108310991Y-60954177D01*
X108146070Y-60924350D01*
X108080289Y-60939221D01*
X107996295Y-60943683D01*
X108013508Y-60890024D01*
X108017061Y-60825715D01*
X107951344Y-60839056D01*
X107841655Y-60802700D01*
X107679278Y-60670034D01*
X107504958Y-60485969D01*
X107359440Y-60295418D01*
X107283468Y-60143293D01*
X107282167Y-60101429D01*
X107238986Y-60032025D01*
X107209608Y-60028000D01*
X107151819Y-59966865D01*
X107162519Y-59906470D01*
X107156550Y-59784034D01*
X107119571Y-59755079D01*
X107043012Y-59657451D01*
X107006861Y-59514546D01*
X107001563Y-59404387D01*
X107008787Y-59393000D01*
X108319334Y-59393000D01*
X108361667Y-59435333D01*
X108404000Y-59393000D01*
X108361667Y-59350666D01*
X108319334Y-59393000D01*
X107008787Y-59393000D01*
X107039896Y-59343969D01*
X107157497Y-59322004D01*
X107390002Y-59327204D01*
X107567785Y-59336877D01*
X107955117Y-59340781D01*
X108205522Y-59302876D01*
X108274429Y-59268134D01*
X108371476Y-59222092D01*
X108431571Y-59312296D01*
X108451152Y-59382055D01*
X108556656Y-59616483D01*
X108754361Y-59765942D01*
X109080972Y-59858600D01*
X109301568Y-59887386D01*
X109421320Y-59850055D01*
X109503709Y-59721363D01*
X109520722Y-59683721D01*
X109608921Y-59528908D01*
X109677995Y-59480279D01*
X109679735Y-59481210D01*
X109707159Y-59437847D01*
X109694947Y-59309509D01*
X109619103Y-59153083D01*
X109479334Y-58998157D01*
X109325328Y-58887524D01*
X109206772Y-58863974D01*
X109190253Y-58874858D01*
X109093546Y-58869234D01*
X108915009Y-58796175D01*
X108880099Y-58777947D01*
X108664374Y-58677667D01*
X108495169Y-58625531D01*
X108485288Y-58624404D01*
X108219742Y-58549150D01*
X107924014Y-58391509D01*
X107797151Y-58292333D01*
X110605334Y-58292333D01*
X110647667Y-58334666D01*
X110690000Y-58292333D01*
X110647667Y-58250000D01*
X110605334Y-58292333D01*
X107797151Y-58292333D01*
X107675538Y-58197262D01*
X107589097Y-58094539D01*
X107488832Y-57953666D01*
X110012667Y-57953666D01*
X110055000Y-57996000D01*
X110097334Y-57953666D01*
X110055000Y-57911333D01*
X110012667Y-57953666D01*
X107488832Y-57953666D01*
X107449631Y-57898590D01*
X107335191Y-57762171D01*
X107260467Y-57595592D01*
X107260849Y-57488785D01*
X107250888Y-57328997D01*
X107209351Y-57270576D01*
X107178127Y-57172919D01*
X107218667Y-57106999D01*
X107262489Y-56983674D01*
X107227835Y-56943332D01*
X107198587Y-56853000D01*
X107218667Y-56853000D01*
X107261000Y-56895333D01*
X107303334Y-56853000D01*
X107261000Y-56810666D01*
X107218667Y-56853000D01*
X107198587Y-56853000D01*
X107188546Y-56821991D01*
X107231971Y-56639562D01*
X107253626Y-56599000D01*
X107303334Y-56599000D01*
X107345667Y-56641333D01*
X107388000Y-56599000D01*
X107345667Y-56556666D01*
X107303334Y-56599000D01*
X107253626Y-56599000D01*
X107317366Y-56479614D01*
X107404605Y-56440305D01*
X107409329Y-56442848D01*
X107458549Y-56444236D01*
X107440092Y-56403122D01*
X107457494Y-56290053D01*
X107570190Y-56116535D01*
X107638677Y-56038816D01*
X107792142Y-55893756D01*
X107885597Y-55835280D01*
X107898575Y-55845609D01*
X107934064Y-55847573D01*
X107989525Y-55769788D01*
X108126455Y-55660596D01*
X108251553Y-55673026D01*
X108372945Y-55688463D01*
X108370763Y-55667666D01*
X109758667Y-55667666D01*
X109801000Y-55710000D01*
X109843334Y-55667666D01*
X109801000Y-55625333D01*
X109758667Y-55667666D01*
X108370763Y-55667666D01*
X108367273Y-55634404D01*
X108362145Y-55549848D01*
X108392079Y-55540666D01*
X108537595Y-55516395D01*
X108629909Y-55490346D01*
X108730375Y-55465518D01*
X108681320Y-55514393D01*
X108681320Y-55514393D01*
G37*
X108681320Y-55514393D02*
X108658000Y-55531383D01*
X108591421Y-55606810D01*
X108631837Y-55624036D01*
X108764050Y-55568139D01*
X108781475Y-55546371D01*
X108892891Y-55494185D01*
X109085772Y-55476348D01*
X109276311Y-55493435D01*
X109378665Y-55542282D01*
X109479897Y-55573748D01*
X109628593Y-55561976D01*
X109822470Y-55573801D01*
X109893486Y-55657511D01*
X109973104Y-55750741D01*
X110021539Y-55746850D01*
X110092913Y-55762299D01*
X110097334Y-55789669D01*
X110164666Y-55871799D01*
X110209575Y-55879333D01*
X110343119Y-55936541D01*
X110501867Y-56070988D01*
X110616295Y-56221932D01*
X110731969Y-56418262D01*
X110829573Y-56618092D01*
X110889795Y-56779532D01*
X110893320Y-56860695D01*
X110863680Y-56855686D01*
X110785549Y-56847930D01*
X110789020Y-56931205D01*
X110855258Y-57026566D01*
X110821962Y-57066853D01*
X110632648Y-57089253D01*
X110299823Y-57092428D01*
X110248913Y-57091411D01*
X109897127Y-57078030D01*
X109670282Y-57049846D01*
X109524021Y-56995582D01*
X109413989Y-56903962D01*
X109385155Y-56871840D01*
X109225506Y-56739555D01*
X109084596Y-56702294D01*
X109081334Y-56703120D01*
X108801225Y-56813045D01*
X108598450Y-56953196D01*
X108535508Y-57041116D01*
X108538500Y-57174776D01*
X108603961Y-57324148D01*
X108695114Y-57428449D01*
X108771428Y-57431016D01*
X108824970Y-57434723D01*
X108827334Y-57455422D01*
X108900489Y-57520285D01*
X109055424Y-57554611D01*
X109241134Y-57589799D01*
X109330591Y-57636577D01*
X109444907Y-57701934D01*
X109547000Y-57728878D01*
X109752825Y-57802156D01*
X109838419Y-57855878D01*
X109921111Y-57910496D01*
X109894883Y-57844648D01*
X109892561Y-57840775D01*
X109904539Y-57803205D01*
X110017607Y-57843547D01*
X110196092Y-57939870D01*
X110404321Y-58070241D01*
X110606618Y-58212727D01*
X110767311Y-58345396D01*
X110836059Y-58420850D01*
X110924368Y-58629090D01*
X110974834Y-58904918D01*
X110978503Y-58973707D01*
X110995494Y-59169218D01*
X111029489Y-59249307D01*
X111048537Y-59236688D01*
X111100008Y-59208453D01*
X111112037Y-59287166D01*
X111072476Y-59412753D01*
X111027011Y-59435333D01*
X110974876Y-59505483D01*
X110977900Y-59640542D01*
X110962120Y-59828538D01*
X110890917Y-59893409D01*
X110794773Y-59998344D01*
X110791862Y-60060146D01*
X110765551Y-60145884D01*
X110732334Y-60112666D01*
X110690000Y-60155000D01*
X110732334Y-60197333D01*
X110757479Y-60172188D01*
X110751462Y-60191796D01*
X110619579Y-60361689D01*
X110589392Y-60391060D01*
X110454192Y-60540612D01*
X110407650Y-60642611D01*
X110413003Y-60654114D01*
X110390958Y-60697226D01*
X110323111Y-60705333D01*
X110201735Y-60751401D01*
X110182000Y-60799058D01*
X110120071Y-60854753D01*
X110050603Y-60842361D01*
X109961322Y-60833428D01*
X109964562Y-60865327D01*
X109926995Y-60931144D01*
X109778459Y-60982905D01*
X109541855Y-61009738D01*
X109230978Y-61021478D01*
X108898559Y-61019155D01*
X108597334Y-61003803D01*
X108380035Y-60976453D01*
X108310991Y-60954177D01*
X108146070Y-60924350D01*
X108080289Y-60939221D01*
X107996295Y-60943683D01*
X108013508Y-60890024D01*
X108017061Y-60825715D01*
X107951344Y-60839056D01*
X107841655Y-60802700D01*
X107679278Y-60670034D01*
X107504958Y-60485969D01*
X107359440Y-60295418D01*
X107283468Y-60143293D01*
X107282167Y-60101429D01*
X107238986Y-60032025D01*
X107209608Y-60028000D01*
X107151819Y-59966865D01*
X107162519Y-59906470D01*
X107156550Y-59784034D01*
X107119571Y-59755079D01*
X107043012Y-59657451D01*
X107006861Y-59514546D01*
X107001563Y-59404387D01*
X107008787Y-59393000D01*
X108319334Y-59393000D01*
X108361667Y-59435333D01*
X108404000Y-59393000D01*
X108361667Y-59350666D01*
X108319334Y-59393000D01*
X107008787Y-59393000D01*
X107039896Y-59343969D01*
X107157497Y-59322004D01*
X107390002Y-59327204D01*
X107567785Y-59336877D01*
X107955117Y-59340781D01*
X108205522Y-59302876D01*
X108274429Y-59268134D01*
X108371476Y-59222092D01*
X108431571Y-59312296D01*
X108451152Y-59382055D01*
X108556656Y-59616483D01*
X108754361Y-59765942D01*
X109080972Y-59858600D01*
X109301568Y-59887386D01*
X109421320Y-59850055D01*
X109503709Y-59721363D01*
X109520722Y-59683721D01*
X109608921Y-59528908D01*
X109677995Y-59480279D01*
X109679735Y-59481210D01*
X109707159Y-59437847D01*
X109694947Y-59309509D01*
X109619103Y-59153083D01*
X109479334Y-58998157D01*
X109325328Y-58887524D01*
X109206772Y-58863974D01*
X109190253Y-58874858D01*
X109093546Y-58869234D01*
X108915009Y-58796175D01*
X108880099Y-58777947D01*
X108664374Y-58677667D01*
X108495169Y-58625531D01*
X108485288Y-58624404D01*
X108219742Y-58549150D01*
X107924014Y-58391509D01*
X107797151Y-58292333D01*
X110605334Y-58292333D01*
X110647667Y-58334666D01*
X110690000Y-58292333D01*
X110647667Y-58250000D01*
X110605334Y-58292333D01*
X107797151Y-58292333D01*
X107675538Y-58197262D01*
X107589097Y-58094539D01*
X107488832Y-57953666D01*
X110012667Y-57953666D01*
X110055000Y-57996000D01*
X110097334Y-57953666D01*
X110055000Y-57911333D01*
X110012667Y-57953666D01*
X107488832Y-57953666D01*
X107449631Y-57898590D01*
X107335191Y-57762171D01*
X107260467Y-57595592D01*
X107260849Y-57488785D01*
X107250888Y-57328997D01*
X107209351Y-57270576D01*
X107178127Y-57172919D01*
X107218667Y-57106999D01*
X107262489Y-56983674D01*
X107227835Y-56943332D01*
X107198587Y-56853000D01*
X107218667Y-56853000D01*
X107261000Y-56895333D01*
X107303334Y-56853000D01*
X107261000Y-56810666D01*
X107218667Y-56853000D01*
X107198587Y-56853000D01*
X107188546Y-56821991D01*
X107231971Y-56639562D01*
X107253626Y-56599000D01*
X107303334Y-56599000D01*
X107345667Y-56641333D01*
X107388000Y-56599000D01*
X107345667Y-56556666D01*
X107303334Y-56599000D01*
X107253626Y-56599000D01*
X107317366Y-56479614D01*
X107404605Y-56440305D01*
X107409329Y-56442848D01*
X107458549Y-56444236D01*
X107440092Y-56403122D01*
X107457494Y-56290053D01*
X107570190Y-56116535D01*
X107638677Y-56038816D01*
X107792142Y-55893756D01*
X107885597Y-55835280D01*
X107898575Y-55845609D01*
X107934064Y-55847573D01*
X107989525Y-55769788D01*
X108126455Y-55660596D01*
X108251553Y-55673026D01*
X108372945Y-55688463D01*
X108370763Y-55667666D01*
X109758667Y-55667666D01*
X109801000Y-55710000D01*
X109843334Y-55667666D01*
X109801000Y-55625333D01*
X109758667Y-55667666D01*
X108370763Y-55667666D01*
X108367273Y-55634404D01*
X108362145Y-55549848D01*
X108392079Y-55540666D01*
X108537595Y-55516395D01*
X108629909Y-55490346D01*
X108730375Y-55465518D01*
X108681320Y-55514393D01*
G36*
X111875391Y-55676384D02*
X112072995Y-55704424D01*
X112403626Y-55701551D01*
X112479033Y-55698044D01*
X113103000Y-55666557D01*
X113103000Y-61044035D01*
X112460945Y-61044017D01*
X112145876Y-61037040D01*
X111900112Y-61018611D01*
X111769765Y-60992457D01*
X111762445Y-60987555D01*
X111751726Y-60912800D01*
X111991366Y-60912800D01*
X112068554Y-60924324D01*
X112279729Y-60930381D01*
X112383334Y-60930867D01*
X112637729Y-60927190D01*
X112764395Y-60917391D01*
X112745663Y-60903318D01*
X112700834Y-60897656D01*
X112382916Y-60883956D01*
X112065834Y-60897656D01*
X111991366Y-60912800D01*
X111751726Y-60912800D01*
X111748762Y-60892134D01*
X111736355Y-60647951D01*
X111725634Y-60275577D01*
X111717006Y-59795581D01*
X111710881Y-59228533D01*
X111707669Y-58595003D01*
X111707297Y-58214722D01*
X111709802Y-57523469D01*
X111716316Y-56914104D01*
X111726380Y-56402685D01*
X111739533Y-56005270D01*
X111755315Y-55737920D01*
X111773266Y-55616693D01*
X111781829Y-55613932D01*
X111875391Y-55676384D01*
X111875391Y-55676384D01*
G37*
X111875391Y-55676384D02*
X112072995Y-55704424D01*
X112403626Y-55701551D01*
X112479033Y-55698044D01*
X113103000Y-55666557D01*
X113103000Y-61044035D01*
X112460945Y-61044017D01*
X112145876Y-61037040D01*
X111900112Y-61018611D01*
X111769765Y-60992457D01*
X111762445Y-60987555D01*
X111751726Y-60912800D01*
X111991366Y-60912800D01*
X112068554Y-60924324D01*
X112279729Y-60930381D01*
X112383334Y-60930867D01*
X112637729Y-60927190D01*
X112764395Y-60917391D01*
X112745663Y-60903318D01*
X112700834Y-60897656D01*
X112382916Y-60883956D01*
X112065834Y-60897656D01*
X111991366Y-60912800D01*
X111751726Y-60912800D01*
X111748762Y-60892134D01*
X111736355Y-60647951D01*
X111725634Y-60275577D01*
X111717006Y-59795581D01*
X111710881Y-59228533D01*
X111707669Y-58595003D01*
X111707297Y-58214722D01*
X111709802Y-57523469D01*
X111716316Y-56914104D01*
X111726380Y-56402685D01*
X111739533Y-56005270D01*
X111755315Y-55737920D01*
X111773266Y-55616693D01*
X111781829Y-55613932D01*
X111875391Y-55676384D01*
G36*
X117270133Y-55486139D02*
X117455772Y-55503751D01*
X117512724Y-55529633D01*
X117561481Y-55569671D01*
X117724569Y-55592009D01*
X117728717Y-55592170D01*
X117955825Y-55651761D01*
X118107673Y-55761503D01*
X118184680Y-55837808D01*
X118182828Y-55794666D01*
X118190704Y-55760985D01*
X118281510Y-55843013D01*
X118303550Y-55867546D01*
X118423045Y-55986770D01*
X118478798Y-56009589D01*
X118479334Y-56005346D01*
X118531410Y-55998382D01*
X118605401Y-56047892D01*
X118691586Y-56163239D01*
X118690554Y-56218721D01*
X118716550Y-56301602D01*
X118764015Y-56328813D01*
X118854377Y-56429306D01*
X118958568Y-56637285D01*
X119012960Y-56784127D01*
X119059721Y-56963578D01*
X119095246Y-57194423D01*
X119120944Y-57500123D01*
X119138223Y-57904137D01*
X119148492Y-58429926D01*
X119153161Y-59100951D01*
X119153218Y-59119775D01*
X119158905Y-61044000D01*
X117809673Y-61044000D01*
X117785322Y-60914195D01*
X118059255Y-60914195D01*
X118150276Y-60925948D01*
X118370730Y-60931404D01*
X118437000Y-60931550D01*
X118677286Y-60927318D01*
X118785808Y-60916696D01*
X118745894Y-60901760D01*
X118710278Y-60897543D01*
X118411284Y-60883996D01*
X118127345Y-60897059D01*
X118117612Y-60898226D01*
X118059255Y-60914195D01*
X117785322Y-60914195D01*
X117755937Y-60757560D01*
X117740009Y-60580693D01*
X117729257Y-60268346D01*
X117724145Y-59854307D01*
X117725141Y-59372363D01*
X117730934Y-58945303D01*
X117737016Y-58407157D01*
X117733610Y-57974431D01*
X117721289Y-57664396D01*
X117700630Y-57494324D01*
X117681779Y-57467632D01*
X117641127Y-57447067D01*
X117657955Y-57374889D01*
X117670762Y-57257374D01*
X117640281Y-57234000D01*
X117584077Y-57184611D01*
X118994018Y-57184611D01*
X119009584Y-57294425D01*
X119038486Y-57295736D01*
X119058698Y-57182419D01*
X119045170Y-57133458D01*
X119007576Y-57101388D01*
X118994018Y-57184611D01*
X117584077Y-57184611D01*
X117561000Y-57164333D01*
X117470190Y-56996544D01*
X117469179Y-56994111D01*
X117395822Y-56852499D01*
X117293664Y-56770017D01*
X117120735Y-56731871D01*
X116835065Y-56723271D01*
X116704059Y-56724459D01*
X116289642Y-56800341D01*
X115946167Y-57000554D01*
X115710056Y-57301255D01*
X115667046Y-57403333D01*
X115623405Y-57626660D01*
X115590879Y-58010261D01*
X115569953Y-58545410D01*
X115561114Y-59223383D01*
X115560898Y-59308333D01*
X115555593Y-59882871D01*
X115542287Y-60355327D01*
X115521926Y-60707561D01*
X115495456Y-60921433D01*
X115473667Y-60979203D01*
X115367680Y-61003850D01*
X115154699Y-61024538D01*
X114885942Y-61039448D01*
X114612625Y-61046761D01*
X114385965Y-61044661D01*
X114257179Y-61031329D01*
X114244547Y-61022833D01*
X114243606Y-60936230D01*
X114243420Y-60914195D01*
X114503255Y-60914195D01*
X114594276Y-60925948D01*
X114814730Y-60931404D01*
X114881000Y-60931550D01*
X115121286Y-60927318D01*
X115229808Y-60916696D01*
X115189894Y-60901760D01*
X115154278Y-60897543D01*
X114855284Y-60883996D01*
X114571345Y-60897059D01*
X114561612Y-60898226D01*
X114503255Y-60914195D01*
X114243420Y-60914195D01*
X114241614Y-60700481D01*
X114238726Y-60335767D01*
X114235099Y-59862271D01*
X114230886Y-59300174D01*
X114226245Y-58669659D01*
X114223381Y-58275370D01*
X114220030Y-57481548D01*
X114222251Y-56818658D01*
X114229870Y-56294322D01*
X114242711Y-55916164D01*
X114260599Y-55691804D01*
X114283359Y-55628866D01*
X114284100Y-55629536D01*
X114414604Y-55678779D01*
X114642247Y-55704128D01*
X114905070Y-55705922D01*
X115141112Y-55684499D01*
X115288413Y-55640199D01*
X115305187Y-55623952D01*
X115392460Y-55560826D01*
X115463620Y-55628083D01*
X115494549Y-55786962D01*
X115483647Y-55910768D01*
X115460640Y-56072130D01*
X115484587Y-56083659D01*
X115521658Y-56027499D01*
X115648653Y-55904565D01*
X115731874Y-55879333D01*
X115841819Y-55832258D01*
X115854667Y-55794666D01*
X115925356Y-55725194D01*
X116019003Y-55710000D01*
X116181541Y-55670452D01*
X116236520Y-55623952D01*
X116337989Y-55575110D01*
X116368517Y-55586615D01*
X116442598Y-55583247D01*
X116447334Y-55560787D01*
X116524565Y-55522084D01*
X116726596Y-55493394D01*
X116996401Y-55481257D01*
X117270133Y-55486139D01*
X117270133Y-55486139D01*
G37*
X117270133Y-55486139D02*
X117455772Y-55503751D01*
X117512724Y-55529633D01*
X117561481Y-55569671D01*
X117724569Y-55592009D01*
X117728717Y-55592170D01*
X117955825Y-55651761D01*
X118107673Y-55761503D01*
X118184680Y-55837808D01*
X118182828Y-55794666D01*
X118190704Y-55760985D01*
X118281510Y-55843013D01*
X118303550Y-55867546D01*
X118423045Y-55986770D01*
X118478798Y-56009589D01*
X118479334Y-56005346D01*
X118531410Y-55998382D01*
X118605401Y-56047892D01*
X118691586Y-56163239D01*
X118690554Y-56218721D01*
X118716550Y-56301602D01*
X118764015Y-56328813D01*
X118854377Y-56429306D01*
X118958568Y-56637285D01*
X119012960Y-56784127D01*
X119059721Y-56963578D01*
X119095246Y-57194423D01*
X119120944Y-57500123D01*
X119138223Y-57904137D01*
X119148492Y-58429926D01*
X119153161Y-59100951D01*
X119153218Y-59119775D01*
X119158905Y-61044000D01*
X117809673Y-61044000D01*
X117785322Y-60914195D01*
X118059255Y-60914195D01*
X118150276Y-60925948D01*
X118370730Y-60931404D01*
X118437000Y-60931550D01*
X118677286Y-60927318D01*
X118785808Y-60916696D01*
X118745894Y-60901760D01*
X118710278Y-60897543D01*
X118411284Y-60883996D01*
X118127345Y-60897059D01*
X118117612Y-60898226D01*
X118059255Y-60914195D01*
X117785322Y-60914195D01*
X117755937Y-60757560D01*
X117740009Y-60580693D01*
X117729257Y-60268346D01*
X117724145Y-59854307D01*
X117725141Y-59372363D01*
X117730934Y-58945303D01*
X117737016Y-58407157D01*
X117733610Y-57974431D01*
X117721289Y-57664396D01*
X117700630Y-57494324D01*
X117681779Y-57467632D01*
X117641127Y-57447067D01*
X117657955Y-57374889D01*
X117670762Y-57257374D01*
X117640281Y-57234000D01*
X117584077Y-57184611D01*
X118994018Y-57184611D01*
X119009584Y-57294425D01*
X119038486Y-57295736D01*
X119058698Y-57182419D01*
X119045170Y-57133458D01*
X119007576Y-57101388D01*
X118994018Y-57184611D01*
X117584077Y-57184611D01*
X117561000Y-57164333D01*
X117470190Y-56996544D01*
X117469179Y-56994111D01*
X117395822Y-56852499D01*
X117293664Y-56770017D01*
X117120735Y-56731871D01*
X116835065Y-56723271D01*
X116704059Y-56724459D01*
X116289642Y-56800341D01*
X115946167Y-57000554D01*
X115710056Y-57301255D01*
X115667046Y-57403333D01*
X115623405Y-57626660D01*
X115590879Y-58010261D01*
X115569953Y-58545410D01*
X115561114Y-59223383D01*
X115560898Y-59308333D01*
X115555593Y-59882871D01*
X115542287Y-60355327D01*
X115521926Y-60707561D01*
X115495456Y-60921433D01*
X115473667Y-60979203D01*
X115367680Y-61003850D01*
X115154699Y-61024538D01*
X114885942Y-61039448D01*
X114612625Y-61046761D01*
X114385965Y-61044661D01*
X114257179Y-61031329D01*
X114244547Y-61022833D01*
X114243606Y-60936230D01*
X114243420Y-60914195D01*
X114503255Y-60914195D01*
X114594276Y-60925948D01*
X114814730Y-60931404D01*
X114881000Y-60931550D01*
X115121286Y-60927318D01*
X115229808Y-60916696D01*
X115189894Y-60901760D01*
X115154278Y-60897543D01*
X114855284Y-60883996D01*
X114571345Y-60897059D01*
X114561612Y-60898226D01*
X114503255Y-60914195D01*
X114243420Y-60914195D01*
X114241614Y-60700481D01*
X114238726Y-60335767D01*
X114235099Y-59862271D01*
X114230886Y-59300174D01*
X114226245Y-58669659D01*
X114223381Y-58275370D01*
X114220030Y-57481548D01*
X114222251Y-56818658D01*
X114229870Y-56294322D01*
X114242711Y-55916164D01*
X114260599Y-55691804D01*
X114283359Y-55628866D01*
X114284100Y-55629536D01*
X114414604Y-55678779D01*
X114642247Y-55704128D01*
X114905070Y-55705922D01*
X115141112Y-55684499D01*
X115288413Y-55640199D01*
X115305187Y-55623952D01*
X115392460Y-55560826D01*
X115463620Y-55628083D01*
X115494549Y-55786962D01*
X115483647Y-55910768D01*
X115460640Y-56072130D01*
X115484587Y-56083659D01*
X115521658Y-56027499D01*
X115648653Y-55904565D01*
X115731874Y-55879333D01*
X115841819Y-55832258D01*
X115854667Y-55794666D01*
X115925356Y-55725194D01*
X116019003Y-55710000D01*
X116181541Y-55670452D01*
X116236520Y-55623952D01*
X116337989Y-55575110D01*
X116368517Y-55586615D01*
X116442598Y-55583247D01*
X116447334Y-55560787D01*
X116524565Y-55522084D01*
X116726596Y-55493394D01*
X116996401Y-55481257D01*
X117270133Y-55486139D01*
G36*
X121765292Y-60387833D02*
X121767222Y-61044000D01*
X120342000Y-61044000D01*
X120342000Y-60914195D01*
X120683922Y-60914195D01*
X120774942Y-60925948D01*
X120995397Y-60931404D01*
X121061667Y-60931550D01*
X121301953Y-60927318D01*
X121410475Y-60916696D01*
X121370561Y-60901760D01*
X121334945Y-60897543D01*
X121035951Y-60883996D01*
X120752012Y-60897059D01*
X120742278Y-60898226D01*
X120683922Y-60914195D01*
X120342000Y-60914195D01*
X120342000Y-59731666D01*
X121763363Y-59731666D01*
X121765292Y-60387833D01*
X121765292Y-60387833D01*
G37*
X121765292Y-60387833D02*
X121767222Y-61044000D01*
X120342000Y-61044000D01*
X120342000Y-60914195D01*
X120683922Y-60914195D01*
X120774942Y-60925948D01*
X120995397Y-60931404D01*
X121061667Y-60931550D01*
X121301953Y-60927318D01*
X121410475Y-60916696D01*
X121370561Y-60901760D01*
X121334945Y-60897543D01*
X121035951Y-60883996D01*
X120752012Y-60897059D01*
X120742278Y-60898226D01*
X120683922Y-60914195D01*
X120342000Y-60914195D01*
X120342000Y-59731666D01*
X121763363Y-59731666D01*
X121765292Y-60387833D01*
G36*
X123066145Y-55606277D02*
X123213247Y-55666709D01*
X123466369Y-55700432D01*
X123764483Y-55707343D01*
X124046561Y-55687336D01*
X124251577Y-55640308D01*
X124304400Y-55608400D01*
X124333298Y-55615118D01*
X124356567Y-55707676D01*
X124374700Y-55899041D01*
X124388192Y-56202182D01*
X124397537Y-56630068D01*
X124403228Y-57195668D01*
X124405760Y-57911950D01*
X124406000Y-58275400D01*
X124406000Y-61044000D01*
X123742778Y-61044000D01*
X123423175Y-61037782D01*
X123173176Y-61021304D01*
X123037619Y-60997829D01*
X123027507Y-60991951D01*
X123016921Y-60914195D01*
X123308589Y-60914195D01*
X123399609Y-60925948D01*
X123620063Y-60931404D01*
X123686334Y-60931550D01*
X123926620Y-60927318D01*
X124035141Y-60916696D01*
X123995228Y-60901760D01*
X123959612Y-60897543D01*
X123660617Y-60883996D01*
X123376678Y-60897059D01*
X123366945Y-60898226D01*
X123308589Y-60914195D01*
X123016921Y-60914195D01*
X123014666Y-60897632D01*
X123002574Y-60654498D01*
X122991665Y-60283065D01*
X122982373Y-59803852D01*
X122975131Y-59237374D01*
X122970374Y-58604151D01*
X122968940Y-58221229D01*
X122968333Y-57447271D01*
X122970954Y-56829047D01*
X122977307Y-56352977D01*
X122987898Y-56005484D01*
X123003232Y-55772990D01*
X123023812Y-55641916D01*
X123050144Y-55598684D01*
X123066145Y-55606277D01*
X123066145Y-55606277D01*
G37*
X123066145Y-55606277D02*
X123213247Y-55666709D01*
X123466369Y-55700432D01*
X123764483Y-55707343D01*
X124046561Y-55687336D01*
X124251577Y-55640308D01*
X124304400Y-55608400D01*
X124333298Y-55615118D01*
X124356567Y-55707676D01*
X124374700Y-55899041D01*
X124388192Y-56202182D01*
X124397537Y-56630068D01*
X124403228Y-57195668D01*
X124405760Y-57911950D01*
X124406000Y-58275400D01*
X124406000Y-61044000D01*
X123742778Y-61044000D01*
X123423175Y-61037782D01*
X123173176Y-61021304D01*
X123037619Y-60997829D01*
X123027507Y-60991951D01*
X123016921Y-60914195D01*
X123308589Y-60914195D01*
X123399609Y-60925948D01*
X123620063Y-60931404D01*
X123686334Y-60931550D01*
X123926620Y-60927318D01*
X124035141Y-60916696D01*
X123995228Y-60901760D01*
X123959612Y-60897543D01*
X123660617Y-60883996D01*
X123376678Y-60897059D01*
X123366945Y-60898226D01*
X123308589Y-60914195D01*
X123016921Y-60914195D01*
X123014666Y-60897632D01*
X123002574Y-60654498D01*
X122991665Y-60283065D01*
X122982373Y-59803852D01*
X122975131Y-59237374D01*
X122970374Y-58604151D01*
X122968940Y-58221229D01*
X122968333Y-57447271D01*
X122970954Y-56829047D01*
X122977307Y-56352977D01*
X122987898Y-56005484D01*
X123003232Y-55772990D01*
X123023812Y-55641916D01*
X123050144Y-55598684D01*
X123066145Y-55606277D01*
G36*
X128603855Y-55515831D02*
X129076423Y-55609363D01*
X129422500Y-55731234D01*
X129675091Y-55860198D01*
X129851073Y-55974992D01*
X129909334Y-56043982D01*
X129978179Y-56122372D01*
X130041330Y-56133333D01*
X130127189Y-56176886D01*
X130117478Y-56223698D01*
X130139258Y-56312922D01*
X130228793Y-56357778D01*
X130418057Y-56474740D01*
X130611273Y-56698451D01*
X130763880Y-56973425D01*
X130797841Y-57066304D01*
X130881556Y-57248568D01*
X130956661Y-57335972D01*
X130998702Y-57438107D01*
X131032145Y-57655986D01*
X131055590Y-57944905D01*
X131067639Y-58260162D01*
X131066892Y-58557055D01*
X131051950Y-58790882D01*
X131021415Y-58916941D01*
X131006472Y-58927333D01*
X130962506Y-58988442D01*
X130973780Y-59039732D01*
X130972451Y-59236853D01*
X130869309Y-59489423D01*
X130688462Y-59739678D01*
X130676166Y-59752833D01*
X130570531Y-59883036D01*
X130557297Y-59942900D01*
X130561337Y-59943333D01*
X130551880Y-59991669D01*
X130443145Y-60110482D01*
X130416468Y-60135273D01*
X130067253Y-60433652D01*
X129811472Y-60608755D01*
X129654890Y-60656808D01*
X129632300Y-60648764D01*
X129584180Y-60649307D01*
X129599432Y-60683379D01*
X129586398Y-60775547D01*
X129474316Y-60837135D01*
X129333470Y-60836612D01*
X129295945Y-60819526D01*
X129246248Y-60817251D01*
X129266249Y-60861584D01*
X129287925Y-60905024D01*
X129273838Y-60936052D01*
X129199352Y-60957881D01*
X129039829Y-60973726D01*
X128770630Y-60986801D01*
X128367121Y-61000320D01*
X128152500Y-61006878D01*
X127812054Y-61009676D01*
X127546383Y-60997516D01*
X127392682Y-60972844D01*
X127369334Y-60955318D01*
X127307005Y-60914468D01*
X127242334Y-60928715D01*
X127133597Y-60924990D01*
X127115334Y-60883725D01*
X127043499Y-60811158D01*
X126920614Y-60790000D01*
X126753846Y-60750992D01*
X126538140Y-60653069D01*
X126320197Y-60524878D01*
X126146713Y-60395068D01*
X126064386Y-60292288D01*
X126066777Y-60266181D01*
X126040129Y-60205592D01*
X125987602Y-60197333D01*
X125875146Y-60126516D01*
X125765465Y-59954214D01*
X125757680Y-59936122D01*
X125654926Y-59724203D01*
X125558110Y-59577580D01*
X125556908Y-59576288D01*
X125467291Y-59443695D01*
X125353811Y-59232091D01*
X125247490Y-59005496D01*
X125179347Y-58827932D01*
X125169297Y-58776294D01*
X125206232Y-58781758D01*
X125252667Y-58842666D01*
X125320139Y-58907437D01*
X125336037Y-58877944D01*
X125285372Y-58735738D01*
X125274184Y-58723073D01*
X125238851Y-58614695D01*
X125213880Y-58405944D01*
X125208230Y-58296188D01*
X126463481Y-58296188D01*
X126500427Y-58304845D01*
X126527434Y-58289387D01*
X126590983Y-58284536D01*
X126600793Y-58400803D01*
X126580614Y-58554336D01*
X126558921Y-58751629D01*
X126583600Y-58789548D01*
X126608437Y-58758000D01*
X126656434Y-58689102D01*
X126684465Y-58696033D01*
X126703585Y-58809062D01*
X126724849Y-59058457D01*
X126726704Y-59081814D01*
X126800843Y-59212459D01*
X126884922Y-59277518D01*
X126986882Y-59375361D01*
X126988885Y-59434441D01*
X127019458Y-59513524D01*
X127114104Y-59561943D01*
X127251645Y-59640052D01*
X127284667Y-59700035D01*
X127336875Y-59745276D01*
X127369334Y-59731666D01*
X127447419Y-59736872D01*
X127454000Y-59766345D01*
X127515155Y-59818960D01*
X127572436Y-59807904D01*
X127702067Y-59805627D01*
X127733684Y-59831727D01*
X127836993Y-59873437D01*
X128047938Y-59898120D01*
X128158526Y-59901000D01*
X128377492Y-59894208D01*
X128497392Y-59876986D01*
X128505653Y-59866097D01*
X128553150Y-59814598D01*
X128713550Y-59724732D01*
X128812497Y-59678189D01*
X129047964Y-59559170D01*
X129175152Y-59477666D01*
X130756000Y-59477666D01*
X130798334Y-59520000D01*
X130840667Y-59477666D01*
X130798334Y-59435333D01*
X130756000Y-59477666D01*
X129175152Y-59477666D01*
X129224154Y-59446265D01*
X129257719Y-59416759D01*
X129534698Y-59019078D01*
X129684526Y-58563976D01*
X129699447Y-58095957D01*
X129571707Y-57659522D01*
X129565935Y-57648057D01*
X129480722Y-57440324D01*
X129459031Y-57296114D01*
X129468461Y-57273242D01*
X129467693Y-57246093D01*
X129422860Y-57267533D01*
X129310485Y-57248230D01*
X129219980Y-57114429D01*
X129129540Y-56972788D01*
X129057112Y-56941099D01*
X128949070Y-56925929D01*
X128876977Y-56874944D01*
X128747078Y-56781599D01*
X128579302Y-56731427D01*
X128325980Y-56715439D01*
X128056997Y-56720274D01*
X127754846Y-56752922D01*
X127535798Y-56819744D01*
X127479449Y-56857789D01*
X127353994Y-56958389D01*
X127299786Y-56980103D01*
X127197232Y-57031294D01*
X127041088Y-57153590D01*
X126882839Y-57300386D01*
X126773966Y-57425082D01*
X126754488Y-57473705D01*
X126752389Y-57605521D01*
X126693987Y-57734842D01*
X126616473Y-57786576D01*
X126602208Y-57781165D01*
X126558988Y-57799099D01*
X126572490Y-57857986D01*
X126572511Y-58024679D01*
X126520739Y-58168934D01*
X126463481Y-58296188D01*
X125208230Y-58296188D01*
X125200773Y-58151347D01*
X125201031Y-57905432D01*
X125211056Y-57784333D01*
X125252667Y-57784333D01*
X125295000Y-57826666D01*
X125337334Y-57784333D01*
X125295000Y-57742000D01*
X125252667Y-57784333D01*
X125211056Y-57784333D01*
X125216156Y-57722727D01*
X125244844Y-57657333D01*
X125295026Y-57585522D01*
X125315075Y-57474451D01*
X125373088Y-57295415D01*
X125438925Y-57221747D01*
X125501803Y-57161043D01*
X125484299Y-57150629D01*
X125482541Y-57092020D01*
X125556075Y-56949633D01*
X125672806Y-56770617D01*
X125800639Y-56602123D01*
X125907479Y-56491297D01*
X125946248Y-56471999D01*
X125986293Y-56419463D01*
X125972334Y-56387333D01*
X125987393Y-56311602D01*
X126031637Y-56302666D01*
X126162445Y-56237921D01*
X126240758Y-56146559D01*
X126347287Y-56044438D01*
X126532844Y-55915556D01*
X126742230Y-55792596D01*
X126920248Y-55708239D01*
X127007963Y-55692305D01*
X127090508Y-55670166D01*
X127268022Y-55602341D01*
X127304297Y-55587390D01*
X127659747Y-55500903D01*
X128112282Y-55478364D01*
X128603855Y-55515831D01*
X128603855Y-55515831D01*
G37*
X128603855Y-55515831D02*
X129076423Y-55609363D01*
X129422500Y-55731234D01*
X129675091Y-55860198D01*
X129851073Y-55974992D01*
X129909334Y-56043982D01*
X129978179Y-56122372D01*
X130041330Y-56133333D01*
X130127189Y-56176886D01*
X130117478Y-56223698D01*
X130139258Y-56312922D01*
X130228793Y-56357778D01*
X130418057Y-56474740D01*
X130611273Y-56698451D01*
X130763880Y-56973425D01*
X130797841Y-57066304D01*
X130881556Y-57248568D01*
X130956661Y-57335972D01*
X130998702Y-57438107D01*
X131032145Y-57655986D01*
X131055590Y-57944905D01*
X131067639Y-58260162D01*
X131066892Y-58557055D01*
X131051950Y-58790882D01*
X131021415Y-58916941D01*
X131006472Y-58927333D01*
X130962506Y-58988442D01*
X130973780Y-59039732D01*
X130972451Y-59236853D01*
X130869309Y-59489423D01*
X130688462Y-59739678D01*
X130676166Y-59752833D01*
X130570531Y-59883036D01*
X130557297Y-59942900D01*
X130561337Y-59943333D01*
X130551880Y-59991669D01*
X130443145Y-60110482D01*
X130416468Y-60135273D01*
X130067253Y-60433652D01*
X129811472Y-60608755D01*
X129654890Y-60656808D01*
X129632300Y-60648764D01*
X129584180Y-60649307D01*
X129599432Y-60683379D01*
X129586398Y-60775547D01*
X129474316Y-60837135D01*
X129333470Y-60836612D01*
X129295945Y-60819526D01*
X129246248Y-60817251D01*
X129266249Y-60861584D01*
X129287925Y-60905024D01*
X129273838Y-60936052D01*
X129199352Y-60957881D01*
X129039829Y-60973726D01*
X128770630Y-60986801D01*
X128367121Y-61000320D01*
X128152500Y-61006878D01*
X127812054Y-61009676D01*
X127546383Y-60997516D01*
X127392682Y-60972844D01*
X127369334Y-60955318D01*
X127307005Y-60914468D01*
X127242334Y-60928715D01*
X127133597Y-60924990D01*
X127115334Y-60883725D01*
X127043499Y-60811158D01*
X126920614Y-60790000D01*
X126753846Y-60750992D01*
X126538140Y-60653069D01*
X126320197Y-60524878D01*
X126146713Y-60395068D01*
X126064386Y-60292288D01*
X126066777Y-60266181D01*
X126040129Y-60205592D01*
X125987602Y-60197333D01*
X125875146Y-60126516D01*
X125765465Y-59954214D01*
X125757680Y-59936122D01*
X125654926Y-59724203D01*
X125558110Y-59577580D01*
X125556908Y-59576288D01*
X125467291Y-59443695D01*
X125353811Y-59232091D01*
X125247490Y-59005496D01*
X125179347Y-58827932D01*
X125169297Y-58776294D01*
X125206232Y-58781758D01*
X125252667Y-58842666D01*
X125320139Y-58907437D01*
X125336037Y-58877944D01*
X125285372Y-58735738D01*
X125274184Y-58723073D01*
X125238851Y-58614695D01*
X125213880Y-58405944D01*
X125208230Y-58296188D01*
X126463481Y-58296188D01*
X126500427Y-58304845D01*
X126527434Y-58289387D01*
X126590983Y-58284536D01*
X126600793Y-58400803D01*
X126580614Y-58554336D01*
X126558921Y-58751629D01*
X126583600Y-58789548D01*
X126608437Y-58758000D01*
X126656434Y-58689102D01*
X126684465Y-58696033D01*
X126703585Y-58809062D01*
X126724849Y-59058457D01*
X126726704Y-59081814D01*
X126800843Y-59212459D01*
X126884922Y-59277518D01*
X126986882Y-59375361D01*
X126988885Y-59434441D01*
X127019458Y-59513524D01*
X127114104Y-59561943D01*
X127251645Y-59640052D01*
X127284667Y-59700035D01*
X127336875Y-59745276D01*
X127369334Y-59731666D01*
X127447419Y-59736872D01*
X127454000Y-59766345D01*
X127515155Y-59818960D01*
X127572436Y-59807904D01*
X127702067Y-59805627D01*
X127733684Y-59831727D01*
X127836993Y-59873437D01*
X128047938Y-59898120D01*
X128158526Y-59901000D01*
X128377492Y-59894208D01*
X128497392Y-59876986D01*
X128505653Y-59866097D01*
X128553150Y-59814598D01*
X128713550Y-59724732D01*
X128812497Y-59678189D01*
X129047964Y-59559170D01*
X129175152Y-59477666D01*
X130756000Y-59477666D01*
X130798334Y-59520000D01*
X130840667Y-59477666D01*
X130798334Y-59435333D01*
X130756000Y-59477666D01*
X129175152Y-59477666D01*
X129224154Y-59446265D01*
X129257719Y-59416759D01*
X129534698Y-59019078D01*
X129684526Y-58563976D01*
X129699447Y-58095957D01*
X129571707Y-57659522D01*
X129565935Y-57648057D01*
X129480722Y-57440324D01*
X129459031Y-57296114D01*
X129468461Y-57273242D01*
X129467693Y-57246093D01*
X129422860Y-57267533D01*
X129310485Y-57248230D01*
X129219980Y-57114429D01*
X129129540Y-56972788D01*
X129057112Y-56941099D01*
X128949070Y-56925929D01*
X128876977Y-56874944D01*
X128747078Y-56781599D01*
X128579302Y-56731427D01*
X128325980Y-56715439D01*
X128056997Y-56720274D01*
X127754846Y-56752922D01*
X127535798Y-56819744D01*
X127479449Y-56857789D01*
X127353994Y-56958389D01*
X127299786Y-56980103D01*
X127197232Y-57031294D01*
X127041088Y-57153590D01*
X126882839Y-57300386D01*
X126773966Y-57425082D01*
X126754488Y-57473705D01*
X126752389Y-57605521D01*
X126693987Y-57734842D01*
X126616473Y-57786576D01*
X126602208Y-57781165D01*
X126558988Y-57799099D01*
X126572490Y-57857986D01*
X126572511Y-58024679D01*
X126520739Y-58168934D01*
X126463481Y-58296188D01*
X125208230Y-58296188D01*
X125200773Y-58151347D01*
X125201031Y-57905432D01*
X125211056Y-57784333D01*
X125252667Y-57784333D01*
X125295000Y-57826666D01*
X125337334Y-57784333D01*
X125295000Y-57742000D01*
X125252667Y-57784333D01*
X125211056Y-57784333D01*
X125216156Y-57722727D01*
X125244844Y-57657333D01*
X125295026Y-57585522D01*
X125315075Y-57474451D01*
X125373088Y-57295415D01*
X125438925Y-57221747D01*
X125501803Y-57161043D01*
X125484299Y-57150629D01*
X125482541Y-57092020D01*
X125556075Y-56949633D01*
X125672806Y-56770617D01*
X125800639Y-56602123D01*
X125907479Y-56491297D01*
X125946248Y-56471999D01*
X125986293Y-56419463D01*
X125972334Y-56387333D01*
X125987393Y-56311602D01*
X126031637Y-56302666D01*
X126162445Y-56237921D01*
X126240758Y-56146559D01*
X126347287Y-56044438D01*
X126532844Y-55915556D01*
X126742230Y-55792596D01*
X126920248Y-55708239D01*
X127007963Y-55692305D01*
X127090508Y-55670166D01*
X127268022Y-55602341D01*
X127304297Y-55587390D01*
X127659747Y-55500903D01*
X128112282Y-55478364D01*
X128603855Y-55515831D01*
G36*
X106541334Y-58800333D02*
X106499000Y-58842666D01*
X106456667Y-58800333D01*
X106499000Y-58758000D01*
X106541334Y-58800333D01*
X106541334Y-58800333D01*
G37*
X106541334Y-58800333D02*
X106499000Y-58842666D01*
X106456667Y-58800333D01*
X106499000Y-58758000D01*
X106541334Y-58800333D01*
G36*
X99344667Y-57784333D02*
X99302334Y-57826666D01*
X99260000Y-57784333D01*
X99302334Y-57742000D01*
X99344667Y-57784333D01*
X99344667Y-57784333D01*
G37*
X99344667Y-57784333D02*
X99302334Y-57826666D01*
X99260000Y-57784333D01*
X99302334Y-57742000D01*
X99344667Y-57784333D01*
G36*
X107218667Y-57022333D02*
X107176334Y-57064666D01*
X107134000Y-57022333D01*
X107176334Y-56980000D01*
X107218667Y-57022333D01*
X107218667Y-57022333D01*
G37*
X107218667Y-57022333D02*
X107176334Y-57064666D01*
X107134000Y-57022333D01*
X107176334Y-56980000D01*
X107218667Y-57022333D01*
G36*
X109504667Y-55498333D02*
X109462334Y-55540666D01*
X109420000Y-55498333D01*
X109462334Y-55456000D01*
X109504667Y-55498333D01*
X109504667Y-55498333D01*
G37*
X109504667Y-55498333D02*
X109462334Y-55540666D01*
X109420000Y-55498333D01*
X109462334Y-55456000D01*
X109504667Y-55498333D01*
G36*
X126861334Y-59139000D02*
X126819000Y-59181333D01*
X126776667Y-59139000D01*
X126819000Y-59096666D01*
X126861334Y-59139000D01*
X126861334Y-59139000D01*
G37*
X126861334Y-59139000D02*
X126819000Y-59181333D01*
X126776667Y-59139000D01*
X126819000Y-59096666D01*
X126861334Y-59139000D01*
D11*
X85976190Y-79880952D02*
X86380952Y-79880952D01*
X86428571Y-79857142D01*
X86452380Y-79833333D01*
X86476190Y-79785714D01*
X86476190Y-79690476D01*
X86452380Y-79642857D01*
X86428571Y-79619047D01*
X86380952Y-79595238D01*
X85976190Y-79595238D01*
X86476190Y-79333333D02*
X86476190Y-79238095D01*
X86452380Y-79190476D01*
X86428571Y-79166666D01*
X86357142Y-79119047D01*
X86261904Y-79095238D01*
X86071428Y-79095238D01*
X86023809Y-79119047D01*
X86000000Y-79142857D01*
X85976190Y-79190476D01*
X85976190Y-79285714D01*
X86000000Y-79333333D01*
X86023809Y-79357142D01*
X86071428Y-79380952D01*
X86190476Y-79380952D01*
X86238095Y-79357142D01*
X86261904Y-79333333D01*
X86285714Y-79285714D01*
X86285714Y-79190476D01*
X86261904Y-79142857D01*
X86238095Y-79119047D01*
X86190476Y-79095238D01*
X121416666Y-90428571D02*
X121392857Y-90452380D01*
X121321428Y-90476190D01*
X121273809Y-90476190D01*
X121202380Y-90452380D01*
X121154761Y-90404761D01*
X121130952Y-90357142D01*
X121107142Y-90261904D01*
X121107142Y-90190476D01*
X121130952Y-90095238D01*
X121154761Y-90047619D01*
X121202380Y-90000000D01*
X121273809Y-89976190D01*
X121321428Y-89976190D01*
X121392857Y-90000000D01*
X121416666Y-90023809D01*
X121583333Y-89976190D02*
X121916666Y-89976190D01*
X121702380Y-90476190D01*
X86416666Y-73428571D02*
X86392857Y-73452380D01*
X86321428Y-73476190D01*
X86273809Y-73476190D01*
X86202380Y-73452380D01*
X86154761Y-73404761D01*
X86130952Y-73357142D01*
X86107142Y-73261904D01*
X86107142Y-73190476D01*
X86130952Y-73095238D01*
X86154761Y-73047619D01*
X86202380Y-73000000D01*
X86273809Y-72976190D01*
X86321428Y-72976190D01*
X86392857Y-73000000D01*
X86416666Y-73023809D01*
X86702380Y-73190476D02*
X86654761Y-73166666D01*
X86630952Y-73142857D01*
X86607142Y-73095238D01*
X86607142Y-73071428D01*
X86630952Y-73023809D01*
X86654761Y-73000000D01*
X86702380Y-72976190D01*
X86797619Y-72976190D01*
X86845238Y-73000000D01*
X86869047Y-73023809D01*
X86892857Y-73071428D01*
X86892857Y-73095238D01*
X86869047Y-73142857D01*
X86845238Y-73166666D01*
X86797619Y-73190476D01*
X86702380Y-73190476D01*
X86654761Y-73214285D01*
X86630952Y-73238095D01*
X86607142Y-73285714D01*
X86607142Y-73380952D01*
X86630952Y-73428571D01*
X86654761Y-73452380D01*
X86702380Y-73476190D01*
X86797619Y-73476190D01*
X86845238Y-73452380D01*
X86869047Y-73428571D01*
X86892857Y-73380952D01*
X86892857Y-73285714D01*
X86869047Y-73238095D01*
X86845238Y-73214285D01*
X86797619Y-73190476D01*
X110666666Y-93928571D02*
X110642857Y-93952380D01*
X110571428Y-93976190D01*
X110523809Y-93976190D01*
X110452380Y-93952380D01*
X110404761Y-93904761D01*
X110380952Y-93857142D01*
X110357142Y-93761904D01*
X110357142Y-93690476D01*
X110380952Y-93595238D01*
X110404761Y-93547619D01*
X110452380Y-93500000D01*
X110523809Y-93476190D01*
X110571428Y-93476190D01*
X110642857Y-93500000D01*
X110666666Y-93523809D01*
X110904761Y-93976190D02*
X111000000Y-93976190D01*
X111047619Y-93952380D01*
X111071428Y-93928571D01*
X111119047Y-93857142D01*
X111142857Y-93761904D01*
X111142857Y-93571428D01*
X111119047Y-93523809D01*
X111095238Y-93500000D01*
X111047619Y-93476190D01*
X110952380Y-93476190D01*
X110904761Y-93500000D01*
X110880952Y-93523809D01*
X110857142Y-93571428D01*
X110857142Y-93690476D01*
X110880952Y-93738095D01*
X110904761Y-93761904D01*
X110952380Y-93785714D01*
X111047619Y-93785714D01*
X111095238Y-93761904D01*
X111119047Y-93738095D01*
X111142857Y-93690476D01*
X100178571Y-87071428D02*
X100202380Y-87095238D01*
X100226190Y-87166666D01*
X100226190Y-87214285D01*
X100202380Y-87285714D01*
X100154761Y-87333333D01*
X100107142Y-87357142D01*
X100011904Y-87380952D01*
X99940476Y-87380952D01*
X99845238Y-87357142D01*
X99797619Y-87333333D01*
X99750000Y-87285714D01*
X99726190Y-87214285D01*
X99726190Y-87166666D01*
X99750000Y-87095238D01*
X99773809Y-87071428D01*
X100226190Y-86595238D02*
X100226190Y-86880952D01*
X100226190Y-86738095D02*
X99726190Y-86738095D01*
X99797619Y-86785714D01*
X99845238Y-86833333D01*
X99869047Y-86880952D01*
X99726190Y-86285714D02*
X99726190Y-86238095D01*
X99750000Y-86190476D01*
X99773809Y-86166666D01*
X99821428Y-86142857D01*
X99916666Y-86119047D01*
X100035714Y-86119047D01*
X100130952Y-86142857D01*
X100178571Y-86166666D01*
X100202380Y-86190476D01*
X100226190Y-86238095D01*
X100226190Y-86285714D01*
X100202380Y-86333333D01*
X100178571Y-86357142D01*
X100130952Y-86380952D01*
X100035714Y-86404761D01*
X99916666Y-86404761D01*
X99821428Y-86380952D01*
X99773809Y-86357142D01*
X99750000Y-86333333D01*
X99726190Y-86285714D01*
X141678571Y-89321428D02*
X141702380Y-89345238D01*
X141726190Y-89416666D01*
X141726190Y-89464285D01*
X141702380Y-89535714D01*
X141654761Y-89583333D01*
X141607142Y-89607142D01*
X141511904Y-89630952D01*
X141440476Y-89630952D01*
X141345238Y-89607142D01*
X141297619Y-89583333D01*
X141250000Y-89535714D01*
X141226190Y-89464285D01*
X141226190Y-89416666D01*
X141250000Y-89345238D01*
X141273809Y-89321428D01*
X141726190Y-88845238D02*
X141726190Y-89130952D01*
X141726190Y-88988095D02*
X141226190Y-88988095D01*
X141297619Y-89035714D01*
X141345238Y-89083333D01*
X141369047Y-89130952D01*
X141726190Y-88369047D02*
X141726190Y-88654761D01*
X141726190Y-88511904D02*
X141226190Y-88511904D01*
X141297619Y-88559523D01*
X141345238Y-88607142D01*
X141369047Y-88654761D01*
X112178571Y-83821428D02*
X112202380Y-83845238D01*
X112226190Y-83916666D01*
X112226190Y-83964285D01*
X112202380Y-84035714D01*
X112154761Y-84083333D01*
X112107142Y-84107142D01*
X112011904Y-84130952D01*
X111940476Y-84130952D01*
X111845238Y-84107142D01*
X111797619Y-84083333D01*
X111750000Y-84035714D01*
X111726190Y-83964285D01*
X111726190Y-83916666D01*
X111750000Y-83845238D01*
X111773809Y-83821428D01*
X112226190Y-83345238D02*
X112226190Y-83630952D01*
X112226190Y-83488095D02*
X111726190Y-83488095D01*
X111797619Y-83535714D01*
X111845238Y-83583333D01*
X111869047Y-83630952D01*
X111773809Y-83154761D02*
X111750000Y-83130952D01*
X111726190Y-83083333D01*
X111726190Y-82964285D01*
X111750000Y-82916666D01*
X111773809Y-82892857D01*
X111821428Y-82869047D01*
X111869047Y-82869047D01*
X111940476Y-82892857D01*
X112226190Y-83178571D01*
X112226190Y-82869047D01*
X121928571Y-86678571D02*
X121904761Y-86702380D01*
X121833333Y-86726190D01*
X121785714Y-86726190D01*
X121714285Y-86702380D01*
X121666666Y-86654761D01*
X121642857Y-86607142D01*
X121619047Y-86511904D01*
X121619047Y-86440476D01*
X121642857Y-86345238D01*
X121666666Y-86297619D01*
X121714285Y-86250000D01*
X121785714Y-86226190D01*
X121833333Y-86226190D01*
X121904761Y-86250000D01*
X121928571Y-86273809D01*
X122404761Y-86726190D02*
X122119047Y-86726190D01*
X122261904Y-86726190D02*
X122261904Y-86226190D01*
X122214285Y-86297619D01*
X122166666Y-86345238D01*
X122119047Y-86369047D01*
X122571428Y-86226190D02*
X122880952Y-86226190D01*
X122714285Y-86416666D01*
X122785714Y-86416666D01*
X122833333Y-86440476D01*
X122857142Y-86464285D01*
X122880952Y-86511904D01*
X122880952Y-86630952D01*
X122857142Y-86678571D01*
X122833333Y-86702380D01*
X122785714Y-86726190D01*
X122642857Y-86726190D01*
X122595238Y-86702380D01*
X122571428Y-86678571D01*
X119928571Y-84428571D02*
X119904761Y-84452380D01*
X119833333Y-84476190D01*
X119785714Y-84476190D01*
X119714285Y-84452380D01*
X119666666Y-84404761D01*
X119642857Y-84357142D01*
X119619047Y-84261904D01*
X119619047Y-84190476D01*
X119642857Y-84095238D01*
X119666666Y-84047619D01*
X119714285Y-84000000D01*
X119785714Y-83976190D01*
X119833333Y-83976190D01*
X119904761Y-84000000D01*
X119928571Y-84023809D01*
X120404761Y-84476190D02*
X120119047Y-84476190D01*
X120261904Y-84476190D02*
X120261904Y-83976190D01*
X120214285Y-84047619D01*
X120166666Y-84095238D01*
X120119047Y-84119047D01*
X120833333Y-84142857D02*
X120833333Y-84476190D01*
X120714285Y-83952380D02*
X120595238Y-84309523D01*
X120904761Y-84309523D01*
X115928571Y-80178571D02*
X115904761Y-80202380D01*
X115833333Y-80226190D01*
X115785714Y-80226190D01*
X115714285Y-80202380D01*
X115666666Y-80154761D01*
X115642857Y-80107142D01*
X115619047Y-80011904D01*
X115619047Y-79940476D01*
X115642857Y-79845238D01*
X115666666Y-79797619D01*
X115714285Y-79750000D01*
X115785714Y-79726190D01*
X115833333Y-79726190D01*
X115904761Y-79750000D01*
X115928571Y-79773809D01*
X116404761Y-80226190D02*
X116119047Y-80226190D01*
X116261904Y-80226190D02*
X116261904Y-79726190D01*
X116214285Y-79797619D01*
X116166666Y-79845238D01*
X116119047Y-79869047D01*
X116857142Y-79726190D02*
X116619047Y-79726190D01*
X116595238Y-79964285D01*
X116619047Y-79940476D01*
X116666666Y-79916666D01*
X116785714Y-79916666D01*
X116833333Y-79940476D01*
X116857142Y-79964285D01*
X116880952Y-80011904D01*
X116880952Y-80130952D01*
X116857142Y-80178571D01*
X116833333Y-80202380D01*
X116785714Y-80226190D01*
X116666666Y-80226190D01*
X116619047Y-80202380D01*
X116595238Y-80178571D01*
X113428571Y-78928571D02*
X113404761Y-78952380D01*
X113333333Y-78976190D01*
X113285714Y-78976190D01*
X113214285Y-78952380D01*
X113166666Y-78904761D01*
X113142857Y-78857142D01*
X113119047Y-78761904D01*
X113119047Y-78690476D01*
X113142857Y-78595238D01*
X113166666Y-78547619D01*
X113214285Y-78500000D01*
X113285714Y-78476190D01*
X113333333Y-78476190D01*
X113404761Y-78500000D01*
X113428571Y-78523809D01*
X113904761Y-78976190D02*
X113619047Y-78976190D01*
X113761904Y-78976190D02*
X113761904Y-78476190D01*
X113714285Y-78547619D01*
X113666666Y-78595238D01*
X113619047Y-78619047D01*
X114071428Y-78476190D02*
X114404761Y-78476190D01*
X114190476Y-78976190D01*
X118178571Y-77071428D02*
X118202380Y-77095238D01*
X118226190Y-77166666D01*
X118226190Y-77214285D01*
X118202380Y-77285714D01*
X118154761Y-77333333D01*
X118107142Y-77357142D01*
X118011904Y-77380952D01*
X117940476Y-77380952D01*
X117845238Y-77357142D01*
X117797619Y-77333333D01*
X117750000Y-77285714D01*
X117726190Y-77214285D01*
X117726190Y-77166666D01*
X117750000Y-77095238D01*
X117773809Y-77071428D01*
X118226190Y-76595238D02*
X118226190Y-76880952D01*
X118226190Y-76738095D02*
X117726190Y-76738095D01*
X117797619Y-76785714D01*
X117845238Y-76833333D01*
X117869047Y-76880952D01*
X118226190Y-76357142D02*
X118226190Y-76261904D01*
X118202380Y-76214285D01*
X118178571Y-76190476D01*
X118107142Y-76142857D01*
X118011904Y-76119047D01*
X117821428Y-76119047D01*
X117773809Y-76142857D01*
X117750000Y-76166666D01*
X117726190Y-76214285D01*
X117726190Y-76309523D01*
X117750000Y-76357142D01*
X117773809Y-76380952D01*
X117821428Y-76404761D01*
X117940476Y-76404761D01*
X117988095Y-76380952D01*
X118011904Y-76357142D01*
X118035714Y-76309523D01*
X118035714Y-76214285D01*
X118011904Y-76166666D01*
X117988095Y-76142857D01*
X117940476Y-76119047D01*
X117428571Y-63678571D02*
X117404761Y-63702380D01*
X117333333Y-63726190D01*
X117285714Y-63726190D01*
X117214285Y-63702380D01*
X117166666Y-63654761D01*
X117142857Y-63607142D01*
X117119047Y-63511904D01*
X117119047Y-63440476D01*
X117142857Y-63345238D01*
X117166666Y-63297619D01*
X117214285Y-63250000D01*
X117285714Y-63226190D01*
X117333333Y-63226190D01*
X117404761Y-63250000D01*
X117428571Y-63273809D01*
X117619047Y-63273809D02*
X117642857Y-63250000D01*
X117690476Y-63226190D01*
X117809523Y-63226190D01*
X117857142Y-63250000D01*
X117880952Y-63273809D01*
X117904761Y-63321428D01*
X117904761Y-63369047D01*
X117880952Y-63440476D01*
X117595238Y-63726190D01*
X117904761Y-63726190D01*
X118380952Y-63726190D02*
X118095238Y-63726190D01*
X118238095Y-63726190D02*
X118238095Y-63226190D01*
X118190476Y-63297619D01*
X118142857Y-63345238D01*
X118095238Y-63369047D01*
X116428571Y-66071428D02*
X116452380Y-66095238D01*
X116476190Y-66166666D01*
X116476190Y-66214285D01*
X116452380Y-66285714D01*
X116404761Y-66333333D01*
X116357142Y-66357142D01*
X116261904Y-66380952D01*
X116190476Y-66380952D01*
X116095238Y-66357142D01*
X116047619Y-66333333D01*
X116000000Y-66285714D01*
X115976190Y-66214285D01*
X115976190Y-66166666D01*
X116000000Y-66095238D01*
X116023809Y-66071428D01*
X116023809Y-65880952D02*
X116000000Y-65857142D01*
X115976190Y-65809523D01*
X115976190Y-65690476D01*
X116000000Y-65642857D01*
X116023809Y-65619047D01*
X116071428Y-65595238D01*
X116119047Y-65595238D01*
X116190476Y-65619047D01*
X116476190Y-65904761D01*
X116476190Y-65595238D01*
X115976190Y-65428571D02*
X115976190Y-65119047D01*
X116166666Y-65285714D01*
X116166666Y-65214285D01*
X116190476Y-65166666D01*
X116214285Y-65142857D01*
X116261904Y-65119047D01*
X116380952Y-65119047D01*
X116428571Y-65142857D01*
X116452380Y-65166666D01*
X116476190Y-65214285D01*
X116476190Y-65357142D01*
X116452380Y-65404761D01*
X116428571Y-65428571D01*
X112678571Y-71321428D02*
X112702380Y-71345238D01*
X112726190Y-71416666D01*
X112726190Y-71464285D01*
X112702380Y-71535714D01*
X112654761Y-71583333D01*
X112607142Y-71607142D01*
X112511904Y-71630952D01*
X112440476Y-71630952D01*
X112345238Y-71607142D01*
X112297619Y-71583333D01*
X112250000Y-71535714D01*
X112226190Y-71464285D01*
X112226190Y-71416666D01*
X112250000Y-71345238D01*
X112273809Y-71321428D01*
X112273809Y-71130952D02*
X112250000Y-71107142D01*
X112226190Y-71059523D01*
X112226190Y-70940476D01*
X112250000Y-70892857D01*
X112273809Y-70869047D01*
X112321428Y-70845238D01*
X112369047Y-70845238D01*
X112440476Y-70869047D01*
X112726190Y-71154761D01*
X112726190Y-70845238D01*
X112226190Y-70392857D02*
X112226190Y-70630952D01*
X112464285Y-70654761D01*
X112440476Y-70630952D01*
X112416666Y-70583333D01*
X112416666Y-70464285D01*
X112440476Y-70416666D01*
X112464285Y-70392857D01*
X112511904Y-70369047D01*
X112630952Y-70369047D01*
X112678571Y-70392857D01*
X112702380Y-70416666D01*
X112726190Y-70464285D01*
X112726190Y-70583333D01*
X112702380Y-70630952D01*
X112678571Y-70654761D01*
X105928571Y-66678571D02*
X105904761Y-66702380D01*
X105833333Y-66726190D01*
X105785714Y-66726190D01*
X105714285Y-66702380D01*
X105666666Y-66654761D01*
X105642857Y-66607142D01*
X105619047Y-66511904D01*
X105619047Y-66440476D01*
X105642857Y-66345238D01*
X105666666Y-66297619D01*
X105714285Y-66250000D01*
X105785714Y-66226190D01*
X105833333Y-66226190D01*
X105904761Y-66250000D01*
X105928571Y-66273809D01*
X106119047Y-66273809D02*
X106142857Y-66250000D01*
X106190476Y-66226190D01*
X106309523Y-66226190D01*
X106357142Y-66250000D01*
X106380952Y-66273809D01*
X106404761Y-66321428D01*
X106404761Y-66369047D01*
X106380952Y-66440476D01*
X106095238Y-66726190D01*
X106404761Y-66726190D01*
X106571428Y-66226190D02*
X106904761Y-66226190D01*
X106690476Y-66726190D01*
X113430952Y-97826190D02*
X113430952Y-97326190D01*
X113550000Y-97326190D01*
X113621428Y-97350000D01*
X113669047Y-97397619D01*
X113692857Y-97445238D01*
X113716666Y-97540476D01*
X113716666Y-97611904D01*
X113692857Y-97707142D01*
X113669047Y-97754761D01*
X113621428Y-97802380D01*
X113550000Y-97826190D01*
X113430952Y-97826190D01*
X113907142Y-97373809D02*
X113930952Y-97350000D01*
X113978571Y-97326190D01*
X114097619Y-97326190D01*
X114145238Y-97350000D01*
X114169047Y-97373809D01*
X114192857Y-97421428D01*
X114192857Y-97469047D01*
X114169047Y-97540476D01*
X113883333Y-97826190D01*
X114192857Y-97826190D01*
X102630952Y-76726190D02*
X102630952Y-76226190D01*
X102750000Y-76226190D01*
X102821428Y-76250000D01*
X102869047Y-76297619D01*
X102892857Y-76345238D01*
X102916666Y-76440476D01*
X102916666Y-76511904D01*
X102892857Y-76607142D01*
X102869047Y-76654761D01*
X102821428Y-76702380D01*
X102750000Y-76726190D01*
X102630952Y-76726190D01*
X103369047Y-76226190D02*
X103130952Y-76226190D01*
X103107142Y-76464285D01*
X103130952Y-76440476D01*
X103178571Y-76416666D01*
X103297619Y-76416666D01*
X103345238Y-76440476D01*
X103369047Y-76464285D01*
X103392857Y-76511904D01*
X103392857Y-76630952D01*
X103369047Y-76678571D01*
X103345238Y-76702380D01*
X103297619Y-76726190D01*
X103178571Y-76726190D01*
X103130952Y-76702380D01*
X103107142Y-76678571D01*
X106226190Y-101369047D02*
X105726190Y-101369047D01*
X105726190Y-101250000D01*
X105750000Y-101178571D01*
X105797619Y-101130952D01*
X105845238Y-101107142D01*
X105940476Y-101083333D01*
X106011904Y-101083333D01*
X106107142Y-101107142D01*
X106154761Y-101130952D01*
X106202380Y-101178571D01*
X106226190Y-101250000D01*
X106226190Y-101369047D01*
X105726190Y-100654761D02*
X105726190Y-100750000D01*
X105750000Y-100797619D01*
X105773809Y-100821428D01*
X105845238Y-100869047D01*
X105940476Y-100892857D01*
X106130952Y-100892857D01*
X106178571Y-100869047D01*
X106202380Y-100845238D01*
X106226190Y-100797619D01*
X106226190Y-100702380D01*
X106202380Y-100654761D01*
X106178571Y-100630952D01*
X106130952Y-100607142D01*
X106011904Y-100607142D01*
X105964285Y-100630952D01*
X105940476Y-100654761D01*
X105916666Y-100702380D01*
X105916666Y-100797619D01*
X105940476Y-100845238D01*
X105964285Y-100869047D01*
X106011904Y-100892857D01*
X114830952Y-91826190D02*
X114830952Y-91326190D01*
X114950000Y-91326190D01*
X115021428Y-91350000D01*
X115069047Y-91397619D01*
X115092857Y-91445238D01*
X115116666Y-91540476D01*
X115116666Y-91611904D01*
X115092857Y-91707142D01*
X115069047Y-91754761D01*
X115021428Y-91802380D01*
X114950000Y-91826190D01*
X114830952Y-91826190D01*
X115283333Y-91326190D02*
X115616666Y-91326190D01*
X115402380Y-91826190D01*
X102476190Y-94119047D02*
X101976190Y-94119047D01*
X101976190Y-94000000D01*
X102000000Y-93928571D01*
X102047619Y-93880952D01*
X102095238Y-93857142D01*
X102190476Y-93833333D01*
X102261904Y-93833333D01*
X102357142Y-93857142D01*
X102404761Y-93880952D01*
X102452380Y-93928571D01*
X102476190Y-94000000D01*
X102476190Y-94119047D01*
X102190476Y-93547619D02*
X102166666Y-93595238D01*
X102142857Y-93619047D01*
X102095238Y-93642857D01*
X102071428Y-93642857D01*
X102023809Y-93619047D01*
X102000000Y-93595238D01*
X101976190Y-93547619D01*
X101976190Y-93452380D01*
X102000000Y-93404761D01*
X102023809Y-93380952D01*
X102071428Y-93357142D01*
X102095238Y-93357142D01*
X102142857Y-93380952D01*
X102166666Y-93404761D01*
X102190476Y-93452380D01*
X102190476Y-93547619D01*
X102214285Y-93595238D01*
X102238095Y-93619047D01*
X102285714Y-93642857D01*
X102380952Y-93642857D01*
X102428571Y-93619047D01*
X102452380Y-93595238D01*
X102476190Y-93547619D01*
X102476190Y-93452380D01*
X102452380Y-93404761D01*
X102428571Y-93380952D01*
X102380952Y-93357142D01*
X102285714Y-93357142D01*
X102238095Y-93380952D01*
X102214285Y-93404761D01*
X102190476Y-93452380D01*
D12*
X120702380Y-109283333D02*
X121416666Y-109283333D01*
X121559523Y-109330952D01*
X121654761Y-109426190D01*
X121702380Y-109569047D01*
X121702380Y-109664285D01*
X121702380Y-108283333D02*
X121702380Y-108854761D01*
X121702380Y-108569047D02*
X120702380Y-108569047D01*
X120845238Y-108664285D01*
X120940476Y-108759523D01*
X120988095Y-108854761D01*
X89702380Y-76178333D02*
X90416666Y-76178333D01*
X90559523Y-76225952D01*
X90654761Y-76321190D01*
X90702380Y-76464047D01*
X90702380Y-76559285D01*
X89702380Y-75797380D02*
X89702380Y-75178333D01*
X90083333Y-75511666D01*
X90083333Y-75368809D01*
X90130952Y-75273571D01*
X90178571Y-75225952D01*
X90273809Y-75178333D01*
X90511904Y-75178333D01*
X90607142Y-75225952D01*
X90654761Y-75273571D01*
X90702380Y-75368809D01*
X90702380Y-75654523D01*
X90654761Y-75749761D01*
X90607142Y-75797380D01*
X129702380Y-77333333D02*
X130416666Y-77333333D01*
X130559523Y-77380952D01*
X130654761Y-77476190D01*
X130702380Y-77619047D01*
X130702380Y-77714285D01*
X130035714Y-76428571D02*
X130702380Y-76428571D01*
X129654761Y-76666666D02*
X130369047Y-76904761D01*
X130369047Y-76285714D01*
X89702380Y-86428333D02*
X90416666Y-86428333D01*
X90559523Y-86475952D01*
X90654761Y-86571190D01*
X90702380Y-86714047D01*
X90702380Y-86809285D01*
X89702380Y-85475952D02*
X89702380Y-85952142D01*
X90178571Y-85999761D01*
X90130952Y-85952142D01*
X90083333Y-85856904D01*
X90083333Y-85618809D01*
X90130952Y-85523571D01*
X90178571Y-85475952D01*
X90273809Y-85428333D01*
X90511904Y-85428333D01*
X90607142Y-85475952D01*
X90654761Y-85523571D01*
X90702380Y-85618809D01*
X90702380Y-85856904D01*
X90654761Y-85952142D01*
X90607142Y-85999761D01*
X129702380Y-87833333D02*
X130416666Y-87833333D01*
X130559523Y-87880952D01*
X130654761Y-87976190D01*
X130702380Y-88119047D01*
X130702380Y-88214285D01*
X129702380Y-86928571D02*
X129702380Y-87119047D01*
X129750000Y-87214285D01*
X129797619Y-87261904D01*
X129940476Y-87357142D01*
X130130952Y-87404761D01*
X130511904Y-87404761D01*
X130607142Y-87357142D01*
X130654761Y-87309523D01*
X130702380Y-87214285D01*
X130702380Y-87023809D01*
X130654761Y-86928571D01*
X130607142Y-86880952D01*
X130511904Y-86833333D01*
X130273809Y-86833333D01*
X130178571Y-86880952D01*
X130130952Y-86928571D01*
X130083333Y-87023809D01*
X130083333Y-87214285D01*
X130130952Y-87309523D01*
X130178571Y-87357142D01*
X130273809Y-87404761D01*
D11*
X110476190Y-82583333D02*
X110476190Y-82821428D01*
X109976190Y-82821428D01*
X110476190Y-82154761D02*
X110476190Y-82440476D01*
X110476190Y-82297619D02*
X109976190Y-82297619D01*
X110047619Y-82345238D01*
X110095238Y-82392857D01*
X110119047Y-82440476D01*
D17*
X106335714Y-86042857D02*
X106335714Y-86100000D01*
X106350000Y-86128571D01*
X106364285Y-86142857D01*
X106407142Y-86171428D01*
X106464285Y-86185714D01*
X106578571Y-86185714D01*
X106607142Y-86171428D01*
X106621428Y-86157142D01*
X106635714Y-86128571D01*
X106635714Y-86071428D01*
X106621428Y-86042857D01*
X106607142Y-86028571D01*
X106578571Y-86014285D01*
X106507142Y-86014285D01*
X106478571Y-86028571D01*
X106464285Y-86042857D01*
X106450000Y-86071428D01*
X106450000Y-86128571D01*
X106464285Y-86157142D01*
X106478571Y-86171428D01*
X106507142Y-86185714D01*
X106607142Y-85885714D02*
X106621428Y-85871428D01*
X106635714Y-85885714D01*
X106621428Y-85900000D01*
X106607142Y-85885714D01*
X106635714Y-85885714D01*
X106464285Y-85700000D02*
X106450000Y-85728571D01*
X106435714Y-85742857D01*
X106407142Y-85757142D01*
X106392857Y-85757142D01*
X106364285Y-85742857D01*
X106350000Y-85728571D01*
X106335714Y-85700000D01*
X106335714Y-85642857D01*
X106350000Y-85614285D01*
X106364285Y-85600000D01*
X106392857Y-85585714D01*
X106407142Y-85585714D01*
X106435714Y-85600000D01*
X106450000Y-85614285D01*
X106464285Y-85642857D01*
X106464285Y-85700000D01*
X106478571Y-85728571D01*
X106492857Y-85742857D01*
X106521428Y-85757142D01*
X106578571Y-85757142D01*
X106607142Y-85742857D01*
X106621428Y-85728571D01*
X106635714Y-85700000D01*
X106635714Y-85642857D01*
X106621428Y-85614285D01*
X106607142Y-85600000D01*
X106578571Y-85585714D01*
X106521428Y-85585714D01*
X106492857Y-85600000D01*
X106478571Y-85614285D01*
X106464285Y-85642857D01*
X106435714Y-85328571D02*
X106635714Y-85328571D01*
X106435714Y-85457142D02*
X106592857Y-85457142D01*
X106621428Y-85442857D01*
X106635714Y-85414285D01*
X106635714Y-85371428D01*
X106621428Y-85342857D01*
X106607142Y-85328571D01*
D11*
X110166666Y-67226190D02*
X109928571Y-67226190D01*
X109928571Y-66726190D01*
X110285714Y-66726190D02*
X110595238Y-66726190D01*
X110428571Y-66916666D01*
X110500000Y-66916666D01*
X110547619Y-66940476D01*
X110571428Y-66964285D01*
X110595238Y-67011904D01*
X110595238Y-67130952D01*
X110571428Y-67178571D01*
X110547619Y-67202380D01*
X110500000Y-67226190D01*
X110357142Y-67226190D01*
X110309523Y-67202380D01*
X110285714Y-67178571D01*
D17*
X106300000Y-70585714D02*
X106485714Y-70585714D01*
X106385714Y-70700000D01*
X106428571Y-70700000D01*
X106457142Y-70714285D01*
X106471428Y-70728571D01*
X106485714Y-70757142D01*
X106485714Y-70828571D01*
X106471428Y-70857142D01*
X106457142Y-70871428D01*
X106428571Y-70885714D01*
X106342857Y-70885714D01*
X106314285Y-70871428D01*
X106300000Y-70857142D01*
X106614285Y-70857142D02*
X106628571Y-70871428D01*
X106614285Y-70885714D01*
X106600000Y-70871428D01*
X106614285Y-70857142D01*
X106614285Y-70885714D01*
X106728571Y-70585714D02*
X106914285Y-70585714D01*
X106814285Y-70700000D01*
X106857142Y-70700000D01*
X106885714Y-70714285D01*
X106900000Y-70728571D01*
X106914285Y-70757142D01*
X106914285Y-70828571D01*
X106900000Y-70857142D01*
X106885714Y-70871428D01*
X106857142Y-70885714D01*
X106771428Y-70885714D01*
X106742857Y-70871428D01*
X106728571Y-70857142D01*
X107171428Y-70685714D02*
X107171428Y-70885714D01*
X107042857Y-70685714D02*
X107042857Y-70842857D01*
X107057142Y-70871428D01*
X107085714Y-70885714D01*
X107128571Y-70885714D01*
X107157142Y-70871428D01*
X107171428Y-70857142D01*
D11*
X140773809Y-84797619D02*
X140750000Y-84845238D01*
X140702380Y-84892857D01*
X140630952Y-84964285D01*
X140607142Y-85011904D01*
X140607142Y-85059523D01*
X140726190Y-85035714D02*
X140702380Y-85083333D01*
X140654761Y-85130952D01*
X140559523Y-85154761D01*
X140392857Y-85154761D01*
X140297619Y-85130952D01*
X140250000Y-85083333D01*
X140226190Y-85035714D01*
X140226190Y-84940476D01*
X140250000Y-84892857D01*
X140297619Y-84845238D01*
X140392857Y-84821428D01*
X140559523Y-84821428D01*
X140654761Y-84845238D01*
X140702380Y-84892857D01*
X140726190Y-84940476D01*
X140726190Y-85035714D01*
X140726190Y-84345238D02*
X140726190Y-84630952D01*
X140726190Y-84488095D02*
X140226190Y-84488095D01*
X140297619Y-84535714D01*
X140345238Y-84583333D01*
X140369047Y-84630952D01*
X78916666Y-75976190D02*
X78750000Y-75738095D01*
X78630952Y-75976190D02*
X78630952Y-75476190D01*
X78821428Y-75476190D01*
X78869047Y-75500000D01*
X78892857Y-75523809D01*
X78916666Y-75571428D01*
X78916666Y-75642857D01*
X78892857Y-75690476D01*
X78869047Y-75714285D01*
X78821428Y-75738095D01*
X78630952Y-75738095D01*
X79392857Y-75976190D02*
X79107142Y-75976190D01*
X79250000Y-75976190D02*
X79250000Y-75476190D01*
X79202380Y-75547619D01*
X79154761Y-75595238D01*
X79107142Y-75619047D01*
X78916666Y-72476190D02*
X78750000Y-72238095D01*
X78630952Y-72476190D02*
X78630952Y-71976190D01*
X78821428Y-71976190D01*
X78869047Y-72000000D01*
X78892857Y-72023809D01*
X78916666Y-72071428D01*
X78916666Y-72142857D01*
X78892857Y-72190476D01*
X78869047Y-72214285D01*
X78821428Y-72238095D01*
X78630952Y-72238095D01*
X79369047Y-71976190D02*
X79130952Y-71976190D01*
X79107142Y-72214285D01*
X79130952Y-72190476D01*
X79178571Y-72166666D01*
X79297619Y-72166666D01*
X79345238Y-72190476D01*
X79369047Y-72214285D01*
X79392857Y-72261904D01*
X79392857Y-72380952D01*
X79369047Y-72428571D01*
X79345238Y-72452380D01*
X79297619Y-72476190D01*
X79178571Y-72476190D01*
X79130952Y-72452380D01*
X79107142Y-72428571D01*
X78678571Y-82476190D02*
X78511904Y-82238095D01*
X78392857Y-82476190D02*
X78392857Y-81976190D01*
X78583333Y-81976190D01*
X78630952Y-82000000D01*
X78654761Y-82023809D01*
X78678571Y-82071428D01*
X78678571Y-82142857D01*
X78654761Y-82190476D01*
X78630952Y-82214285D01*
X78583333Y-82238095D01*
X78392857Y-82238095D01*
X79154761Y-82476190D02*
X78869047Y-82476190D01*
X79011904Y-82476190D02*
X79011904Y-81976190D01*
X78964285Y-82047619D01*
X78916666Y-82095238D01*
X78869047Y-82119047D01*
X79464285Y-81976190D02*
X79511904Y-81976190D01*
X79559523Y-82000000D01*
X79583333Y-82023809D01*
X79607142Y-82071428D01*
X79630952Y-82166666D01*
X79630952Y-82285714D01*
X79607142Y-82380952D01*
X79583333Y-82428571D01*
X79559523Y-82452380D01*
X79511904Y-82476190D01*
X79464285Y-82476190D01*
X79416666Y-82452380D01*
X79392857Y-82428571D01*
X79369047Y-82380952D01*
X79345238Y-82285714D01*
X79345238Y-82166666D01*
X79369047Y-82071428D01*
X79392857Y-82023809D01*
X79416666Y-82000000D01*
X79464285Y-81976190D01*
X78678571Y-78976190D02*
X78511904Y-78738095D01*
X78392857Y-78976190D02*
X78392857Y-78476190D01*
X78583333Y-78476190D01*
X78630952Y-78500000D01*
X78654761Y-78523809D01*
X78678571Y-78571428D01*
X78678571Y-78642857D01*
X78654761Y-78690476D01*
X78630952Y-78714285D01*
X78583333Y-78738095D01*
X78392857Y-78738095D01*
X79154761Y-78976190D02*
X78869047Y-78976190D01*
X79011904Y-78976190D02*
X79011904Y-78476190D01*
X78964285Y-78547619D01*
X78916666Y-78595238D01*
X78869047Y-78619047D01*
X79345238Y-78523809D02*
X79369047Y-78500000D01*
X79416666Y-78476190D01*
X79535714Y-78476190D01*
X79583333Y-78500000D01*
X79607142Y-78523809D01*
X79630952Y-78571428D01*
X79630952Y-78619047D01*
X79607142Y-78690476D01*
X79321428Y-78976190D01*
X79630952Y-78976190D01*
X78678571Y-88976190D02*
X78511904Y-88738095D01*
X78392857Y-88976190D02*
X78392857Y-88476190D01*
X78583333Y-88476190D01*
X78630952Y-88500000D01*
X78654761Y-88523809D01*
X78678571Y-88571428D01*
X78678571Y-88642857D01*
X78654761Y-88690476D01*
X78630952Y-88714285D01*
X78583333Y-88738095D01*
X78392857Y-88738095D01*
X79154761Y-88976190D02*
X78869047Y-88976190D01*
X79011904Y-88976190D02*
X79011904Y-88476190D01*
X78964285Y-88547619D01*
X78916666Y-88595238D01*
X78869047Y-88619047D01*
X79321428Y-88476190D02*
X79630952Y-88476190D01*
X79464285Y-88666666D01*
X79535714Y-88666666D01*
X79583333Y-88690476D01*
X79607142Y-88714285D01*
X79630952Y-88761904D01*
X79630952Y-88880952D01*
X79607142Y-88928571D01*
X79583333Y-88952380D01*
X79535714Y-88976190D01*
X79392857Y-88976190D01*
X79345238Y-88952380D01*
X79321428Y-88928571D01*
X78678571Y-85476190D02*
X78511904Y-85238095D01*
X78392857Y-85476190D02*
X78392857Y-84976190D01*
X78583333Y-84976190D01*
X78630952Y-85000000D01*
X78654761Y-85023809D01*
X78678571Y-85071428D01*
X78678571Y-85142857D01*
X78654761Y-85190476D01*
X78630952Y-85214285D01*
X78583333Y-85238095D01*
X78392857Y-85238095D01*
X79154761Y-85476190D02*
X78869047Y-85476190D01*
X79011904Y-85476190D02*
X79011904Y-84976190D01*
X78964285Y-85047619D01*
X78916666Y-85095238D01*
X78869047Y-85119047D01*
X79583333Y-84976190D02*
X79488095Y-84976190D01*
X79440476Y-85000000D01*
X79416666Y-85023809D01*
X79369047Y-85095238D01*
X79345238Y-85190476D01*
X79345238Y-85380952D01*
X79369047Y-85428571D01*
X79392857Y-85452380D01*
X79440476Y-85476190D01*
X79535714Y-85476190D01*
X79583333Y-85452380D01*
X79607142Y-85428571D01*
X79630952Y-85380952D01*
X79630952Y-85261904D01*
X79607142Y-85214285D01*
X79583333Y-85190476D01*
X79535714Y-85166666D01*
X79440476Y-85166666D01*
X79392857Y-85190476D01*
X79369047Y-85214285D01*
X79345238Y-85261904D01*
X120928571Y-92476190D02*
X120761904Y-92238095D01*
X120642857Y-92476190D02*
X120642857Y-91976190D01*
X120833333Y-91976190D01*
X120880952Y-92000000D01*
X120904761Y-92023809D01*
X120928571Y-92071428D01*
X120928571Y-92142857D01*
X120904761Y-92190476D01*
X120880952Y-92214285D01*
X120833333Y-92238095D01*
X120642857Y-92238095D01*
X121119047Y-92023809D02*
X121142857Y-92000000D01*
X121190476Y-91976190D01*
X121309523Y-91976190D01*
X121357142Y-92000000D01*
X121380952Y-92023809D01*
X121404761Y-92071428D01*
X121404761Y-92119047D01*
X121380952Y-92190476D01*
X121095238Y-92476190D01*
X121404761Y-92476190D01*
X121714285Y-91976190D02*
X121761904Y-91976190D01*
X121809523Y-92000000D01*
X121833333Y-92023809D01*
X121857142Y-92071428D01*
X121880952Y-92166666D01*
X121880952Y-92285714D01*
X121857142Y-92380952D01*
X121833333Y-92428571D01*
X121809523Y-92452380D01*
X121761904Y-92476190D01*
X121714285Y-92476190D01*
X121666666Y-92452380D01*
X121642857Y-92428571D01*
X121619047Y-92380952D01*
X121595238Y-92285714D01*
X121595238Y-92166666D01*
X121619047Y-92071428D01*
X121642857Y-92023809D01*
X121666666Y-92000000D01*
X121714285Y-91976190D01*
X116476190Y-96071428D02*
X116238095Y-96238095D01*
X116476190Y-96357142D02*
X115976190Y-96357142D01*
X115976190Y-96166666D01*
X116000000Y-96119047D01*
X116023809Y-96095238D01*
X116071428Y-96071428D01*
X116142857Y-96071428D01*
X116190476Y-96095238D01*
X116214285Y-96119047D01*
X116238095Y-96166666D01*
X116238095Y-96357142D01*
X116023809Y-95880952D02*
X116000000Y-95857142D01*
X115976190Y-95809523D01*
X115976190Y-95690476D01*
X116000000Y-95642857D01*
X116023809Y-95619047D01*
X116071428Y-95595238D01*
X116119047Y-95595238D01*
X116190476Y-95619047D01*
X116476190Y-95904761D01*
X116476190Y-95595238D01*
X116476190Y-95119047D02*
X116476190Y-95404761D01*
X116476190Y-95261904D02*
X115976190Y-95261904D01*
X116047619Y-95309523D01*
X116095238Y-95357142D01*
X116119047Y-95404761D01*
X112976190Y-93321428D02*
X112738095Y-93488095D01*
X112976190Y-93607142D02*
X112476190Y-93607142D01*
X112476190Y-93416666D01*
X112500000Y-93369047D01*
X112523809Y-93345238D01*
X112571428Y-93321428D01*
X112642857Y-93321428D01*
X112690476Y-93345238D01*
X112714285Y-93369047D01*
X112738095Y-93416666D01*
X112738095Y-93607142D01*
X112523809Y-93130952D02*
X112500000Y-93107142D01*
X112476190Y-93059523D01*
X112476190Y-92940476D01*
X112500000Y-92892857D01*
X112523809Y-92869047D01*
X112571428Y-92845238D01*
X112619047Y-92845238D01*
X112690476Y-92869047D01*
X112976190Y-93154761D01*
X112976190Y-92845238D01*
X112523809Y-92654761D02*
X112500000Y-92630952D01*
X112476190Y-92583333D01*
X112476190Y-92464285D01*
X112500000Y-92416666D01*
X112523809Y-92392857D01*
X112571428Y-92369047D01*
X112619047Y-92369047D01*
X112690476Y-92392857D01*
X112976190Y-92678571D01*
X112976190Y-92369047D01*
X150928571Y-87976190D02*
X150761904Y-87738095D01*
X150642857Y-87976190D02*
X150642857Y-87476190D01*
X150833333Y-87476190D01*
X150880952Y-87500000D01*
X150904761Y-87523809D01*
X150928571Y-87571428D01*
X150928571Y-87642857D01*
X150904761Y-87690476D01*
X150880952Y-87714285D01*
X150833333Y-87738095D01*
X150642857Y-87738095D01*
X151119047Y-87523809D02*
X151142857Y-87500000D01*
X151190476Y-87476190D01*
X151309523Y-87476190D01*
X151357142Y-87500000D01*
X151380952Y-87523809D01*
X151404761Y-87571428D01*
X151404761Y-87619047D01*
X151380952Y-87690476D01*
X151095238Y-87976190D01*
X151404761Y-87976190D01*
X151833333Y-87642857D02*
X151833333Y-87976190D01*
X151714285Y-87452380D02*
X151595238Y-87809523D01*
X151904761Y-87809523D01*
X118178571Y-88226190D02*
X118011904Y-87988095D01*
X117892857Y-88226190D02*
X117892857Y-87726190D01*
X118083333Y-87726190D01*
X118130952Y-87750000D01*
X118154761Y-87773809D01*
X118178571Y-87821428D01*
X118178571Y-87892857D01*
X118154761Y-87940476D01*
X118130952Y-87964285D01*
X118083333Y-87988095D01*
X117892857Y-87988095D01*
X118369047Y-87773809D02*
X118392857Y-87750000D01*
X118440476Y-87726190D01*
X118559523Y-87726190D01*
X118607142Y-87750000D01*
X118630952Y-87773809D01*
X118654761Y-87821428D01*
X118654761Y-87869047D01*
X118630952Y-87940476D01*
X118345238Y-88226190D01*
X118654761Y-88226190D01*
X119107142Y-87726190D02*
X118869047Y-87726190D01*
X118845238Y-87964285D01*
X118869047Y-87940476D01*
X118916666Y-87916666D01*
X119035714Y-87916666D01*
X119083333Y-87940476D01*
X119107142Y-87964285D01*
X119130952Y-88011904D01*
X119130952Y-88130952D01*
X119107142Y-88178571D01*
X119083333Y-88202380D01*
X119035714Y-88226190D01*
X118916666Y-88226190D01*
X118869047Y-88202380D01*
X118845238Y-88178571D01*
X119726190Y-66071428D02*
X119488095Y-66238095D01*
X119726190Y-66357142D02*
X119226190Y-66357142D01*
X119226190Y-66166666D01*
X119250000Y-66119047D01*
X119273809Y-66095238D01*
X119321428Y-66071428D01*
X119392857Y-66071428D01*
X119440476Y-66095238D01*
X119464285Y-66119047D01*
X119488095Y-66166666D01*
X119488095Y-66357142D01*
X119273809Y-65880952D02*
X119250000Y-65857142D01*
X119226190Y-65809523D01*
X119226190Y-65690476D01*
X119250000Y-65642857D01*
X119273809Y-65619047D01*
X119321428Y-65595238D01*
X119369047Y-65595238D01*
X119440476Y-65619047D01*
X119726190Y-65904761D01*
X119726190Y-65595238D01*
X119226190Y-65428571D02*
X119226190Y-65095238D01*
X119726190Y-65309523D01*
X123476190Y-65571428D02*
X123238095Y-65738095D01*
X123476190Y-65857142D02*
X122976190Y-65857142D01*
X122976190Y-65666666D01*
X123000000Y-65619047D01*
X123023809Y-65595238D01*
X123071428Y-65571428D01*
X123142857Y-65571428D01*
X123190476Y-65595238D01*
X123214285Y-65619047D01*
X123238095Y-65666666D01*
X123238095Y-65857142D01*
X122976190Y-65404761D02*
X122976190Y-65095238D01*
X123166666Y-65261904D01*
X123166666Y-65190476D01*
X123190476Y-65142857D01*
X123214285Y-65119047D01*
X123261904Y-65095238D01*
X123380952Y-65095238D01*
X123428571Y-65119047D01*
X123452380Y-65142857D01*
X123476190Y-65190476D01*
X123476190Y-65333333D01*
X123452380Y-65380952D01*
X123428571Y-65404761D01*
X122976190Y-64785714D02*
X122976190Y-64738095D01*
X123000000Y-64690476D01*
X123023809Y-64666666D01*
X123071428Y-64642857D01*
X123166666Y-64619047D01*
X123285714Y-64619047D01*
X123380952Y-64642857D01*
X123428571Y-64666666D01*
X123452380Y-64690476D01*
X123476190Y-64738095D01*
X123476190Y-64785714D01*
X123452380Y-64833333D01*
X123428571Y-64857142D01*
X123380952Y-64880952D01*
X123285714Y-64904761D01*
X123166666Y-64904761D01*
X123071428Y-64880952D01*
X123023809Y-64857142D01*
X123000000Y-64833333D01*
X122976190Y-64785714D01*
X123476190Y-69821428D02*
X123238095Y-69988095D01*
X123476190Y-70107142D02*
X122976190Y-70107142D01*
X122976190Y-69916666D01*
X123000000Y-69869047D01*
X123023809Y-69845238D01*
X123071428Y-69821428D01*
X123142857Y-69821428D01*
X123190476Y-69845238D01*
X123214285Y-69869047D01*
X123238095Y-69916666D01*
X123238095Y-70107142D01*
X122976190Y-69654761D02*
X122976190Y-69345238D01*
X123166666Y-69511904D01*
X123166666Y-69440476D01*
X123190476Y-69392857D01*
X123214285Y-69369047D01*
X123261904Y-69345238D01*
X123380952Y-69345238D01*
X123428571Y-69369047D01*
X123452380Y-69392857D01*
X123476190Y-69440476D01*
X123476190Y-69583333D01*
X123452380Y-69630952D01*
X123428571Y-69654761D01*
X123476190Y-68869047D02*
X123476190Y-69154761D01*
X123476190Y-69011904D02*
X122976190Y-69011904D01*
X123047619Y-69059523D01*
X123095238Y-69107142D01*
X123119047Y-69154761D01*
X82526190Y-75121428D02*
X82288095Y-75288095D01*
X82526190Y-75407142D02*
X82026190Y-75407142D01*
X82026190Y-75216666D01*
X82050000Y-75169047D01*
X82073809Y-75145238D01*
X82121428Y-75121428D01*
X82192857Y-75121428D01*
X82240476Y-75145238D01*
X82264285Y-75169047D01*
X82288095Y-75216666D01*
X82288095Y-75407142D01*
X82026190Y-74954761D02*
X82026190Y-74645238D01*
X82216666Y-74811904D01*
X82216666Y-74740476D01*
X82240476Y-74692857D01*
X82264285Y-74669047D01*
X82311904Y-74645238D01*
X82430952Y-74645238D01*
X82478571Y-74669047D01*
X82502380Y-74692857D01*
X82526190Y-74740476D01*
X82526190Y-74883333D01*
X82502380Y-74930952D01*
X82478571Y-74954761D01*
X82073809Y-74454761D02*
X82050000Y-74430952D01*
X82026190Y-74383333D01*
X82026190Y-74264285D01*
X82050000Y-74216666D01*
X82073809Y-74192857D01*
X82121428Y-74169047D01*
X82169047Y-74169047D01*
X82240476Y-74192857D01*
X82526190Y-74478571D01*
X82526190Y-74169047D01*
X84026190Y-73621428D02*
X83788095Y-73788095D01*
X84026190Y-73907142D02*
X83526190Y-73907142D01*
X83526190Y-73716666D01*
X83550000Y-73669047D01*
X83573809Y-73645238D01*
X83621428Y-73621428D01*
X83692857Y-73621428D01*
X83740476Y-73645238D01*
X83764285Y-73669047D01*
X83788095Y-73716666D01*
X83788095Y-73907142D01*
X83526190Y-73454761D02*
X83526190Y-73145238D01*
X83716666Y-73311904D01*
X83716666Y-73240476D01*
X83740476Y-73192857D01*
X83764285Y-73169047D01*
X83811904Y-73145238D01*
X83930952Y-73145238D01*
X83978571Y-73169047D01*
X84002380Y-73192857D01*
X84026190Y-73240476D01*
X84026190Y-73383333D01*
X84002380Y-73430952D01*
X83978571Y-73454761D01*
X83526190Y-72978571D02*
X83526190Y-72669047D01*
X83716666Y-72835714D01*
X83716666Y-72764285D01*
X83740476Y-72716666D01*
X83764285Y-72692857D01*
X83811904Y-72669047D01*
X83930952Y-72669047D01*
X83978571Y-72692857D01*
X84002380Y-72716666D01*
X84026190Y-72764285D01*
X84026190Y-72907142D01*
X84002380Y-72954761D01*
X83978571Y-72978571D01*
X116178571Y-83726190D02*
X116011904Y-83488095D01*
X115892857Y-83726190D02*
X115892857Y-83226190D01*
X116083333Y-83226190D01*
X116130952Y-83250000D01*
X116154761Y-83273809D01*
X116178571Y-83321428D01*
X116178571Y-83392857D01*
X116154761Y-83440476D01*
X116130952Y-83464285D01*
X116083333Y-83488095D01*
X115892857Y-83488095D01*
X116345238Y-83226190D02*
X116654761Y-83226190D01*
X116488095Y-83416666D01*
X116559523Y-83416666D01*
X116607142Y-83440476D01*
X116630952Y-83464285D01*
X116654761Y-83511904D01*
X116654761Y-83630952D01*
X116630952Y-83678571D01*
X116607142Y-83702380D01*
X116559523Y-83726190D01*
X116416666Y-83726190D01*
X116369047Y-83702380D01*
X116345238Y-83678571D01*
X117083333Y-83226190D02*
X116988095Y-83226190D01*
X116940476Y-83250000D01*
X116916666Y-83273809D01*
X116869047Y-83345238D01*
X116845238Y-83440476D01*
X116845238Y-83630952D01*
X116869047Y-83678571D01*
X116892857Y-83702380D01*
X116940476Y-83726190D01*
X117035714Y-83726190D01*
X117083333Y-83702380D01*
X117107142Y-83678571D01*
X117130952Y-83630952D01*
X117130952Y-83511904D01*
X117107142Y-83464285D01*
X117083333Y-83440476D01*
X117035714Y-83416666D01*
X116940476Y-83416666D01*
X116892857Y-83440476D01*
X116869047Y-83464285D01*
X116845238Y-83511904D01*
X112178571Y-79976190D02*
X112011904Y-79738095D01*
X111892857Y-79976190D02*
X111892857Y-79476190D01*
X112083333Y-79476190D01*
X112130952Y-79500000D01*
X112154761Y-79523809D01*
X112178571Y-79571428D01*
X112178571Y-79642857D01*
X112154761Y-79690476D01*
X112130952Y-79714285D01*
X112083333Y-79738095D01*
X111892857Y-79738095D01*
X112345238Y-79476190D02*
X112654761Y-79476190D01*
X112488095Y-79666666D01*
X112559523Y-79666666D01*
X112607142Y-79690476D01*
X112630952Y-79714285D01*
X112654761Y-79761904D01*
X112654761Y-79880952D01*
X112630952Y-79928571D01*
X112607142Y-79952380D01*
X112559523Y-79976190D01*
X112416666Y-79976190D01*
X112369047Y-79952380D01*
X112345238Y-79928571D01*
X112821428Y-79476190D02*
X113154761Y-79476190D01*
X112940476Y-79976190D01*
X120357142Y-93976190D02*
X120642857Y-93976190D01*
X120500000Y-94476190D02*
X120500000Y-93976190D01*
X120809523Y-94476190D02*
X120809523Y-93976190D01*
X120809523Y-94214285D02*
X121095238Y-94214285D01*
X121095238Y-94476190D02*
X121095238Y-93976190D01*
X121595238Y-94476190D02*
X121309523Y-94476190D01*
X121452380Y-94476190D02*
X121452380Y-93976190D01*
X121404761Y-94047619D01*
X121357142Y-94095238D01*
X121309523Y-94119047D01*
X77526190Y-75780952D02*
X77930952Y-75780952D01*
X77978571Y-75757142D01*
X78002380Y-75733333D01*
X78026190Y-75685714D01*
X78026190Y-75590476D01*
X78002380Y-75542857D01*
X77978571Y-75519047D01*
X77930952Y-75495238D01*
X77526190Y-75495238D01*
X78026190Y-74995238D02*
X78026190Y-75280952D01*
X78026190Y-75138095D02*
X77526190Y-75138095D01*
X77597619Y-75185714D01*
X77645238Y-75233333D01*
X77669047Y-75280952D01*
X77526190Y-82180952D02*
X77930952Y-82180952D01*
X77978571Y-82157142D01*
X78002380Y-82133333D01*
X78026190Y-82085714D01*
X78026190Y-81990476D01*
X78002380Y-81942857D01*
X77978571Y-81919047D01*
X77930952Y-81895238D01*
X77526190Y-81895238D01*
X77526190Y-81704761D02*
X77526190Y-81395238D01*
X77716666Y-81561904D01*
X77716666Y-81490476D01*
X77740476Y-81442857D01*
X77764285Y-81419047D01*
X77811904Y-81395238D01*
X77930952Y-81395238D01*
X77978571Y-81419047D01*
X78002380Y-81442857D01*
X78026190Y-81490476D01*
X78026190Y-81633333D01*
X78002380Y-81680952D01*
X77978571Y-81704761D01*
X77526190Y-88580952D02*
X77930952Y-88580952D01*
X77978571Y-88557142D01*
X78002380Y-88533333D01*
X78026190Y-88485714D01*
X78026190Y-88390476D01*
X78002380Y-88342857D01*
X77978571Y-88319047D01*
X77930952Y-88295238D01*
X77526190Y-88295238D01*
X77526190Y-87819047D02*
X77526190Y-88057142D01*
X77764285Y-88080952D01*
X77740476Y-88057142D01*
X77716666Y-88009523D01*
X77716666Y-87890476D01*
X77740476Y-87842857D01*
X77764285Y-87819047D01*
X77811904Y-87795238D01*
X77930952Y-87795238D01*
X77978571Y-87819047D01*
X78002380Y-87842857D01*
X78026190Y-87890476D01*
X78026190Y-88009523D01*
X78002380Y-88057142D01*
X77978571Y-88080952D01*
X144476190Y-89380952D02*
X144880952Y-89380952D01*
X144928571Y-89357142D01*
X144952380Y-89333333D01*
X144976190Y-89285714D01*
X144976190Y-89190476D01*
X144952380Y-89142857D01*
X144928571Y-89119047D01*
X144880952Y-89095238D01*
X144476190Y-89095238D01*
X144476190Y-88904761D02*
X144476190Y-88571428D01*
X144976190Y-88785714D01*
X110619047Y-85976190D02*
X110619047Y-86380952D01*
X110642857Y-86428571D01*
X110666666Y-86452380D01*
X110714285Y-86476190D01*
X110809523Y-86476190D01*
X110857142Y-86452380D01*
X110880952Y-86428571D01*
X110904761Y-86380952D01*
X110904761Y-85976190D01*
X111214285Y-86190476D02*
X111166666Y-86166666D01*
X111142857Y-86142857D01*
X111119047Y-86095238D01*
X111119047Y-86071428D01*
X111142857Y-86023809D01*
X111166666Y-86000000D01*
X111214285Y-85976190D01*
X111309523Y-85976190D01*
X111357142Y-86000000D01*
X111380952Y-86023809D01*
X111404761Y-86071428D01*
X111404761Y-86095238D01*
X111380952Y-86142857D01*
X111357142Y-86166666D01*
X111309523Y-86190476D01*
X111214285Y-86190476D01*
X111166666Y-86214285D01*
X111142857Y-86238095D01*
X111119047Y-86285714D01*
X111119047Y-86380952D01*
X111142857Y-86428571D01*
X111166666Y-86452380D01*
X111214285Y-86476190D01*
X111309523Y-86476190D01*
X111357142Y-86452380D01*
X111380952Y-86428571D01*
X111404761Y-86380952D01*
X111404761Y-86285714D01*
X111380952Y-86238095D01*
X111357142Y-86214285D01*
X111309523Y-86190476D01*
X119476190Y-71369047D02*
X119880952Y-71369047D01*
X119928571Y-71345238D01*
X119952380Y-71321428D01*
X119976190Y-71273809D01*
X119976190Y-71178571D01*
X119952380Y-71130952D01*
X119928571Y-71107142D01*
X119880952Y-71083333D01*
X119476190Y-71083333D01*
X119976190Y-70583333D02*
X119976190Y-70869047D01*
X119976190Y-70726190D02*
X119476190Y-70726190D01*
X119547619Y-70773809D01*
X119595238Y-70821428D01*
X119619047Y-70869047D01*
X119976190Y-70107142D02*
X119976190Y-70392857D01*
X119976190Y-70250000D02*
X119476190Y-70250000D01*
X119547619Y-70297619D01*
X119595238Y-70345238D01*
X119619047Y-70392857D01*
D12*
X143952380Y-81333333D02*
X144666666Y-81333333D01*
X144809523Y-81380952D01*
X144904761Y-81476190D01*
X144952380Y-81619047D01*
X144952380Y-81714285D01*
X144047619Y-80904761D02*
X144000000Y-80857142D01*
X143952380Y-80761904D01*
X143952380Y-80523809D01*
X144000000Y-80428571D01*
X144047619Y-80380952D01*
X144142857Y-80333333D01*
X144238095Y-80333333D01*
X144380952Y-80380952D01*
X144952380Y-80952380D01*
X144952380Y-80333333D01*
M02*
